<?xml version="1.0" encoding="UTF-8"?>
<svg id="Layer_1" xmlns="http://www.w3.org/2000/svg" xmlns:serif="http://www.serif.com/" version="1.1" viewBox="0 0 1920 1080">
  <!-- Generator: Adobe Illustrator 30.2.1, SVG Export Plug-In . SVG Version: 2.1.1 Build 1)  -->
  <g id="tail">
    <path d="M1296.4,979.24c6.15,21.69,17.84,32.53,20.92,36.07,16.46,18.54,31.92,30.92,62.38,33,30.46,2.08,50.3-10.92,46.76-20.61-3.54-9.69-17.77-7-39.46-6.38-27.07.69-51.22-24.07-57.53-49.15-6.31-25.07-6.08-49.07-28.3-65.76-33.92-25.38-104.29-5.46-122.91-2.62-18.61,2.85-37.23,40.38-7.38,34.69,29.84-5.69,70.3-17.77,94.76-9.77,24.54,7.85,24.61,28.84,30.77,50.53Z"/>
  </g>
  <g id="body">
    <g id="bg">
      <path d="M1221.03,830.18c1.62,116.68-83.3,128.44-166.52,128.44s-170.52-4.08-170.52-121.68,57.92-206.13,170.44-207.59,164.98,84.14,166.59,200.82Z"/>
    </g>
    <g id="leftleg">
      <g id="leg">
        <path d="M1026.98,960.47c-26.3-5.92-31.23-73.53-40.99-146.9-9.23-69.22-69.3-136.29-42.38-136.29s112.06,9.23,116.45,67.45c4.38,58.22,17.61,227.28-33.07,215.74Z"/>
      </g>
      <g id="foot">
        <path d="M1008.98,973.24c24.3,1.62,43.53-6.69,45.99-24.92,2.46-18.23-17-38.07-21-18.69,19.23-12.61-30.07-22.61-21.23-3,10.77-19.15-38.15-14.77-24.54-.08-5-20.92-27.38,6.31-23.15,22.54,4.92,19.31,19.54,22.54,43.92,24.15Z"/>
      </g>
    </g>
    <g id="rightleg">
      <g id="leg-2">
        <path d="M1076.82,959.63c32.61-7.08,37.46-67.45,41.46-142.44,3.92-73.84,75.53-135.44,48.53-135.44s-126.14,12.08-126.14,85.99c0,0-11,202.13,36.15,191.9Z"/>
      </g>
      <g id="foot-2">
        <path d="M1091.43,974.55c-24.38,1.54-43.53-6.92-45.84-25.07-2.31-18.15,17.15-38,21.07-18.54-19.15-12.69,30.15-22.46,21.23-2.92-10.69-19.23,38.23-14.54,24.54,0,5.08-20.84,27.38,6.46,23.07,22.61-5.15,19.23-19.77,22.38-44.07,23.92Z"/>
      </g>
    </g>
    <g id="tuft">
      <path d="M938.06,698.74c2.69,7.31.92,22.23,3.31,25.15,2.38,2.92,24.23-23.07,33.07-15.84,8.23,6.69,1.31,42.99,9.92,49.61,7.77,5.92,24.69-38.92,40.38-29.77,19.15,11.23,26.23,38.38,37.69,38.38,14.08,0,5.77-38.07,18.54-40.99,12.77-2.92,35.46,40.46,46.3,35.07,3.69-1.85,2.31-38.76,9.23-44.3,6.69-5.31,23.46,17.23,25.77,14.54,2.85-3.15.08-17.77,6.61-27.77,2.62-4,14.54-2,22.15-.31.19.04.39.07.58.07,1.46,0,2.66-1.2,2.66-2.66,0-.5-.14-.98-.4-1.4-15.07-23.69-76.91-113.37-141.67-113.37-71.76,0-116.06,66.76-136.98,108.91-.18.36-.27.76-.27,1.16,0,1.45,1.19,2.64,2.64,2.64.13,0,.27-.01.4-.03,7-1.23,18.84-2.62,20.07.92Z"/>
    </g>
  </g>
  <g id="head">
    <g id="collar">
      <path d="M1158.81,621.75c4.38,27.77-3.61,54.61-75.22,65.84-71.61,11.23-141.52-14.23-145.9-41.92-4.38-27.69,12.84-13.31,84.45-24.54,71.61-11.23,132.29-27.15,136.67.62"/>
    </g>
    <g id="bg-2">
      <path d="M1155.34,620.52c-17.54,38.07-68.76,53.76-105.76,54.22-46.61.54-103.6-22.69-118.06-66.45-19.92-60.15,46.69-139.21,118.06-136.75,73.91,2.62,132.06,91.83,105.76,148.98"/>
      <path d="M1155.34,620.52c-17.54,38.07-68.76,53.76-105.76,54.22-46.61.54-103.6-22.69-118.06-66.45-19.92-60.15,46.69-139.21,118.06-136.75,73.91,2.62,132.06,91.83,105.76,148.98Z"/>
    </g>
    <g id="leftear">
      <g id="outer">
        <path d="M947.83,533.99c-2,3.61-11.31-12.38-12.69-34.61-2.54-21.3,2.85-48.76,4.15-47.69-.69-1.54,27.23,0,47.22,7.69,21.15,6.85,34.38,19.77,30.38,20.84-23.07,18-46.07,35.84-69.07,53.76"/>
      </g>
      <g id="inner">
        <path d="M957.91,526.22c-1.46,2.62-8.08-8.77-9.08-24.54-1.77-15.07,2-34.53,2.92-33.84-.46-1.08,19.31,0,33.53,5.46,15,4.85,24.38,14,21.54,14.77-16.31,12.77-32.61,25.48-48.92,38.15"/>
      </g>
    </g>
    <g id="mask">
      <path d="M1136.81,553.6c-1.69,2.54,14.92,15.07,13.23,17.84-1.69,2.77-18.69-6-19.84-4-1.46,2.54,25.69,18.54,23.84,22.46-1.77,3.77-26.15-11.08-64.84-13.92-4.23-.29-8.44-.83-12.61-1.62-3.58-.72-7.11-1.73-10.54-3-15.23-5.31-21.3-8.15-25.15-9.23-14.84-4.38-20.61,8.69-52.38,17.23-14.46,3.85-29.15,7.46-41.84,0-1.62-1-10.46-6.38-12.84-16.23-.69-2.77-2.15-11.69,8.08-26.15,47.15-66.61,101.14-66.84,101.76-66.84,15.62.15,31,3.91,44.92,11-5.85,3.77-8.61,7.31-6.92,7.77,16.54,12.69,33.15,25.38,49.69,38.07.69,1.31,2.77-1,4.85-5.61,14.84,23.46,17,31.92,14.54,34.07-2.92,2.77-12.61-3.69-13.92-1.85"/>
    </g>
    <g id="rightear">
      <g id="outer-2">
        <path d="M1141.81,536.22c2,3.61,11.31-12.38,12.69-34.61,2.54-21.3-2.85-48.76-4.15-47.69.69-1.54-27.23,0-47.22,7.69-21.15,6.85-34.38,19.77-30.38,20.84,23,17.95,46.02,35.87,69.07,53.76"/>
      </g>
      <g id="inner-2">
        <path d="M1140.73,502.61c-.4,6.5-1.85,12.89-4.31,18.92-11.61-15.61-27.69-30.61-46.92-40.3,4.6-2.96,9.56-5.32,14.77-7,14.23-5.46,34-6.54,33.53-5.46.92-.69,4.69,18.77,2.92,33.84"/>
      </g>
    </g>
    <g id="nose">
      <path d="M1034.28,599.21l-8.15-14.08c-.58-1.03-.88-2.2-.88-3.38,0-3.75,3.05-6.86,6.81-6.92h16.32c3.76,0,6.85,3.09,6.85,6.85,0,1.22-.32,2.41-.94,3.46l-8.15,14.08c-1.23,2.11-3.49,3.4-5.92,3.4s-4.7-1.3-5.92-3.4"/>
      <path d="M1025.9,578.68c-.99,2.06-.91,4.48.23,6.46l8.15,14.08c1.22,2.14,3.5,3.46,5.96,3.46s4.74-1.33,5.96-3.46l6.69-11.54c-4.46-4.77-14.84-7.77-27-9"/>
    </g>
    <g id="mouth">
      <path d="M1004.75,644.28c-18.77,0-33.92-19.23-33.92-42.99M1038.67,601.29c0,23.77-15.15,42.99-33.92,42.99M1073.89,644.28c18.77,0,33.92-19.23,33.92-42.99M1039.97,601.29c0,23.77,15.15,42.99,33.92,42.99"/>
      <path d="M1107.81,601.29c.09,8.6-2.03,17.07-6.15,24.61"/>
    </g>
    <g id="wiskers">
      <path d="M1021.67,596.6c0-9.92-55.92-17.92-125.06-17.92M1021.67,606.52c0-5.46-50.61-9.92-113.14-9.92M1059.28,597.6c1.08-9.84,57.53-12,126.21-4.77M1058.28,607.44c.54-5.46,51.38-4.54,113.52,2"/>
    </g>
    <g id="lefteye">
      <g id="iris">
        <path d="M1021.59,552.83s-14.08,9.46-27.53,6.08c-13.46-3.38-23.07-11.69-21.3-18.46,1.15-4.61,7.38-7.38,15.54-7.54,4.07-.05,8.13.44,12.08,1.46,3.49.94,6.75,2.56,9.61,4.77,4.73,3.76,8.68,8.41,11.61,13.69"/>
      </g>
      <path d="M972.75,539.07c1.15-4.61,7.38-7.38,15.46-7.54,4.07-.05,8.13.44,12.08,1.46,3.49.94,6.75,2.56,9.61,4.77,4.77,3.74,8.74,8.4,11.69,13.69"/>
      <g id="pupil">
        <path d="M1009.52,539.6c-1.77,7.08-8.23,11.54-14.38,10-6.15-1.54-9.61-8.54-7.85-15.69.22-.81.51-1.61.85-2.38,4.07-.05,8.13.44,12.08,1.46,3.49.94,6.75,2.56,9.61,4.77-.01.63-.12,1.25-.31,1.85"/>
      </g>
      <g id="eyelash">
        <path d="M972.6,537.45c-5.85,2-13.15-3.61-16.23-12.54M982.21,532.22c-5.77,2.23-13.31-3.08-16.69-11.92M993.75,531.53c-6.23-.08-11.15-7.85-11-17.38"/>
      </g>
      <g id="reflection">
        <path d="M997.13,537.84c0,2.77-2,4.92-4.46,4.92s-4.46-2.23-4.46-4.92,2-4.92,4.46-4.92,4.46,2.23,4.46,4.92"/>
      </g>
    </g>
    <g id="righteye">
      <g id="iris-2">
        <path d="M1062.2,554.45s14.23,9.15,27.69,5.46c13.46-3.69,22.77-12.15,20.92-18.92-1.31-4.61-7.54-7.23-15.61-7.23-4.06.03-8.09.6-12,1.69-3.46,1.03-6.69,2.7-9.54,4.92-4.71,3.89-8.61,8.67-11.46,14.08"/>
      </g>
      <g id="lid">
        <path d="M1110.73,539.68c-1.31-4.61-7.54-7.23-15.61-7.23-4.06.03-8.09.6-12,1.69-3.46,1.03-6.69,2.7-9.54,4.92-4.68,3.86-8.57,8.59-11.46,13.92"/>
      </g>
      <g id="pupil-2">
        <path d="M1073.97,540.99c1.92,7.08,8.46,11.38,14.54,9.69s9.46-8.77,7.54-15.84c-.23-.82-.54-1.62-.92-2.38-4.06.03-8.09.6-12,1.69-3.46,1.03-6.69,2.7-9.54,4.92.04.66.17,1.3.38,1.92"/>
      </g>
      <g id="eyelash-2">
        <path d="M1109.5,538.07c5.92,1.92,13.08-3.85,16-12.92M1101.12,532.99c5.85,2.15,13.23-3.38,16.46-12.31M1089.58,532.53c6.23-.23,11-8.08,10.69-17.54"/>
      </g>
      <g id="reflection-2">
        <path d="M1085.05,541.76c0,2.77-2,5-4.46,5s-4.46-2.23-4.46-5,2-4.92,4.46-4.92,4.46,2.23,4.46,4.92"/>
      </g>
    </g>
  </g>
</svg>