<?xml version="1.0" encoding="UTF-8"?>
<svg id="Layer_1" xmlns="http://www.w3.org/2000/svg" xmlns:serif="http://www.serif.com/" version="1.1" viewBox="0 0 335.39 346.44">
  <!-- Generator: Adobe Illustrator 30.2.1, SVG Export Plug-In . SVG Version: 2.1.1 Build 1)  -->
  <defs>
    <style>
      .st0 {
        fill: #1082ff;
      }
    </style>
  </defs>
  <g id="tail">
    <path class="st0" d="M255.17,299.25c3.45,12.16,10.01,18.25,11.73,20.23,9.23,10.4,17.9,17.34,34.99,18.51,17.08,1.16,28.21-6.13,26.23-11.56-1.98-5.44-9.96-3.93-22.13-3.58-15.18.39-28.73-13.5-32.27-27.57-3.54-14.06-3.41-27.52-15.87-36.88-19.02-14.24-58.5-3.06-68.94-1.47-10.44,1.6-20.88,22.65-4.14,19.46s39.43-9.96,53.15-5.48c13.76,4.4,13.8,16.18,17.26,28.34h-.01Z"/>
  </g>
  <g id="body">
    <g id="bg">
      <path class="st0" d="M212.9,215.64c.91,65.44-46.72,72.04-93.39,72.04s-95.64-2.29-95.64-68.24,32.48-115.61,95.59-116.43c63.11-.82,92.53,47.19,93.44,112.63h0Z"/>
    </g>
    <g id="leftleg">
      <g id="leg">
        <path class="st0" d="M104.06,288.72c-14.75-3.32-17.51-41.24-22.99-82.39-5.18-38.82-38.87-76.44-23.77-76.44s62.85,5.18,65.31,37.83c2.46,32.66,9.88,127.47-18.55,121h0Z"/>
      </g>
      <g id="foot">
        <path class="st0" d="M93.97,295.88c13.63.91,24.42-3.75,25.8-13.98s-9.53-21.35-11.78-10.48c10.78-7.07-16.87-12.68-11.91-1.68,6.04-10.74-21.4-8.28-13.76-.04-2.8-11.73-15.36,3.54-12.98,12.64,2.76,10.83,10.96,12.64,24.63,13.55h0Z"/>
      </g>
    </g>
    <g id="rightleg">
      <g id="leg-2">
        <path class="st0" d="M132.01,288.25c18.29-3.97,21.01-37.83,23.25-79.89,2.2-41.41,42.36-75.97,27.22-75.97s-70.75,6.77-70.75,48.23c0,0-6.17,113.37,20.28,107.63h0Z"/>
      </g>
      <g id="foot-2">
        <path class="st0" d="M140.21,296.61c-13.67.86-24.42-3.88-25.71-14.06s9.62-21.31,11.82-10.4c-10.74-7.12,16.91-12.6,11.91-1.64-6-10.78,21.44-8.15,13.76,0,2.85-11.69,15.36,3.62,12.94,12.68-2.89,10.78-11.09,12.55-24.72,13.42h0Z"/>
      </g>
    </g>
    <g id="tuft">
      <path class="st0" d="M54.19,141.92c1.51,4.1.52,12.47,1.85,14.11,1.34,1.64,13.59-12.94,18.55-8.89,4.62,3.75.73,24.11,5.56,27.82,4.36,3.32,13.85-21.83,22.65-16.69,10.74,6.3,14.71,21.53,21.14,21.53,7.89,0,3.24-21.35,10.4-22.99s19.89,22.69,25.97,19.67c2.07-1.04,1.29-21.74,5.18-24.85,3.75-2.98,13.16,9.66,14.45,8.15,1.6-1.77.04-9.96,3.71-15.57,1.47-2.24,8.15-1.12,12.42-.17.11.02.22.04.33.04.82,0,1.49-.67,1.49-1.49,0-.28-.08-.55-.22-.79-8.46-13.29-43.14-63.59-79.46-63.59-40.25,0-65.1,37.44-76.83,61.08-.1.2-.15.43-.15.65,0,.81.67,1.48,1.48,1.48.08,0,.15,0,.22-.02,3.93-.69,10.57-1.47,11.26.52h0Z"/>
    </g>
  </g>
  <g id="head">
    <g id="collar">
      <path class="st0" d="M178,98.74c2.46,15.57-2.03,30.63-42.19,36.93s-79.37-7.98-81.83-23.51,7.2-7.46,47.37-13.76c40.16-6.3,74.2-15.23,76.66.35"/>
    </g>
    <g id="bg-2">
      <path class="st0" d="M176.06,98.05c-9.84,21.35-38.57,30.15-59.32,30.41-26.14.3-58.11-12.73-66.22-37.27C39.35,57.46,76.7,13.11,116.74,14.49c41.46,1.47,74.07,51.51,59.32,83.56"/>
      <path class="st0" d="M176.06,98.05c-9.84,21.35-38.57,30.15-59.32,30.41-26.14.3-58.11-12.73-66.22-37.27C39.35,57.46,76.7,13.11,116.74,14.49c41.46,1.47,74.07,51.51,59.32,83.56h0Z"/>
    </g>
    <g id="leftear">
      <g id="outer">
        <path class="st0" d="M59.67,49.52c-1.12,2.03-6.34-6.95-7.12-19.41-1.42-11.95,1.6-27.35,2.33-26.75-.39-.86,15.27,0,26.49,4.31,11.86,3.84,19.28,11.09,17.04,11.69-12.94,10.09-25.84,20.1-38.74,30.15"/>
      </g>
      <g id="inner">
        <path class="st0" d="M65.32,45.16c-.82,1.47-4.53-4.92-5.09-13.76-.99-8.46,1.12-19.37,1.64-18.98-.26-.6,10.83,0,18.81,3.06,8.41,2.72,13.67,7.85,12.08,8.28-9.15,7.16-18.29,14.29-27.44,21.4"/>
      </g>
    </g>
    <g id="mask">
      <path class="st0" d="M165.66,60.52c-.95,1.42,8.37,8.46,7.42,10.01s-10.48-3.36-11.13-2.24c-.82,1.42,14.41,10.4,13.37,12.6-.99,2.11-14.67-6.21-36.37-7.81-2.37-.16-4.74-.47-7.07-.91-2.01-.41-3.99-.97-5.91-1.68-8.54-2.98-11.95-4.57-14.11-5.18-8.33-2.46-11.56,4.87-29.38,9.66-8.11,2.16-16.35,4.18-23.47,0-.91-.56-5.87-3.58-7.2-9.1-.39-1.55-1.21-6.56,4.53-14.67C82.78,13.84,113.07,13.71,113.41,13.71c8.76.08,17.38,2.19,25.19,6.17-3.28,2.11-4.83,4.1-3.88,4.36,9.27,7.12,18.59,14.24,27.87,21.35.39.73,1.55-.56,2.72-3.15,8.33,13.16,9.53,17.9,8.15,19.11-1.64,1.55-7.07-2.07-7.81-1.04"/>
    </g>
    <g id="rightear">
      <g id="outer-2">
        <path class="st0" d="M168.47,50.77c1.12,2.03,6.34-6.95,7.12-19.41,1.42-11.95-1.6-27.35-2.33-26.75.39-.86-15.27,0-26.49,4.31-11.86,3.84-19.28,11.09-17.04,11.69,12.9,10.07,25.81,20.12,38.74,30.15"/>
      </g>
      <g id="inner-2">
        <path class="st0" d="M167.86,31.92c-.22,3.65-1.04,7.23-2.42,10.61-6.51-8.76-15.53-17.17-26.31-22.6,2.58-1.66,5.36-2.98,8.28-3.93,7.98-3.06,19.07-3.67,18.81-3.06.52-.39,2.63,10.53,1.64,18.98"/>
      </g>
    </g>
    <g id="nose">
      <path class="st0" d="M108.16,86.1l-4.57-7.89c-.33-.58-.5-1.23-.5-1.9,0-2.11,1.71-3.85,3.82-3.88h9.15c2.11,0,3.84,1.73,3.84,3.84,0,.68-.18,1.35-.53,1.94l-4.57,7.89c-.69,1.18-1.96,1.91-3.32,1.91s-2.63-.73-3.32-1.91"/>
      <path class="st0" d="M103.46,74.58c-.56,1.15-.51,2.51.13,3.62l4.57,7.89c.68,1.2,1.96,1.94,3.34,1.94s2.66-.74,3.34-1.94l3.75-6.47c-2.5-2.67-8.33-4.36-15.14-5.05"/>
    </g>
    <g id="mouth">
      <path class="st0" d="M91.59,111.38c-10.53,0-19.02-10.78-19.02-24.11M110.62,87.26c0,13.33-8.5,24.11-19.02,24.11M130.38,111.38c10.53,0,19.02-10.78,19.02-24.11M111.35,87.26c0,13.33,8.5,24.11,19.02,24.11"/>
      <path class="st0" d="M149.4,87.26c.05,4.82-1.14,9.58-3.45,13.8"/>
    </g>
    <g id="wiskers">
      <path class="st0" d="M101.08,84.63c0-5.56-31.36-10.05-70.14-10.05M101.08,90.2c0-3.06-28.39-5.56-63.46-5.56M122.18,85.19c.6-5.52,32.27-6.73,70.79-2.67M121.62,90.72c.3-3.06,28.82-2.55,63.67,1.12"/>
    </g>
    <g id="lefteye">
      <g id="iris">
        <path class="st0" d="M101.04,60.09s-7.89,5.31-15.44,3.41-12.94-6.56-11.95-10.35c.65-2.59,4.14-4.14,8.71-4.23,2.28-.03,4.56.25,6.77.82,1.96.53,3.79,1.44,5.39,2.67,2.65,2.11,4.87,4.72,6.51,7.68"/>
      </g>
      <path class="st0" d="M73.65,52.37c.65-2.59,4.14-4.14,8.67-4.23,2.28-.03,4.56.25,6.77.82,1.96.53,3.79,1.44,5.39,2.67,2.67,2.1,4.9,4.71,6.56,7.68"/>
      <g id="pupil">
        <path class="st0" d="M94.27,52.67c-.99,3.97-4.62,6.47-8.07,5.61s-5.39-4.79-4.4-8.8c.13-.46.28-.9.47-1.34,2.28-.03,4.56.25,6.77.82,1.96.53,3.79,1.44,5.39,2.67,0,.35-.07.7-.17,1.04"/>
      </g>
      <g id="eyelash">
        <path class="st0" d="M73.56,51.46c-3.28,1.12-7.38-2.03-9.1-7.03M78.95,48.53c-3.24,1.25-7.46-1.73-9.36-6.69M85.43,48.14c-3.49-.04-6.26-4.4-6.17-9.75"/>
      </g>
      <g id="reflection">
        <path class="st0" d="M87.32,51.67c0,1.55-1.12,2.76-2.5,2.76s-2.5-1.25-2.5-2.76,1.12-2.76,2.5-2.76,2.5,1.25,2.5,2.76"/>
      </g>
    </g>
    <g id="righteye">
      <g id="iris-2">
        <path class="st0" d="M123.82,60.99s7.98,5.13,15.53,3.06,12.77-6.82,11.73-10.61c-.73-2.59-4.23-4.06-8.76-4.06-2.28.02-4.54.33-6.73.95-1.94.58-3.75,1.51-5.35,2.76-2.64,2.18-4.83,4.86-6.43,7.89"/>
      </g>
      <g id="lid">
        <path class="st0" d="M151.04,52.71c-.73-2.59-4.23-4.06-8.76-4.06-2.28.02-4.54.33-6.73.95-1.94.58-3.75,1.51-5.35,2.76-2.63,2.16-4.81,4.82-6.43,7.81"/>
      </g>
      <g id="pupil-2">
        <path class="st0" d="M130.42,53.44c1.08,3.97,4.75,6.38,8.15,5.44s5.31-4.92,4.23-8.89c-.13-.46-.3-.91-.52-1.34-2.28.02-4.54.33-6.73.95-1.94.58-3.75,1.51-5.35,2.76.02.37.09.73.22,1.08"/>
      </g>
      <g id="eyelash-2">
        <path class="st0" d="M150.35,51.8c3.32,1.08,7.33-2.16,8.97-7.25M145.65,48.96c3.28,1.21,7.42-1.9,9.23-6.9M139.18,48.7c3.49-.13,6.17-4.53,6-9.84"/>
      </g>
      <g id="reflection-2">
        <path class="st0" d="M136.63,53.88c0,1.55-1.12,2.8-2.5,2.8s-2.5-1.25-2.5-2.8,1.12-2.76,2.5-2.76,2.5,1.25,2.5,2.76"/>
      </g>
    </g>
  </g>
</svg>