<?xml version="1.0" encoding="UTF-8"?>
<svg id="Layer_1" xmlns="http://www.w3.org/2000/svg" xmlns:serif="http://www.serif.com/" version="1.1" viewBox="0 0 1920 1080">
  <!-- Generator: Adobe Illustrator 30.2.1, SVG Export Plug-In . SVG Version: 2.1.1 Build 1)  -->
  <defs>
    <style>
      .st0 {
        fill: #fff;
        stroke: #000;
        stroke-miterlimit: 10;
        stroke-width: 2px;
      }
    </style>
  </defs>
  <g id="tail">
    <path class="st0" d="M1381.01,1024.17c2.16,7.62,6.27,11.44,7.35,12.68,5.79,6.52,11.22,10.87,21.93,11.6,10.71.73,17.68-3.84,16.44-7.25-1.24-3.41-6.25-2.46-13.87-2.24-9.52.24-18.01-8.46-20.22-17.28-2.22-8.81-2.14-17.25-9.95-23.12-11.92-8.92-36.66-1.92-43.21-.92-6.54,1-13.09,14.19-2.6,12.19,10.49-2,24.71-6.25,33.31-3.43,8.63,2.76,8.65,10.14,10.82,17.76Z"/>
  </g>
  <g id="body">
    <g id="bg">
      <path class="st0" d="M1354.51,971.77c.57,41.02-29.28,45.15-58.54,45.15s-59.94-1.43-59.94-42.77,20.36-72.46,59.92-72.97c39.56-.51,58,29.58,58.56,70.6Z"/>
    </g>
    <g id="leftleg">
      <g id="leg">
        <path class="st0" d="M1286.29,1017.57c-9.25-2.08-10.98-25.85-14.41-51.64-3.24-24.33-24.36-47.91-14.9-47.91s39.39,3.24,40.94,23.71c1.54,20.47,6.19,79.9-11.63,75.84Z"/>
      </g>
      <g id="foot">
        <path class="st0" d="M1279.97,1022.06c8.54.57,15.3-2.35,16.17-8.76.87-6.41-5.98-13.38-7.38-6.57,6.76-4.43-10.57-7.95-7.46-1.05,3.79-6.73-13.41-5.19-8.63-.03-1.76-7.35-9.63,2.22-8.14,7.92,1.73,6.79,6.87,7.92,15.44,8.49Z"/>
      </g>
    </g>
    <g id="rightleg">
      <g id="leg-2">
        <path class="st0" d="M1303.81,1017.28c11.46-2.49,13.17-23.71,14.57-50.07,1.38-25.96,26.55-47.61,17.06-47.61s-44.34,4.24-44.34,30.23c0,0-3.87,71.05,12.71,67.46Z"/>
      </g>
      <g id="foot-2">
        <path class="st0" d="M1308.95,1022.52c-8.57.54-15.3-2.43-16.11-8.81-.81-6.38,6.03-13.36,7.41-6.52-6.73-4.46,10.6-7.89,7.46-1.03-3.76-6.76,13.44-5.11,8.63,0,1.78-7.33,9.63,2.27,8.11,7.95-1.81,6.76-6.95,7.87-15.49,8.41Z"/>
      </g>
    </g>
    <g id="tuft">
      <path class="st0" d="M1255.04,925.56c.95,2.57.32,7.81,1.16,8.84.84,1.03,8.52-8.11,11.63-5.57,2.89,2.35.46,15.11,3.49,17.44,2.73,2.08,8.68-13.68,14.19-10.46,6.73,3.95,9.22,13.49,13.25,13.49,4.95,0,2.03-13.38,6.52-14.41,4.49-1.03,12.46,14.22,16.28,12.33,1.3-.65.81-13.63,3.24-15.57,2.35-1.87,8.25,6.06,9.06,5.11,1-1.11.03-6.25,2.33-9.76.92-1.41,5.11-.7,7.79-.11.07.02.14.02.21.02.51,0,.94-.42.94-.94,0-.17-.05-.35-.14-.49-5.3-8.33-27.04-39.85-49.8-39.85-25.23,0-40.8,23.47-48.15,38.29-.06.13-.09.27-.09.41,0,.51.42.93.93.93.05,0,.09,0,.14-.01,2.46-.43,6.62-.92,7.06.32Z"/>
    </g>
  </g>
  <g id="head">
    <g id="collar">
      <path class="st0" d="M1332.64,898.5c1.54,9.76-1.27,19.2-26.44,23.14-25.17,3.95-49.75-5-51.29-14.74-1.54-9.73,4.52-4.68,29.69-8.63,25.17-3.95,46.5-9.54,48.05.22"/>
    </g>
    <g id="bg-2">
      <path class="st0" d="M1331.42,898.07c-6.16,13.38-24.17,18.9-37.18,19.06-16.38.19-36.42-7.98-41.5-23.36-7-21.14,16.41-48.94,41.5-48.07,25.98.92,46.42,32.28,37.18,52.37"/>
      <path class="st0" d="M1331.42,898.07c-6.16,13.38-24.17,18.9-37.18,19.06-16.38.19-36.42-7.98-41.5-23.36-7-21.14,16.41-48.94,41.5-48.07,25.98.92,46.42,32.28,37.18,52.37Z"/>
    </g>
    <g id="leftear">
      <g id="outer">
        <path class="st0" d="M1258.47,867.65c-.7,1.27-3.97-4.35-4.46-12.17-.89-7.49,1-17.14,1.46-16.76-.24-.54,9.57,0,16.6,2.7,7.44,2.41,12.09,6.95,10.68,7.33-8.11,6.33-16.2,12.6-24.28,18.9"/>
      </g>
      <g id="inner">
        <path class="st0" d="M1262.01,864.92c-.51.92-2.84-3.08-3.19-8.63-.62-5.3.7-12.14,1.03-11.9-.16-.38,6.79,0,11.79,1.92,5.27,1.7,8.57,4.92,7.57,5.19-5.73,4.49-11.46,8.96-17.2,13.41"/>
      </g>
    </g>
    <g id="mask">
      <path class="st0" d="M1324.9,874.54c-.59.89,5.25,5.3,4.65,6.27-.59.97-6.57-2.11-6.98-1.41-.51.89,9.03,6.52,8.38,7.89-.62,1.32-9.19-3.89-22.79-4.89-1.49-.1-2.97-.29-4.43-.57-1.26-.25-2.5-.61-3.7-1.05-5.35-1.87-7.49-2.87-8.84-3.24-5.22-1.54-7.25,3.06-18.41,6.06-5.08,1.35-10.25,2.62-14.71,0-.57-.35-3.68-2.24-4.52-5.7-.24-.97-.76-4.11,2.84-9.19,16.57-23.41,35.55-23.5,35.77-23.5,5.49.05,10.9,1.38,15.79,3.87-2.05,1.32-3.03,2.57-2.43,2.73,5.81,4.46,11.65,8.92,17.47,13.38.24.46.97-.35,1.7-1.97,5.22,8.25,5.98,11.22,5.11,11.98-1.03.97-4.43-1.3-4.89-.65"/>
    </g>
    <g id="rightear">
      <g id="outer-2">
        <path class="st0" d="M1326.66,868.43c.7,1.27,3.97-4.35,4.46-12.17.89-7.49-1-17.14-1.46-16.76.24-.54-9.57,0-16.6,2.7-7.44,2.41-12.09,6.95-10.68,7.33,8.08,6.31,16.18,12.61,24.28,18.9"/>
      </g>
      <g id="inner-2">
        <path class="st0" d="M1326.28,856.62c-.14,2.28-.65,4.53-1.51,6.65-4.08-5.49-9.73-10.76-16.49-14.17,1.62-1.04,3.36-1.87,5.19-2.46,5-1.92,11.95-2.3,11.79-1.92.32-.24,1.65,6.6,1.03,11.9"/>
      </g>
    </g>
    <g id="nose">
      <path class="st0" d="M1288.86,890.58l-2.87-4.95c-.2-.36-.31-.77-.31-1.19,0-1.32,1.07-2.41,2.39-2.43h5.74c1.32,0,2.41,1.09,2.41,2.41,0,.43-.11.85-.33,1.22l-2.87,4.95c-.43.74-1.23,1.2-2.08,1.2s-1.65-.46-2.08-1.2"/>
      <path class="st0" d="M1285.91,883.36c-.35.72-.32,1.57.08,2.27l2.87,4.95c.43.75,1.23,1.22,2.1,1.22s1.67-.47,2.1-1.22l2.35-4.06c-1.57-1.68-5.22-2.73-9.49-3.16"/>
    </g>
    <g id="mouth">
      <path class="st0" d="M1278.48,906.42c-6.6,0-11.92-6.76-11.92-15.11M1290.4,891.31c0,8.35-5.33,15.11-11.92,15.11M1302.79,906.42c6.6,0,11.92-6.76,11.92-15.11M1290.86,891.31c0,8.35,5.33,15.11,11.92,15.11"/>
      <path class="st0" d="M1314.71,891.31c.03,3.02-.71,6-2.16,8.65"/>
    </g>
    <g id="wiskers">
      <path class="st0" d="M1284.43,889.66c0-3.49-19.66-6.3-43.96-6.3M1284.43,893.15c0-1.92-17.79-3.49-39.77-3.49M1297.65,890.01c.38-3.46,20.22-4.22,44.37-1.68M1297.3,893.47c.19-1.92,18.06-1.6,39.91.7"/>
    </g>
    <g id="lefteye">
      <g id="iris">
        <path class="st0" d="M1284.4,874.27s-4.95,3.33-9.68,2.14c-4.73-1.19-8.11-4.11-7.49-6.49.41-1.62,2.6-2.6,5.46-2.65,1.43-.02,2.86.15,4.24.51,1.23.33,2.37.9,3.38,1.68,1.66,1.32,3.05,2.96,4.08,4.81"/>
      </g>
      <path class="st0" d="M1267.23,869.43c.41-1.62,2.6-2.6,5.43-2.65,1.43-.02,2.86.15,4.24.51,1.23.33,2.37.9,3.38,1.68,1.68,1.32,3.07,2.95,4.11,4.81"/>
      <g id="pupil">
        <path class="st0" d="M1280.16,869.62c-.62,2.49-2.89,4.06-5.06,3.51s-3.38-3-2.76-5.52c.08-.29.18-.57.3-.84,1.43-.02,2.86.15,4.24.51,1.23.33,2.37.9,3.38,1.68,0,.22-.04.44-.11.65"/>
      </g>
      <g id="eyelash">
        <path class="st0" d="M1267.18,868.87c-2.05.7-4.62-1.27-5.7-4.41M1270.56,867.03c-2.03.78-4.68-1.08-5.87-4.19M1274.61,866.78c-2.19-.03-3.92-2.76-3.87-6.11"/>
      </g>
      <g id="reflection">
        <path class="st0" d="M1275.8,869c0,.97-.7,1.73-1.57,1.73s-1.57-.78-1.57-1.73.7-1.73,1.57-1.73,1.57.78,1.57,1.73"/>
      </g>
    </g>
    <g id="righteye">
      <g id="iris-2">
        <path class="st0" d="M1298.68,874.84s5,3.22,9.73,1.92,8-4.27,7.35-6.65c-.46-1.62-2.65-2.54-5.49-2.54-1.43,0-2.84.21-4.22.59-1.22.36-2.35.95-3.35,1.73-1.66,1.37-3.03,3.05-4.03,4.95"/>
      </g>
      <g id="lid">
        <path class="st0" d="M1315.74,869.65c-.46-1.62-2.65-2.54-5.49-2.54-1.43,0-2.84.21-4.22.59-1.22.36-2.35.95-3.35,1.73-1.65,1.36-3.01,3.02-4.03,4.89"/>
      </g>
      <g id="pupil-2">
        <path class="st0" d="M1302.81,870.11c.68,2.49,2.97,4,5.11,3.41s3.33-3.08,2.65-5.57c-.08-.29-.19-.57-.32-.84-1.43,0-2.84.21-4.22.59-1.22.36-2.35.95-3.35,1.73.01.23.06.46.14.68"/>
      </g>
      <g id="eyelash-2">
        <path class="st0" d="M1315.3,869.08c2.08.68,4.6-1.35,5.62-4.54M1312.36,867.3c2.05.76,4.65-1.19,5.79-4.33M1308.3,867.14c2.19-.08,3.87-2.84,3.76-6.16"/>
      </g>
      <g id="reflection-2">
        <path class="st0" d="M1306.71,870.38c0,.97-.7,1.76-1.57,1.76s-1.57-.78-1.57-1.76.7-1.73,1.57-1.73,1.57.78,1.57,1.73"/>
      </g>
    </g>
  </g>
</svg>