<?xml version="1.0" encoding="UTF-8"?>
<svg id="Layer_1" xmlns="http://www.w3.org/2000/svg" xmlns:serif="http://www.serif.com/" version="1.1" viewBox="0 0 1920 1080">
  <!-- Generator: Adobe Illustrator 30.2.1, SVG Export Plug-In . SVG Version: 2.1.1 Build 1)  -->
  <defs>
    <style>
      .st0 {
        stroke-width: 15px;
      }

      .st0, .st1 {
        fill: #fff;
        stroke: #000;
        stroke-miterlimit: 10;
      }

      .st1 {
        stroke-width: 8px;
      }
    </style>
  </defs>
  <g id="tail">
    <path class="st0" d="M1197.87,926.91c10.8,38.07,31.32,57.1,36.72,63.31,28.89,32.54,56.03,54.27,109.49,57.92,53.46,3.65,88.29-19.17,82.08-36.18-6.21-17.01-31.18-12.29-69.25-11.21-47.52,1.22-89.91-42.25-100.98-86.26-11.07-44.01-10.67-86.13-49.68-115.43-59.53-44.55-183.06-9.59-215.73-4.59-32.67,5-65.34,70.88-12.96,60.89,52.38-9.99,123.39-31.19,166.32-17.15,43.06,13.77,43.2,50.63,54,88.7Z"/>
  </g>
  <g id="body">
    <g id="bg">
      <path class="st0" d="M1065.57,665.28c2.84,204.79-146.2,225.45-292.28,225.45s-299.29-7.15-299.29-213.57,101.66-361.8,299.16-364.36,289.57,147.69,292.41,352.49Z"/>
    </g>
    <g id="leftleg">
      <g id="leg">
        <path class="st0" d="M724.97,893.97c-46.17-10.4-54.81-129.06-71.96-257.85-16.2-121.5-121.64-239.22-74.39-239.22s196.69,16.2,204.39,118.4c7.69,102.2,30.91,398.93-58.05,378.68Z"/>
      </g>
      <g id="foot">
        <path class="st0" d="M693.37,916.38c42.66,2.84,76.41-11.74,80.73-43.74s-29.84-66.83-36.86-32.8c33.75-22.14-52.78-39.69-37.26-5.27,18.9-33.62-66.96-25.92-43.07-.13-8.78-36.72-48.06,11.07-40.63,39.55,8.64,33.88,34.29,39.55,77.08,42.39Z"/>
      </g>
    </g>
    <g id="rightleg">
      <g id="leg-2">
        <path class="st0" d="M812.44,892.48c57.24-12.42,65.75-118.4,72.76-250.02,6.89-129.6,132.57-237.74,85.19-237.74s-221.4,21.19-221.4,150.93c0,0-19.3,354.78,63.45,336.83Z"/>
      </g>
      <g id="foot-2">
        <path class="st0" d="M838.09,918.67c-42.79,2.7-76.41-12.15-80.46-44.01-4.05-31.86,30.11-66.69,36.99-32.54-33.61-22.28,52.92-39.42,37.26-5.13-18.76-33.75,67.1-25.51,43.07,0,8.91-36.58,48.06,11.34,40.5,39.69-9.05,33.75-34.7,39.28-77.36,41.98Z"/>
      </g>
    </g>
    <g id="tuft">
      <path class="st0" d="M568.91,434.56c4.73,12.83,1.62,39.01,5.81,44.14,4.18,5.13,42.53-40.5,58.05-27.81,14.44,11.75,2.29,75.47,17.41,87.08,13.64,10.4,43.34-68.31,70.88-52.24,33.62,19.71,46.04,67.36,66.15,67.36,24.71,0,10.13-66.83,32.53-71.95,22.41-5.13,62.24,71.01,81.27,61.56,6.48-3.24,4.05-68.04,16.2-77.76,11.75-9.32,41.18,30.24,45.23,25.51,5-5.54.14-31.19,11.61-48.74,4.59-7.02,25.51-3.51,38.88-.54.34.08.68.11,1.03.11,2.56,0,4.67-2.11,4.67-4.67,0-.87-.24-1.72-.7-2.46-26.46-41.58-135-198.99-248.67-198.99-125.95,0-203.71,117.18-240.43,191.16-.31.63-.47,1.33-.47,2.04,0,2.54,2.09,4.63,4.63,4.63.23,0,.47-.02.7-.05,12.28-2.16,33.08-4.59,35.23,1.62Z"/>
    </g>
  </g>
  <g id="head">
    <g id="collar">
      <path class="st1" d="M956.36,299.43c7.7,48.74-6.35,95.85-132.03,115.56-125.69,19.71-248.4-24.98-256.1-73.58-7.69-48.6,22.54-23.36,148.23-43.07,125.68-19.71,232.2-47.66,239.9,1.08"/>
    </g>
    <g id="bg-2">
      <path class="st1" d="M950.28,297.27c-30.78,66.83-120.69,94.36-185.63,95.18-81.81.95-181.84-39.83-207.23-116.64-34.97-105.57,81.94-244.35,207.23-240.03,129.74,4.59,231.8,161.19,185.63,261.5"/>
      <path class="st1" d="M950.28,297.27c-30.78,66.83-120.69,94.36-185.63,95.18-81.81.95-181.84-39.83-207.23-116.64-34.97-105.57,81.94-244.35,207.23-240.03,129.74,4.59,231.8,161.19,185.63,261.5Z"/>
    </g>
    <g id="leftear">
      <g id="outer">
        <path class="st1" d="M586.05,145.39c-3.51,6.34-19.84-21.73-22.28-60.75-4.45-37.4,5-85.59,7.29-83.7-1.22-2.7,47.79,0,82.89,13.5,37.13,12.01,60.34,34.7,53.33,36.58-40.5,31.59-80.87,62.91-121.23,94.37"/>
      </g>
      <g id="inner">
        <path class="st1" d="M603.74,131.76c-2.57,4.59-14.18-15.39-15.93-43.07-3.11-26.46,3.51-60.62,5.13-59.4-.81-1.89,33.88,0,58.86,9.58,26.33,8.51,42.8,24.57,37.8,25.92-28.62,22.41-57.24,44.73-85.86,66.96"/>
      </g>
    </g>
    <g id="mask">
      <path class="st1" d="M917.74,179.82c-2.97,4.46,26.19,26.46,23.22,31.32-2.97,4.86-32.81-10.53-34.83-7.02-2.56,4.46,45.09,32.54,41.85,39.42-3.1,6.62-45.9-19.44-113.8-24.43-7.43-.51-14.82-1.46-22.14-2.84-6.29-1.27-12.48-3.03-18.5-5.26-26.73-9.32-37.39-14.31-44.14-16.2-26.06-7.7-36.18,15.25-91.93,30.24-25.38,6.75-51.17,13.09-73.44,0-2.83-1.76-18.36-11.21-22.54-28.49-1.22-4.86-3.78-20.52,14.18-45.9,82.76-116.91,177.53-117.32,178.61-117.32,27.42.26,54.4,6.87,78.84,19.3-10.26,6.62-15.12,12.83-12.15,13.64,29.03,22.28,58.18,44.55,87.21,66.83,1.22,2.29,4.86-1.76,8.51-9.86,26.05,41.18,29.84,56.03,25.51,59.8-5.13,4.86-22.14-6.48-24.44-3.24"/>
    </g>
    <g id="rightear">
      <g id="outer-2">
        <path class="st1" d="M926.52,149.31c3.51,6.34,19.85-21.73,22.28-60.75,4.46-37.4-4.99-85.59-7.29-83.7,1.21-2.7-47.79,0-82.89,13.5-37.13,12.01-60.35,34.69-53.33,36.59,40.36,31.5,80.77,62.95,121.23,94.37"/>
      </g>
      <g id="inner-2">
        <path class="st1" d="M924.63,90.31c-.7,11.41-3.25,22.62-7.56,33.21-20.39-27.41-48.6-53.73-82.35-70.74,8.07-5.2,16.78-9.33,25.92-12.29,24.98-9.58,59.67-11.48,58.86-9.58,1.62-1.22,8.23,32.94,5.13,59.4"/>
      </g>
    </g>
    <g id="nose">
      <path class="st1" d="M737.79,259.87l-14.31-24.71c-1.02-1.81-1.55-3.86-1.55-5.94,0-6.59,5.36-12.04,11.95-12.15h28.65c6.59,0,12.01,5.42,12.01,12.01,0,2.14-.57,4.23-1.65,6.08l-14.31,24.71c-2.15,3.7-6.12,5.98-10.39,5.98s-8.24-2.28-10.39-5.98"/>
      <path class="st1" d="M723.07,223.83c-1.75,3.61-1.59,7.86.41,11.34l14.31,24.71c2.14,3.75,6.14,6.08,10.46,6.08s8.32-2.33,10.46-6.08l11.74-20.25c-7.83-8.37-26.06-13.64-47.39-15.79"/>
    </g>
    <g id="mouth">
      <path class="st1" d="M685.95,338.98c-32.94,0-59.53-33.75-59.53-75.46M745.49,263.52c0,41.71-26.59,75.46-59.54,75.46M807.32,338.98c32.94,0,59.54-33.75,59.54-75.46M747.78,263.52c0,41.71,26.59,75.46,59.54,75.46"/>
      <path class="st1" d="M866.85,263.52c.16,15.09-3.55,29.97-10.8,43.2"/>
    </g>
    <g id="wiskers">
      <path class="st1" d="M715.65,255.28c0-17.41-98.14-31.45-219.51-31.45M715.65,272.7c0-9.59-88.83-17.42-198.59-17.42M781.67,257.04c1.89-17.28,100.98-21.06,221.54-8.37M779.91,274.32c.94-9.59,90.18-7.96,199.26,3.51"/>
    </g>
    <g id="lefteye">
      <g id="iris">
        <path class="st1" d="M715.52,178.47s-24.71,16.61-48.33,10.66c-23.63-5.94-40.5-20.52-37.4-32.4,2.03-8.1,12.96-12.96,27.27-13.23,7.15-.09,14.28.77,21.19,2.57,6.12,1.66,11.85,4.5,16.88,8.37,8.3,6.6,15.23,14.76,20.39,24.03"/>
      </g>
      <path class="st1" d="M629.79,154.3c2.03-8.1,12.96-12.96,27.13-13.23,7.15-.09,14.28.77,21.19,2.56,6.12,1.66,11.85,4.5,16.88,8.37,8.36,6.57,15.34,14.74,20.52,24.03"/>
      <g id="pupil">
        <path class="st1" d="M694.32,155.25c-3.1,12.42-14.44,20.25-25.24,17.55s-16.88-14.99-13.77-27.54c.39-1.43.89-2.83,1.49-4.18,7.15-.09,14.28.77,21.19,2.56,6.12,1.66,11.85,4.5,16.88,8.37-.03,1.1-.21,2.19-.54,3.24"/>
      </g>
      <g id="eyelash">
        <path class="st1" d="M629.52,151.47c-10.26,3.51-23.08-6.34-28.48-22.01M646.39,142.29c-10.13,3.92-23.35-5.4-29.29-20.93M666.64,141.07c-10.93-.14-19.58-13.77-19.3-30.51"/>
      </g>
      <g id="reflection">
        <path class="st1" d="M672.59,152.14c0,4.86-3.51,8.64-7.83,8.64s-7.83-3.91-7.83-8.64,3.51-8.64,7.83-8.64,7.83,3.92,7.83,8.64"/>
      </g>
    </g>
    <g id="righteye">
      <g id="iris-2">
        <path class="st1" d="M786.79,181.3s24.98,16.06,48.6,9.58,39.96-21.33,36.72-33.21c-2.3-8.1-13.23-12.69-27.41-12.69-7.12.05-14.2,1.05-21.06,2.97-6.07,1.8-11.75,4.74-16.74,8.64-8.27,6.83-15.11,15.22-20.11,24.71"/>
      </g>
      <g id="lid">
        <path class="st1" d="M871.98,155.38c-2.3-8.1-13.23-12.69-27.4-12.69-7.12.05-14.2,1.05-21.06,2.97-6.07,1.8-11.75,4.74-16.74,8.64-8.22,6.77-15.05,15.07-20.12,24.43"/>
      </g>
      <g id="pupil-2">
        <path class="st1" d="M807.45,157.68c3.38,12.42,14.85,19.98,25.51,17.01s16.6-15.39,13.23-27.81c-.4-1.45-.94-2.85-1.62-4.18-7.12.05-14.2,1.05-21.06,2.97-6.07,1.8-11.75,4.74-16.74,8.64.07,1.15.29,2.29.68,3.38"/>
      </g>
      <g id="eyelash-2">
        <path class="st1" d="M869.82,152.55c10.4,3.38,22.95-6.75,28.08-22.68M855.11,143.64c10.26,3.78,23.22-5.94,28.89-21.6M834.86,142.83c10.94-.4,19.3-14.18,18.76-30.78"/>
      </g>
      <g id="reflection-2">
        <path class="st1" d="M826.89,159.03c0,4.86-3.51,8.78-7.83,8.78s-7.83-3.92-7.83-8.78,3.51-8.64,7.83-8.64,7.83,3.92,7.83,8.64"/>
      </g>
    </g>
  </g>
</svg>