<?xml version="1.0" encoding="utf-8"?>
<!-- Generator: Adobe Illustrator 30.2.1, SVG Export Plug-In . SVG Version: 9.03 Build 0)  -->
<svg version="1.0" id="Layer_1" xmlns="http://www.w3.org/2000/svg" xmlns:xlink="http://www.w3.org/1999/xlink" x="0px" y="0px"
	 viewBox="0 0 1 1" style="enable-background:new 0 0 1 1;" xml:space="preserve">
<style type="text/css">
	.st0{fill:#1E1916;}
</style>
<path class="st0" d="M30.7,37.22l-0.22,0.03l-0.21,0.03l-0.2,0.02l-0.19,0.02l-0.19,0.01l-0.18,0.01l-0.17,0h-0.16l-0.16-0.01
	l-0.15-0.01l-0.14-0.01L28.6,37.3l-0.13-0.02l-0.12-0.02l-0.12-0.03l-0.11-0.03L28,37.16l-0.1-0.04l-0.1-0.04l-0.09-0.05l-0.09-0.05
	l-0.08-0.05l-0.08-0.06L27.4,36.8l-0.07-0.06l-0.06-0.07l-0.06-0.07l-0.05-0.07l-0.05-0.08l-0.05-0.08l-0.08-0.17l-0.07-0.18
	l-0.06-0.19l-0.05-0.2l-0.03-0.21l-0.02-0.21l-0.02-0.22l-0.01-0.23l-0.01-0.24l0-0.24l0-0.25l0-0.25l0.01-0.26l0.01-0.53l0-0.27
	l-0.28-5.99l-1.18,5.53c-0.25,1.03-0.53,1.99,0.96,2.77c1.06,0.93-0.12,2.21-1.27,2.05c-3.45,0.12-2.95-2.18-2.64-3.79l0.19-2.36
	l0.56-4.82l-0.47-1.21c-3.76-0.96-6.31-1.68-9.2-3.23l-2.05,0.28c-0.96,0.16-0.72,1.24-0.81,1.96l-0.31,1.96l-1.71,4.45l-0.12,0.37
	c-0.12,0.31-0.09,1.52,0.34,2.15l0.93,1.87c0.68,1.02,0.87,3.64-1.06,2.8h0.03L7.2,36.91c-1.03-0.43-1.87-3.26-2.24-5.32l0.06-2.92
	c-0.9-0.25-1.27,4.94-0.9,6.03l0.9,2.7c0.25,0.87-0.78,1.18-1.49,1.18c-1.68,0-2.43-1.71-2.77-3.14l-0.25-1.09
	c-0.44-1.65-0.22-4.17,0.62-5.63l0.44-0.9c0.72-1.8-0.22-3.08-0.44-4.01c-0.72-2.92-1.31-5.75,0.72-8.55l0.19-0.22
	c-0.09-0.22-0.68-0.68-1.03-1.77c-0.78-2.49-1.46-6.56-0.5-6.56l0.65-0.03c1.62,0,1.12,6.72,3.08,6.28l13.99,0.16l2.49-0.68
	c0.87-0.25,1.65-0.81,2.46-1.31l1.62-0.99c1.8,1.83,3.42,2.98,6.06,3.95c0.72,5.47-0.09,6.69-0.78,9.95l-0.25,1.34
	c-0.53,2.33-0.68,4.76-0.56,7.18l0.06,1.12c-0.06,1.15,0.62,1.24,1.52,1.52C31.45,35.51,31.85,36.66,30.7,37.22h0.03H30.7z
	 M33.69,3.71l0.07,0.05l0.07,0.05l0.15,0.11l0.15,0.12l0.15,0.13l0.16,0.13l0.16,0.14l0.16,0.15l0.16,0.15l0.16,0.15l0.16,0.16
	l0.32,0.32l0.16,0.16l0.16,0.16l0.15,0.16l0.15,0.16l0.99,1.06c0.62,0.65,1.59,0.56,2.43,0.75l0.34,0.03
	c0.9,0.5,0.62,1.49,0.31,2.24l-0.19,0.47c-0.9,2.14-3.51,2.3-5.38,1.3l-0.81-0.44H33.6L33,11.79l-1.15,0.93
	c-2.43-1.06-4.38-2.3-5.94-3.98l3.61-4.54l1.21-1.74l0.25-0.59l0.28-0.65c0,0,1.12-1.4,1.77-1.12c0.65,0.28,1.06,1.49,0.9,2.11
	l-0.19,0.75L33.69,3.71h0.03"/>
</svg>
