<?xml version="1.0" encoding="UTF-8" standalone="no"?>
<!DOCTYPE svg PUBLIC "-//W3C//DTD SVG 1.1//EN" "http://www.w3.org/Graphics/SVG/1.1/DTD/svg11.dtd">
<svg width="100%" height="100%" viewBox="0 0 161 153" version="1.1" xmlns="http://www.w3.org/2000/svg" xmlns:xlink="http://www.w3.org/1999/xlink" xml:space="preserve" xmlns:serif="http://www.serif.com/" style="fill-rule:evenodd;clip-rule:evenodd;stroke-linejoin:round;stroke-miterlimit:2;">
    <path d="M121.5,147.24L120.64,147.36L119.81,147.47L119.01,147.56L118.25,147.63L117.51,147.68L116.81,147.71L116.13,147.73L115.48,147.73L114.86,147.71L114.26,147.67L113.69,147.62L113.15,147.55L112.63,147.46L112.14,147.36L111.67,147.25L111.22,147.12L110.79,146.98L110.38,146.82L110,146.65L109.64,146.47L109.3,146.27L108.98,146.05L108.68,145.82L108.4,145.58L108.13,145.33L107.88,145.06L107.65,144.78L107.43,144.49L107.23,144.19L107.05,143.88L106.73,143.22L106.46,142.52L106.24,141.78L106.06,141L105.92,140.18L105.82,139.33L105.75,138.45L105.7,137.54L105.67,136.6L105.67,133.64L105.7,132.62L105.73,130.52L105.73,129.45L104.61,105.7L99.93,127.63C98.94,131.7 97.84,135.51 103.75,138.59C107.94,142.29 103.26,147.34 98.7,146.73C85.03,147.22 87,138.11 88.23,131.69L88.97,122.33L91.19,103.23L89.34,98.43C74.43,94.61 64.33,91.78 52.87,85.62L44.74,86.73C40.92,87.35 41.91,91.66 41.54,94.49L40.31,102.26L33.53,119.88L33.04,121.35C32.55,122.58 32.67,127.39 34.4,129.85L38.1,137.25C40.81,141.31 41.55,151.66 33.91,148.33L34.03,148.33L28.36,145.99C24.29,144.27 20.97,133.06 19.49,124.93L19.74,113.34C16.17,112.36 14.69,132.93 16.17,137.25L19.74,147.96C20.73,151.41 16.66,152.65 13.83,152.65C7.18,152.65 4.22,145.87 2.87,140.2L1.88,135.89C0.16,129.36 1.02,119.38 4.34,113.59L6.06,110.02C8.89,102.87 5.2,97.82 4.34,94.13C1.51,82.55 -0.83,71.34 7.17,60.25L7.91,59.39C7.54,58.52 5.2,56.68 3.84,52.36C0.77,42.53 -1.94,26.39 1.87,26.39L4.46,26.27C10.87,26.27 8.9,52.88 16.66,51.16L72.1,51.78L81.96,49.07C85.41,48.08 88.49,45.86 91.69,43.89L98.1,39.95C105.25,47.22 111.65,51.78 122.12,55.6C124.95,77.28 121.75,82.09 119.04,95.02L118.05,100.32C115.96,109.56 115.34,119.17 115.83,128.78L116.08,133.22C115.83,137.78 118.54,138.15 122.12,139.26C124.46,140.49 126.06,145.05 121.5,147.26L121.62,147.26L121.5,147.26L121.5,147.24Z" style="fill:rgb(210,65,63);fill-rule:nonzero;"/>
    <path d="M133.33,14.44L133.61,14.65L133.9,14.86L134.48,15.31L135.08,15.79L135.69,16.3L136.31,16.83L136.94,17.38L137.58,17.95L138.22,18.54L138.86,19.15L139.5,19.77L140.77,21.03L142.01,22.31L142.61,22.94L143.2,23.57L147.14,27.75C149.6,30.34 153.42,29.97 156.75,30.71L158.11,30.83C161.68,32.81 160.57,36.75 159.34,39.7L158.6,41.55C155.03,50.05 144.68,50.66 137.29,46.72L134.09,45L132.98,45L130.64,46.48L126.08,50.18C116.47,45.99 108.71,41.06 102.55,34.41L116.84,16.42L121.64,9.52L122.63,7.18L123.74,4.6C123.74,4.6 128.18,-0.95 130.76,0.16C133.35,1.27 134.95,6.07 134.33,8.54L133.59,11.5L133.34,14.46L133.46,14.46" style="fill:rgb(210,65,63);fill-rule:nonzero;"/>
</svg>
