<?xml version="1.0" encoding="UTF-8"?>
<svg id="Layer_1" xmlns="http://www.w3.org/2000/svg" version="1.1" viewBox="0 0 160.51 152.67">
  <!-- Generator: Adobe Illustrator 30.2.1, SVG Export Plug-In . SVG Version: 2.1.1 Build 1)  -->
  <defs>
    <style>
      .st0 {
        fill: #632c8f;
      }
    </style>
  </defs>
  <path class="st0" d="M121.5,147.24l-.86.12-.83.11-.8.09-.76.07-.74.05-.7.03-.68.02h-.65l-.62-.02-.6-.04-.57-.05-.54-.07-.52-.09-.49-.1-.47-.11-.45-.13-.43-.14-.41-.16-.38-.17-.36-.18-.34-.2-.32-.22-.3-.23-.28-.24-.27-.25-.25-.27-.23-.28-.22-.29-.2-.3-.18-.31-.32-.66-.27-.7-.22-.74-.18-.78-.14-.82-.1-.85-.07-.88-.05-.91-.03-.94v-2.96l.03-1.02.03-2.1v-1.07l-1.12-23.75-4.68,21.93c-.99,4.07-2.09,7.88,3.82,10.96,4.19,3.7-.49,8.75-5.05,8.14-13.67.49-11.7-8.62-10.47-15.04l.74-9.36,2.22-19.1-1.85-4.8c-14.91-3.82-25.01-6.65-36.47-12.81l-8.13,1.11c-3.82.62-2.83,4.93-3.2,7.76l-1.23,7.77-6.78,17.62-.49,1.47c-.49,1.23-.37,6.04,1.36,8.5l3.7,7.4c2.71,4.06,3.45,14.41-4.19,11.08h.12l-5.67-2.34c-4.07-1.72-7.39-12.93-8.87-21.06l.25-11.59c-3.57-.98-5.05,19.59-3.57,23.91l3.57,10.71c.99,3.45-3.08,4.69-5.91,4.69-6.65,0-9.61-6.78-10.96-12.45l-.99-4.31c-1.72-6.53-.86-16.51,2.46-22.3l1.72-3.57c2.83-7.15-.86-12.2-1.72-15.89-2.83-11.58-5.17-22.79,2.83-33.88l.74-.86c-.37-.87-2.71-2.71-4.07-7.03C.77,42.53-1.94,26.39,1.87,26.39l2.59-.12c6.41,0,4.44,26.61,12.2,24.89l55.44.62,9.86-2.71c3.45-.99,6.53-3.21,9.73-5.18l6.41-3.94c7.15,7.27,13.55,11.83,24.02,15.65,2.83,21.68-.37,26.49-3.08,39.42l-.99,5.3c-2.09,9.24-2.71,18.85-2.22,28.46l.25,4.44c-.25,4.56,2.46,4.93,6.04,6.04,2.34,1.23,3.94,5.79-.62,8h.12-.12v-.02Z"/>
  <path class="st0" d="M133.33,14.44l.28.21.29.21.58.45.6.48.61.51.62.53.63.55.64.57.64.59.64.61.64.62,1.27,1.26.62.64.62.64.6.63.59.63,3.94,4.18c2.46,2.59,6.28,2.22,9.61,2.96l1.36.12c3.57,1.98,2.46,5.92,1.23,8.87l-.74,1.85c-3.57,8.5-13.92,9.11-21.31,5.17l-3.2-1.72h-1.11l-2.34,1.48-4.56,3.7c-9.61-4.19-17.37-9.12-23.53-15.77l14.29-17.99,4.8-6.9.99-2.34,1.11-2.58s4.44-5.55,7.02-4.44c2.59,1.11,4.19,5.91,3.57,8.38l-.74,2.96-.25,2.96h.12"/>
</svg>