<?xml version="1.0"?>
<svg xmlns:rdf="http://www.w3.org/1999/02/22-rdf-syntax-ns#" xmlns="http://www.w3.org/2000/svg" xmlns:cc="http://creativecommons.org/ns#" xmlns:xlink="http://www.w3.org/1999/xlink" xmlns:dc="http://purl.org/dc/elements/1.1/" xmlns:svg="http://www.w3.org/2000/svg" id="svg3195" viewBox="0 0 1285.5 3270.8" version="1.1">
  <defs id="defs3197">
    <linearGradient id="linearGradient10854">
      <stop id="stop10856" stop-color="#6eb81e" stop-opacity=".51064" offset="0"/>
      <stop id="stop10858" stop-color="#aed61b" stop-opacity=".43972" offset=".51397"/>
      <stop id="stop10860" stop-color="#6eb81e" stop-opacity=".40426" offset="1"/>
    </linearGradient>
    <linearGradient id="linearGradient10846">
      <stop id="stop10848" stop-color="#6eb81e" stop-opacity=".78723" offset="0"/>
      <stop id="stop10850" stop-color="#96ca1c" stop-opacity=".78824" offset=".85858"/>
      <stop id="stop10852" stop-color="#aed61b" stop-opacity=".78039" offset="1"/>
    </linearGradient>
    <linearGradient id="linearGradient4108">
      <stop id="stop4110" stop-color="#6eb81e" offset="0"/>
      <stop id="stop4112" stop-color="#aed61b" offset=".51397"/>
      <stop id="stop4114" stop-color="#6eb81e" offset="1"/>
    </linearGradient>
    <linearGradient id="linearGradient4082">
      <stop id="stop4084" stop-color="#6eb81e" offset="0"/>
      <stop id="stop4098" stop-color="#97cb1c" offset=".85858"/>
      <stop id="stop4086" stop-color="#aed61b" offset="1"/>
    </linearGradient>
    <linearGradient id="linearGradient4137" x1="314.29" xlink:href="#linearGradient4082" gradientUnits="userSpaceOnUse" x2="226.5" y1="410.74" y2="421.34"/>
    <linearGradient id="linearGradient4139" x1="268.46" xlink:href="#linearGradient4108" gradientUnits="userSpaceOnUse" x2="268.46" y1="246.39" y2="227.91"/>
    <linearGradient id="linearGradient4141" x1="275.45" xlink:href="#linearGradient4108" gradientUnits="userSpaceOnUse" x2="275.45" y1="641.48" y2="631.75"/>
    <linearGradient id="linearGradient10328" x1="-1716.1" xlink:href="#linearGradient4108" gradientUnits="userSpaceOnUse" y1="-698.11" gradientTransform="translate(-630.34 32.325)" x2="-1666.6" y2="-636.68"/>
    <linearGradient id="linearGradient10330" x1="-1524.1" xlink:href="#linearGradient4082" gradientUnits="userSpaceOnUse" y1="-678.1" gradientTransform="translate(-630.34 32.325)" x2="-1817.8" y2="-98.103"/>
    <linearGradient id="linearGradient10332" x1="-1422" gradientUnits="userSpaceOnUse" y1="-670.34" gradientTransform="translate(-630.34 32.325)" x2="-1286.9" y2="30.968">
      <stop id="stop9777" stop-color="#568f17" offset="0"/>
      <stop id="stop9779" stop-color="#82af18" offset=".60827"/>
      <stop id="stop9781" stop-color="#8aaa15" offset="1"/>
    </linearGradient>
    <linearGradient id="linearGradient10334" x1="-1329.1" xlink:href="#linearGradient4108" gradientUnits="userSpaceOnUse" y1="-489.49" gradientTransform="translate(-630.34 32.325)" x2="-1240.3" y2="-540.92"/>
    <linearGradient id="linearGradient10336" x1="-1075.3" xlink:href="#linearGradient4082" gradientUnits="userSpaceOnUse" y1="-775.41" gradientTransform="translate(-630.34 32.325)" x2="-1072.1" y2="-803.98"/>
    <linearGradient id="linearGradient11078" x1="-1716.1" xlink:href="#linearGradient10846" gradientUnits="userSpaceOnUse" y1="-698.11" gradientTransform="matrix(.33712 0 0 .33712 -1482.3 -781.5)" x2="-1666.6" y2="-636.68"/>
    <linearGradient id="linearGradient11080" x1="-1524.1" xlink:href="#linearGradient10854" gradientUnits="userSpaceOnUse" y1="-678.1" gradientTransform="matrix(.33712 0 0 .33712 -1482.3 -781.5)" x2="-1817.8" y2="-98.103"/>
    <linearGradient id="linearGradient11082" x1="-1422" xlink:href="#linearGradient10854" gradientUnits="userSpaceOnUse" y1="-670.34" gradientTransform="matrix(.33712 0 0 .33712 -1482.3 -781.5)" x2="-1286.9" y2="30.968"/>
    <linearGradient id="linearGradient11084" x1="-1329.1" xlink:href="#linearGradient10846" gradientUnits="userSpaceOnUse" y1="-489.49" gradientTransform="matrix(.33712 0 0 .33712 -1482.3 -781.5)" x2="-1240.3" y2="-540.92"/>
    <linearGradient id="linearGradient11086" x1="-1075.3" xlink:href="#linearGradient10846" gradientUnits="userSpaceOnUse" y1="-775.41" gradientTransform="matrix(.33712 0 0 .33712 -1482.3 -781.5)" x2="-1072.1" y2="-803.98"/>
    <linearGradient id="linearGradient11226" x1="314.29" xlink:href="#linearGradient10846" gradientUnits="userSpaceOnUse" y1="410.74" gradientTransform="matrix(.82020 0 0 1.1672 -1772 -2400.7)" x2="226.5" y2="421.34"/>
    <linearGradient id="linearGradient11228" x1="268.46" xlink:href="#linearGradient10854" gradientUnits="userSpaceOnUse" y1="246.39" gradientTransform="matrix(.82020 0 0 1.1672 -1772 -2400.7)" x2="268.46" y2="227.91"/>
    <linearGradient id="linearGradient11230" x1="275.45" xlink:href="#linearGradient4108" gradientUnits="userSpaceOnUse" y1="641.48" gradientTransform="matrix(.82020 0 0 1.1672 -1772 -2400.7)" x2="275.45" y2="631.75"/>
    <linearGradient id="linearGradient11232" x1="314.29" xlink:href="#linearGradient10846" gradientUnits="userSpaceOnUse" y1="410.74" gradientTransform="matrix(.87715 0 0 1.1647 -1788.6 -1935.3)" x2="226.5" y2="421.34"/>
    <linearGradient id="linearGradient11234" x1="268.46" xlink:href="#linearGradient10854" gradientUnits="userSpaceOnUse" y1="246.39" gradientTransform="matrix(.87715 0 0 1.1647 -1788.6 -1935.3)" x2="268.46" y2="227.91"/>
    <linearGradient id="linearGradient11236" x1="275.45" xlink:href="#linearGradient4108" gradientUnits="userSpaceOnUse" y1="641.48" gradientTransform="matrix(.87715 0 0 1.1647 -1788.6 -1935.3)" x2="275.45" y2="631.75"/>
    <linearGradient id="linearGradient11238" x1="314.29" xlink:href="#linearGradient10846" gradientUnits="userSpaceOnUse" y1="410.74" gradientTransform="matrix(.92524 0 0 1.1635 -1802.5 -1471.6)" x2="226.5" y2="421.34"/>
    <linearGradient id="linearGradient11240" x1="268.46" xlink:href="#linearGradient10854" gradientUnits="userSpaceOnUse" y1="246.39" gradientTransform="matrix(.92524 0 0 1.1635 -1802.5 -1471.6)" x2="268.46" y2="227.91"/>
    <linearGradient id="linearGradient11242" x1="275.45" xlink:href="#linearGradient4108" gradientUnits="userSpaceOnUse" y1="641.48" gradientTransform="matrix(.92524 0 0 1.1635 -1802.5 -1471.6)" x2="275.45" y2="631.75"/>
    <linearGradient id="linearGradient11244" x1="314.29" xlink:href="#linearGradient10846" gradientUnits="userSpaceOnUse" y1="410.74" gradientTransform="matrix(.97333 0 0 1.1656 -1816.4 -1009)" x2="226.5" y2="421.34"/>
    <linearGradient id="linearGradient11246" x1="268.46" xlink:href="#linearGradient10854" gradientUnits="userSpaceOnUse" y1="246.39" gradientTransform="matrix(.97333 0 0 1.1656 -1816.4 -1009)" x2="268.46" y2="227.91"/>
    <linearGradient id="linearGradient11248" x1="275.45" xlink:href="#linearGradient4108" gradientUnits="userSpaceOnUse" y1="641.48" gradientTransform="matrix(.97333 0 0 1.1656 -1816.4 -1009)" x2="275.45" y2="631.75"/>
    <linearGradient id="linearGradient11250" x1="314.29" xlink:href="#linearGradient10846" gradientUnits="userSpaceOnUse" y1="410.74" gradientTransform="matrix(1.0062 0 0 1.1635 -1826.2 -544.83)" x2="226.5" y2="421.34"/>
    <linearGradient id="linearGradient11252" x1="268.46" xlink:href="#linearGradient10854" gradientUnits="userSpaceOnUse" y1="246.39" gradientTransform="matrix(1.0062 0 0 1.1635 -1826.2 -544.83)" x2="268.46" y2="227.91"/>
    <linearGradient id="linearGradient11254" x1="275.45" xlink:href="#linearGradient4108" gradientUnits="userSpaceOnUse" y1="641.48" gradientTransform="matrix(1.0062 0 0 1.1635 -1826.2 -544.83)" x2="275.45" y2="631.75"/>
    <linearGradient id="linearGradient11256" x1="314.29" xlink:href="#linearGradient10846" gradientUnits="userSpaceOnUse" y1="410.74" gradientTransform="matrix(1.0543 0 0 1.1613 -1839.8 -80.362)" x2="226.5" y2="421.34"/>
    <linearGradient id="linearGradient11258" x1="268.46" xlink:href="#linearGradient10854" gradientUnits="userSpaceOnUse" y1="246.39" gradientTransform="matrix(1.0543 0 0 1.1613 -1839.8 -80.362)" x2="268.46" y2="227.91"/>
    <linearGradient id="linearGradient11260" x1="275.45" xlink:href="#linearGradient10854" gradientUnits="userSpaceOnUse" y1="641.48" gradientTransform="matrix(1.0543 0 0 1.1613 -1839.8 -80.362)" x2="275.45" y2="631.75"/>
    <linearGradient id="linearGradient11879" x1="275.45" xlink:href="#linearGradient10854" gradientUnits="userSpaceOnUse" y1="641.48" gradientTransform="matrix(1.0973 0 0 1.3493 -912.59 -249.54)" x2="275.45" y2="631.75"/>
    <linearGradient id="linearGradient11882" x1="268.46" xlink:href="#linearGradient10854" gradientUnits="userSpaceOnUse" y1="246.39" gradientTransform="matrix(1.0973 0 0 1.3493 -912.59 -249.54)" x2="268.46" y2="227.91"/>
    <linearGradient id="linearGradient11885" x1="314.29" xlink:href="#linearGradient10846" gradientUnits="userSpaceOnUse" y1="410.74" gradientTransform="matrix(1.0973 0 0 1.3493 -912.59 -249.54)" x2="226.5" y2="421.34"/>
    <linearGradient id="linearGradient11888" x1="275.45" xlink:href="#linearGradient4108" gradientUnits="userSpaceOnUse" y1="641.48" gradientTransform="matrix(1.0472 0 0 1.3517 -898.39 -789.16)" x2="275.45" y2="631.75"/>
    <linearGradient id="linearGradient11891" x1="268.46" xlink:href="#linearGradient10854" gradientUnits="userSpaceOnUse" y1="246.39" gradientTransform="matrix(1.0472 0 0 1.3517 -898.39 -789.16)" x2="268.46" y2="227.91"/>
    <linearGradient id="linearGradient11894" x1="314.29" xlink:href="#linearGradient10846" gradientUnits="userSpaceOnUse" y1="410.74" gradientTransform="matrix(1.0472 0 0 1.3517 -898.39 -789.16)" x2="226.5" y2="421.34"/>
    <linearGradient id="linearGradient11897" x1="275.45" xlink:href="#linearGradient4108" gradientUnits="userSpaceOnUse" y1="641.48" gradientTransform="matrix(1.013 0 0 1.3542 -888.18 -1328.4)" x2="275.45" y2="631.75"/>
    <linearGradient id="linearGradient11900" x1="268.46" xlink:href="#linearGradient10854" gradientUnits="userSpaceOnUse" y1="246.39" gradientTransform="matrix(1.013 0 0 1.3542 -888.18 -1328.4)" x2="268.46" y2="227.91"/>
    <linearGradient id="linearGradient11903" x1="314.29" xlink:href="#linearGradient10846" gradientUnits="userSpaceOnUse" y1="410.74" gradientTransform="matrix(1.013 0 0 1.3542 -888.18 -1328.4)" x2="226.5" y2="421.34"/>
    <linearGradient id="linearGradient11906" x1="275.45" xlink:href="#linearGradient4108" gradientUnits="userSpaceOnUse" y1="641.48" gradientTransform="matrix(.96292 0 0 1.3517 -873.7 -1865.9)" x2="275.45" y2="631.75"/>
    <linearGradient id="linearGradient11909" x1="268.46" xlink:href="#linearGradient10854" gradientUnits="userSpaceOnUse" y1="246.39" gradientTransform="matrix(.96292 0 0 1.3517 -873.7 -1865.9)" x2="268.46" y2="227.91"/>
    <linearGradient id="linearGradient11912" x1="314.29" xlink:href="#linearGradient10846" gradientUnits="userSpaceOnUse" y1="410.74" gradientTransform="matrix(.96292 0 0 1.3517 -873.7 -1865.9)" x2="226.5" y2="421.34"/>
    <linearGradient id="linearGradient11915" x1="275.45" xlink:href="#linearGradient4108" gradientUnits="userSpaceOnUse" y1="641.48" gradientTransform="matrix(.91287 0 0 1.3532 -859.22 -2404.6)" x2="275.45" y2="631.75"/>
    <linearGradient id="linearGradient11918" x1="268.46" xlink:href="#linearGradient10854" gradientUnits="userSpaceOnUse" y1="246.39" gradientTransform="matrix(.91287 0 0 1.3532 -859.22 -2404.6)" x2="268.46" y2="227.91"/>
    <linearGradient id="linearGradient11921" x1="314.29" xlink:href="#linearGradient10846" gradientUnits="userSpaceOnUse" y1="410.74" gradientTransform="matrix(.91287 0 0 1.3532 -859.22 -2404.6)" x2="226.5" y2="421.34"/>
    <linearGradient id="linearGradient11924" x1="275.45" xlink:href="#linearGradient4108" gradientUnits="userSpaceOnUse" y1="641.48" gradientTransform="matrix(.85360 0 0 1.3561 -841.96 -2945.3)" x2="275.45" y2="631.75"/>
    <linearGradient id="linearGradient11927" x1="268.46" xlink:href="#linearGradient10854" gradientUnits="userSpaceOnUse" y1="246.39" gradientTransform="matrix(.85360 0 0 1.3561 -841.96 -2945.3)" x2="268.46" y2="227.91"/>
    <linearGradient id="linearGradient11930" x1="314.29" xlink:href="#linearGradient10846" gradientUnits="userSpaceOnUse" y1="410.74" gradientTransform="matrix(.85360 0 0 1.3561 -841.96 -2945.3)" x2="226.5" y2="421.34"/>
  </defs>
  <g id="layer1" transform="translate(1018.2 2632.4)">
    <g id="g11302" transform="matrix(.88218 .15945 -.079216 .68127 1215.3 386.94)">
      <g id="g11304" transform="translate(432.3 -1069.1)">
        <path id="path11306" fill="url(#linearGradient11078)" d="m-1993.8-1049.6c-19.79 6.349-38.191 8.9271-64.022 31.67-23.438 26.401-49.798 51.967-67.427 80.027l93.308-72.876c13.352-13.579 25.653-26.107 38.141-38.822z"/>
        <path id="path11308" fill="url(#linearGradient11080)" d="m-1989.4-1022.7c-64.902 65.732-76.72 152.09-87.519 192.75l50.741-109.31c14.546-25.295 30.886-48.617 36.778-83.433z"/>
        <path id="path11310" fill="url(#linearGradient11082)" d="m-1969.6-1029.9 44.982 106.14 6.6614 7.9898c7.182 61.955 0.6565 89.496 2.1617 149.83l-52.784-179.12c-11.326-35.134-7.6277-59.488-1.0216-84.832z"/>
        <path id="path11312" fill="url(#linearGradient11084)" d="m-1979.5-1053.3 54.487 129.75c103.52 117.24 57.862 64.247 86.497 96.033l-40.865-105.91c-30.174-48.367-117.97-159.84-100.12-119.87z"/>
        <path id="path11314" fill="url(#linearGradient11086)" d="m-1949.2-1047.9c95.517-17.912 163.16-3.6191 217.95 25.54-69.538-13.071-123.38-20.878-217.95-25.54z"/>
      </g>
      <path id="path11316" fill="url(#linearGradient11226)" d="m-1589.5-2114.7-2.0358 447.34c0.064 7.7534-4.9719 7.686-0.042 15.917l80.965 0.4168c6.0051-6.4954 0.208-6.4317 0.9689-19.762l-0.7323-443.91c-0.075-5.1521 7.1418-12.11-0.8813-16.629-26.207 1.8936-52.414 1.4338-78.621 0.2023-5.4384 7.3325-0.1146 7.2178 0.378 16.427z"/>
      <path id="path11318" fill="url(#linearGradient11228)" d="m-1589.5-2114.7c26.497 1.7405 52.976 1.1373 79.197-1.0421-0.148-3.589 7.0686-11.068-0.9545-15.587-26.207 1.8936-52.414 1.4338-78.621 0.2023-5.4384 7.2283 0.1051 8.7811 0.1583 13.509z"/>
      <path id="path11320" fill="url(#linearGradient11230)" d="m-1591.7-1664.4c-0.9197 4.4373-4.0917 5.5489 0.1137 12.969l80.965 0.4168c5.2284-5.2426 1.0883-8.6425 1.0207-13.867z"/>
      <path id="path11322" fill="url(#linearGradient11232)" d="m-1593.4-1649.9-2.1772 446.38c0.069 7.7369-5.3172 7.6696-0.044 15.883l86.586 0.4159c6.4221-6.4815 0.2225-6.418 1.0362-19.72l-0.7831-442.96c-0.08-5.1411 7.6376-12.084-0.9426-16.594-28.026 1.8895-53.657 1.559-81.683 0.3301-5.8161 7.3168-2.5189 7.0741-1.9921 16.264z"/>
      <path id="path11324" fill="url(#linearGradient11234)" d="m-1593.4-1649.9c28.337 1.7367 56.654 1.1348 84.696-1.04-0.1583-3.5813 7.5593-11.044-1.0209-15.554-28.026 1.8895-53.757 1.5407-81.783 0.3118-5.8161 7.2128-2.1842 8.6523-2.1272 13.37z"/>
      <path id="path11326" fill="url(#linearGradient11236)" d="m-1595.7-1200.6c-0.9836 4.4278-4.3758 5.5371 0.1216 12.941l86.586 0.4159c5.5915-5.2314 1.1639-8.624 1.0916-13.837z"/>
      <path id="path11328" fill="url(#linearGradient11238)" d="m-1596.6-1186.6-2.2965 445.91c0.072 7.7285-3.726 6.4689 1.8357 14.673l89.451 1.608c6.7742-6.4746 0.2347-6.4111 1.093-19.699l-0.8261-442.49c-0.084-5.1357 8.0564-12.071-0.9942-16.576-29.563 1.8875-57.662 1.6492-87.225 0.4216-6.1349 7.3089-1.5937 6.9747-1.038 16.154z"/>
      <path id="path11330" fill="url(#linearGradient11240)" d="m-1596.6-1186.6c29.89 1.7349 59.76 1.1336 89.34-1.0389-0.167-3.5774 7.9738-11.032-1.0768-15.537-29.563 1.8875-57.595 1.7225-87.158 0.4949-6.1349 7.2051-1.4125 8.4596-1.3524 13.172z"/>
      <path id="path11332" fill="url(#linearGradient11242)" d="m-1599.1-737.72c-1.0375 4.423-4.6156 5.5311 0.1283 12.927l91.334 0.41553c5.898-5.2259 1.2277-8.6148 1.1514-13.822z"/>
      <path id="path11334" fill="url(#linearGradient11244)" d="m-1599.8-723.43-2.4158 446.73c0.076 7.7427-1.4742 7.6754-0.049 15.895l96.081 0.41629c7.1263-6.4865 0.2468-6.4229 1.1497-19.735l-0.869-443.3c-0.089-5.1451 8.4751-12.094-1.0458-16.606-31.1 1.891-60.646 1.6392-91.746 0.4094-6.4538 7.3224-2.122 8.027-1.1047 16.197z"/>
      <path id="path11336" fill="url(#linearGradient11246)" d="m-1599.8-723.43c31.444 1.7381 62.866 1.1357 93.983-1.0408-0.1757-3.584 8.3882-11.053-1.1327-15.566-31.1 1.891-60.646 1.6392-91.746 0.4094-6.953 6.7784-1.2289 11.091-0.9993 16.032z"/>
      <path id="path11338" fill="url(#linearGradient11248)" d="m-1602.4-273.76c-1.0914 4.4311-0.3305 4.241 0.1349 12.951l96.081 0.41629c6.2045-5.2355 1.2915-8.6306 1.2112-13.848z"/>
      <path id="path11340" fill="url(#linearGradient11250)" d="m-1602.3-259.78-2.4975 445.91c0.079 7.7285-0.6944 6.9171-0.051 15.866l99.329 0.41553c7.3672-6.4746 0.2552-6.4111 1.1887-19.699l-0.8984-442.49c-0.092-5.1357 8.7616-12.071-1.0813-16.576-32.151 1.8876-63.57 1.7958-95.721 0.56824-6.672 7.309-0.8728 6.8281-0.2685 16.008z"/>
      <path id="path11342" fill="url(#linearGradient11252)" d="m-1602.3-259.78c32.507 1.7349 64.991 1.1336 97.16-1.0389-0.1816-3.5774 8.6718-11.033-1.1711-15.537-32.151 1.8876-63.503 1.6492-95.654 0.42161-6.672 7.2051-0.6699 8.533-0.6046 13.246z"/>
      <path id="path11344" fill="url(#linearGradient11254)" d="m-1605 189.06c-1.1284 4.423-2.1908 5.0517 0.1394 12.927l99.329 0.41553c6.4143-5.2259 1.3352-8.6148 1.2522-13.822z"/>
      <path id="path11346" fill="url(#linearGradient11256)" d="m-1605.3 204.17-2.6169 445.09c0.082 7.7143-6.3912 7.6472-0.054 15.836l104.08 0.41476c7.7193-6.4627 0.2674-6.3993 1.2454-19.663l-0.9413-441.67c-0.096-5.1262 9.1804-12.049-1.1329-16.545-33.688 1.8841-66.31 1.6466-99.998 0.42123-6.9445 7.2919 0.9924 6.788-0.5792 16.124z"/>
      <path id="path11348" fill="url(#linearGradient11258)" d="m-1605.3 204.17c34.06 1.7317 68.098 1.1315 101.8-1.037-0.1903-3.5708 9.0863-11.012-1.227-15.509-33.688 1.8841-66.443 1.7932-100.13 0.56788-6.9909 7.1918-0.7969 8.3702-0.7285 13.074z"/>
      <path id="path11350" fill="url(#linearGradient11260)" d="m-1608.1 652.19c-1.1823 4.4149-5.2596 5.5209 0.1461 12.904l104.08 0.41476c6.7208-5.2163 1.399-8.599 1.312-13.797z"/>
      <g id="g11352" transform="matrix(.54445 .83879 -.83879 .54445 -1353.7 1036.8)">
        <path id="path11354" fill="url(#linearGradient11078)" d="m-1993.8-1049.6c-19.79 6.349-38.191 8.9271-64.022 31.67-23.438 26.401-49.798 51.967-67.427 80.027l93.308-72.876c13.352-13.579 25.653-26.107 38.141-38.822z"/>
        <path id="path11356" fill="url(#linearGradient11080)" d="m-1989.4-1022.7c-64.902 65.732-76.72 152.09-87.519 192.75l50.741-109.31c14.546-25.295 30.886-48.617 36.778-83.433z"/>
        <path id="path11358" fill="url(#linearGradient11082)" d="m-1969.6-1029.9 44.982 106.14 6.6614 7.9898c7.182 61.955 0.6565 89.496 2.1617 149.83l-52.784-179.12c-11.326-35.134-7.6277-59.488-1.0216-84.832z"/>
        <path id="path11360" fill="url(#linearGradient11084)" d="m-1979.5-1053.3 54.487 129.75c103.52 117.24 57.862 64.247 86.497 96.033l-40.865-105.91c-30.174-48.367-117.97-159.84-100.12-119.87z"/>
        <path id="path11362" fill="url(#linearGradient11086)" d="m-1949.2-1047.9c95.517-17.912 163.16-3.6191 217.95 25.54-69.538-13.071-123.38-20.878-217.95-25.54z"/>
      </g>
      <g id="g11364" transform="matrix(.55949 -.064811 .071860 .50461 -326.61 -1248.6)">
        <path id="path11366" fill="url(#linearGradient11078)" d="m-1993.8-1049.6c-19.79 6.349-38.191 8.9271-64.022 31.67-23.438 26.401-49.798 51.967-67.427 80.027l93.308-72.876c13.352-13.579 25.653-26.107 38.141-38.822z"/>
        <path id="path11368" fill="url(#linearGradient11080)" d="m-1989.4-1022.7c-64.902 65.732-76.72 152.09-87.519 192.75l50.741-109.31c14.546-25.295 30.886-48.617 36.778-83.433z"/>
        <path id="path11370" fill="url(#linearGradient11082)" d="m-1969.6-1029.9 44.982 106.14 6.6614 7.9898c7.182 61.955 0.6565 89.496 2.1617 149.83l-52.784-179.12c-11.326-35.134-7.6277-59.488-1.0216-84.832z"/>
        <path id="path11372" fill="url(#linearGradient11084)" d="m-1979.5-1053.3 54.487 129.75c103.52 117.24 57.862 64.247 86.497 96.033l-40.865-105.91c-30.174-48.367-117.97-159.84-100.12-119.87z"/>
        <path id="path11374" fill="url(#linearGradient11086)" d="m-1949.2-1047.9c95.517-17.912 163.16-3.6191 217.95 25.54-69.538-13.071-123.38-20.878-217.95-25.54z"/>
      </g>
      <g id="g11376" transform="matrix(-.67879 -.13119 -.087184 1.0214 -3024.5 94.296)">
        <path id="path11378" fill="url(#linearGradient11078)" d="m-1993.8-1049.6c-19.79 6.349-38.191 8.9271-64.022 31.67-23.438 26.401-49.798 51.967-67.427 80.027l93.308-72.876c13.352-13.579 25.653-26.107 38.141-38.822z"/>
        <path id="path11380" fill="url(#linearGradient11080)" d="m-1989.4-1022.7c-64.902 65.732-76.72 152.09-87.519 192.75l50.741-109.31c14.546-25.295 30.886-48.617 36.778-83.433z"/>
        <path id="path11382" fill="url(#linearGradient11082)" d="m-1969.6-1029.9 44.982 106.14 6.6614 7.9898c7.182 61.955 0.6565 89.496 2.1617 149.83l-52.784-179.12c-11.326-35.134-7.6277-59.488-1.0216-84.832z"/>
        <path id="path11384" fill="url(#linearGradient11084)" d="m-1979.5-1053.3 54.487 129.75c103.52 117.24 57.862 64.247 86.497 96.033l-40.865-105.91c-30.174-48.367-117.97-159.84-100.12-119.87z"/>
        <path id="path11386" fill="url(#linearGradient11086)" d="m-1949.2-1047.9c95.517-17.912 163.16-3.6191 217.95 25.54-69.538-13.071-123.38-20.878-217.95-25.54z"/>
      </g>
      <g id="g11388" transform="matrix(-.79809 1.2773 1.2296 .82906 -1830.1 3144.2)">
        <path id="path11390" fill="url(#linearGradient11078)" d="m-1993.8-1049.6c-19.79 6.349-38.191 8.9271-64.022 31.67-23.438 26.401-49.798 51.967-67.427 80.027l93.308-72.876c13.352-13.579 25.653-26.107 38.141-38.822z"/>
        <path id="path11392" fill="url(#linearGradient11080)" d="m-1989.4-1022.7c-64.902 65.732-76.72 152.09-87.519 192.75l50.741-109.31c14.546-25.295 30.886-48.617 36.778-83.433z"/>
        <path id="path11394" fill="url(#linearGradient11082)" d="m-1969.6-1029.9 44.982 106.14 6.6614 7.9898c7.182 61.955 0.6565 89.496 2.1617 149.83l-52.784-179.12c-11.326-35.134-7.6277-59.488-1.0216-84.832z"/>
        <path id="path11396" fill="url(#linearGradient11084)" d="m-1979.5-1053.3 54.487 129.75c103.52 117.24 57.862 64.247 86.497 96.033l-40.865-105.91c-30.174-48.367-117.97-159.84-100.12-119.87z"/>
        <path id="path11398" fill="url(#linearGradient11086)" d="m-1949.2-1047.9c95.517-17.912 163.16-3.6191 217.95 25.54-69.538-13.071-123.38-20.878-217.95-25.54z"/>
      </g>
    </g>
    <g id="g11584" transform="matrix(.89140 0 0 .55214 621.99 144.51)">
      <g id="g11586" transform="translate(432.3 -1069.1)">
        <path id="path11588" fill="url(#linearGradient11078)" d="m-1993.8-1049.6c-19.79 6.349-38.191 8.9271-64.022 31.67-23.438 26.401-49.798 51.967-67.427 80.027l93.308-72.876c13.352-13.579 25.653-26.107 38.141-38.822z"/>
        <path id="path11590" fill="url(#linearGradient11080)" d="m-1989.4-1022.7c-64.902 65.732-76.72 152.09-87.519 192.75l50.741-109.31c14.546-25.295 30.886-48.617 36.778-83.433z"/>
        <path id="path11592" fill="url(#linearGradient11082)" d="m-1969.6-1029.9 44.982 106.14 6.6614 7.9898c7.182 61.955 0.6565 89.496 2.1617 149.83l-52.784-179.12c-11.326-35.134-7.6277-59.488-1.0216-84.832z"/>
        <path id="path11594" fill="url(#linearGradient11084)" d="m-1979.5-1053.3 54.487 129.75c103.52 117.24 57.862 64.247 86.497 96.033l-40.865-105.91c-30.174-48.367-117.97-159.84-100.12-119.87z"/>
        <path id="path11596" fill="url(#linearGradient11086)" d="m-1949.2-1047.9c95.517-17.912 163.16-3.6191 217.95 25.54-69.538-13.071-123.38-20.878-217.95-25.54z"/>
      </g>
      <path id="path11598" fill="url(#linearGradient11226)" d="m-1589.5-2114.7-2.0358 447.34c0.064 7.7534-4.9719 7.686-0.042 15.917l80.965 0.4168c6.0051-6.4954 0.208-6.4317 0.9689-19.762l-0.7323-443.91c-0.075-5.1521 7.1418-12.11-0.8813-16.629-26.207 1.8936-52.414 1.4338-78.621 0.2023-5.4384 7.3325-0.1146 7.2178 0.378 16.427z"/>
      <path id="path11600" fill="url(#linearGradient11228)" d="m-1589.5-2114.7c26.497 1.7405 52.976 1.1373 79.197-1.0421-0.148-3.589 7.0686-11.068-0.9545-15.587-26.207 1.8936-52.414 1.4338-78.621 0.2023-5.4384 7.2283 0.1051 8.7811 0.1583 13.509z"/>
      <path id="path11602" fill="url(#linearGradient11230)" d="m-1591.7-1664.4c-0.9197 4.4373-4.0917 5.5489 0.1137 12.969l80.965 0.4168c5.2284-5.2426 1.0883-8.6425 1.0207-13.867z"/>
      <path id="path11604" fill="url(#linearGradient11232)" d="m-1593.4-1649.9-2.1772 446.38c0.069 7.7369-5.3172 7.6696-0.044 15.883l86.586 0.4159c6.4221-6.4815 0.2225-6.418 1.0362-19.72l-0.7831-442.96c-0.08-5.1411 7.6376-12.084-0.9426-16.594-28.026 1.8895-53.657 1.559-81.683 0.3301-5.8161 7.3168-2.5189 7.0741-1.9921 16.264z"/>
      <path id="path11606" fill="url(#linearGradient11234)" d="m-1593.4-1649.9c28.337 1.7367 56.654 1.1348 84.696-1.04-0.1583-3.5813 7.5593-11.044-1.0209-15.554-28.026 1.8895-53.757 1.5407-81.783 0.3118-5.8161 7.2128-2.1842 8.6523-2.1272 13.37z"/>
      <path id="path11608" fill="url(#linearGradient11236)" d="m-1595.7-1200.6c-0.9836 4.4278-4.3758 5.5371 0.1216 12.941l86.586 0.4159c5.5915-5.2314 1.1639-8.624 1.0916-13.837z"/>
      <path id="path11610" fill="url(#linearGradient11238)" d="m-1596.6-1186.6-2.2965 445.91c0.072 7.7285-3.726 6.4689 1.8357 14.673l89.451 1.608c6.7742-6.4746 0.2347-6.4111 1.093-19.699l-0.8261-442.49c-0.084-5.1357 8.0564-12.071-0.9942-16.576-29.563 1.8875-57.662 1.6492-87.225 0.4216-6.1349 7.3089-1.5937 6.9747-1.038 16.154z"/>
      <path id="path11612" fill="url(#linearGradient11240)" d="m-1596.6-1186.6c29.89 1.7349 59.76 1.1336 89.34-1.0389-0.167-3.5774 7.9738-11.032-1.0768-15.537-29.563 1.8875-57.595 1.7225-87.158 0.4949-6.1349 7.2051-1.4125 8.4596-1.3524 13.172z"/>
      <path id="path11614" fill="url(#linearGradient11242)" d="m-1599.1-737.72c-1.0375 4.423-4.6156 5.5311 0.1283 12.927l91.334 0.41553c5.898-5.2259 1.2277-8.6148 1.1514-13.822z"/>
      <path id="path11616" fill="url(#linearGradient11244)" d="m-1599.8-723.43-2.4158 446.73c0.076 7.7427-1.4742 7.6754-0.049 15.895l96.081 0.41629c7.1263-6.4865 0.2468-6.4229 1.1497-19.735l-0.869-443.3c-0.089-5.1451 8.4751-12.094-1.0458-16.606-31.1 1.891-60.646 1.6392-91.746 0.4094-6.4538 7.3224-2.122 8.027-1.1047 16.197z"/>
      <path id="path11618" fill="url(#linearGradient11246)" d="m-1599.8-723.43c31.444 1.7381 62.866 1.1357 93.983-1.0408-0.1757-3.584 8.3882-11.053-1.1327-15.566-31.1 1.891-60.646 1.6392-91.746 0.4094-6.953 6.7784-1.2289 11.091-0.9993 16.032z"/>
      <path id="path11620" fill="url(#linearGradient11248)" d="m-1602.4-273.76c-1.0914 4.4311-0.3305 4.241 0.1349 12.951l96.081 0.41629c6.2045-5.2355 1.2915-8.6306 1.2112-13.848z"/>
      <path id="path11622" fill="url(#linearGradient11250)" d="m-1602.3-259.78-2.4975 445.91c0.079 7.7285-0.6944 6.9171-0.051 15.866l99.329 0.41553c7.3672-6.4746 0.2552-6.4111 1.1887-19.699l-0.8984-442.49c-0.092-5.1357 8.7616-12.071-1.0813-16.576-32.151 1.8876-63.57 1.7958-95.721 0.56824-6.672 7.309-0.8728 6.8281-0.2685 16.008z"/>
      <path id="path11624" fill="url(#linearGradient11252)" d="m-1602.3-259.78c32.507 1.7349 64.991 1.1336 97.16-1.0389-0.1816-3.5774 8.6718-11.033-1.1711-15.537-32.151 1.8876-63.503 1.6492-95.654 0.42161-6.672 7.2051-0.6699 8.533-0.6046 13.246z"/>
      <path id="path11626" fill="url(#linearGradient11254)" d="m-1605 189.06c-1.1284 4.423-2.1908 5.0517 0.1394 12.927l99.329 0.41553c6.4143-5.2259 1.3352-8.6148 1.2522-13.822z"/>
      <path id="path11628" fill="url(#linearGradient11256)" d="m-1605.3 204.17-2.6169 445.09c0.082 7.7143-6.3912 7.6472-0.054 15.836l104.08 0.41476c7.7193-6.4627 0.2674-6.3993 1.2454-19.663l-0.9413-441.67c-0.096-5.1262 9.1804-12.049-1.1329-16.545-33.688 1.8841-66.31 1.6466-99.998 0.42123-6.9445 7.2919 0.9924 6.788-0.5792 16.124z"/>
      <path id="path11630" fill="url(#linearGradient11258)" d="m-1605.3 204.17c34.06 1.7317 68.098 1.1315 101.8-1.037-0.1903-3.5708 9.0863-11.012-1.227-15.509-33.688 1.8841-66.443 1.7932-100.13 0.56788-6.9909 7.1918-0.7969 8.3702-0.7285 13.074z"/>
      <path id="path11632" fill="url(#linearGradient11260)" d="m-1608.1 652.19c-1.1823 4.4149-5.2596 5.5209 0.1461 12.904l104.08 0.41476c6.7208-5.2163 1.399-8.599 1.312-13.797z"/>
      <g id="g11634" transform="matrix(.54445 .83879 -.83879 .54445 -1353.7 1036.8)">
        <path id="path11636" fill="url(#linearGradient11078)" d="m-1993.8-1049.6c-19.79 6.349-38.191 8.9271-64.022 31.67-23.438 26.401-49.798 51.967-67.427 80.027l93.308-72.876c13.352-13.579 25.653-26.107 38.141-38.822z"/>
        <path id="path11638" fill="url(#linearGradient11080)" d="m-1989.4-1022.7c-64.902 65.732-76.72 152.09-87.519 192.75l50.741-109.31c14.546-25.295 30.886-48.617 36.778-83.433z"/>
        <path id="path11640" fill="url(#linearGradient11082)" d="m-1969.6-1029.9 44.982 106.14 6.6614 7.9898c7.182 61.955 0.6565 89.496 2.1617 149.83l-52.784-179.12c-11.326-35.134-7.6277-59.488-1.0216-84.832z"/>
        <path id="path11642" fill="url(#linearGradient11084)" d="m-1979.5-1053.3 54.487 129.75c103.52 117.24 57.862 64.247 86.497 96.033l-40.865-105.91c-30.174-48.367-117.97-159.84-100.12-119.87z"/>
        <path id="path11644" fill="url(#linearGradient11086)" d="m-1949.2-1047.9c95.517-17.912 163.16-3.6191 217.95 25.54-69.538-13.071-123.38-20.878-217.95-25.54z"/>
      </g>
      <g id="g11646" transform="matrix(.55949 -.064811 .071860 .50461 -326.61 -1248.6)">
        <path id="path11648" fill="url(#linearGradient11078)" d="m-1993.8-1049.6c-19.79 6.349-38.191 8.9271-64.022 31.67-23.438 26.401-49.798 51.967-67.427 80.027l93.308-72.876c13.352-13.579 25.653-26.107 38.141-38.822z"/>
        <path id="path11650" fill="url(#linearGradient11080)" d="m-1989.4-1022.7c-64.902 65.732-76.72 152.09-87.519 192.75l50.741-109.31c14.546-25.295 30.886-48.617 36.778-83.433z"/>
        <path id="path11652" fill="url(#linearGradient11082)" d="m-1969.6-1029.9 44.982 106.14 6.6614 7.9898c7.182 61.955 0.6565 89.496 2.1617 149.83l-52.784-179.12c-11.326-35.134-7.6277-59.488-1.0216-84.832z"/>
        <path id="path11654" fill="url(#linearGradient11084)" d="m-1979.5-1053.3 54.487 129.75c103.52 117.24 57.862 64.247 86.497 96.033l-40.865-105.91c-30.174-48.367-117.97-159.84-100.12-119.87z"/>
        <path id="path11656" fill="url(#linearGradient11086)" d="m-1949.2-1047.9c95.517-17.912 163.16-3.6191 217.95 25.54-69.538-13.071-123.38-20.878-217.95-25.54z"/>
      </g>
      <g id="g11658" transform="matrix(-.67879 -.13119 -.087184 1.0214 -3024.5 94.296)">
        <path id="path11660" fill="url(#linearGradient11078)" d="m-1993.8-1049.6c-19.79 6.349-38.191 8.9271-64.022 31.67-23.438 26.401-49.798 51.967-67.427 80.027l93.308-72.876c13.352-13.579 25.653-26.107 38.141-38.822z"/>
        <path id="path11662" fill="url(#linearGradient11080)" d="m-1989.4-1022.7c-64.902 65.732-76.72 152.09-87.519 192.75l50.741-109.31c14.546-25.295 30.886-48.617 36.778-83.433z"/>
        <path id="path11664" fill="url(#linearGradient11082)" d="m-1969.6-1029.9 44.982 106.14 6.6614 7.9898c7.182 61.955 0.6565 89.496 2.1617 149.83l-52.784-179.12c-11.326-35.134-7.6277-59.488-1.0216-84.832z"/>
        <path id="path11666" fill="url(#linearGradient11084)" d="m-1979.5-1053.3 54.487 129.75c103.52 117.24 57.862 64.247 86.497 96.033l-40.865-105.91c-30.174-48.367-117.97-159.84-100.12-119.87z"/>
        <path id="path11668" fill="url(#linearGradient11086)" d="m-1949.2-1047.9c95.517-17.912 163.16-3.6191 217.95 25.54-69.538-13.071-123.38-20.878-217.95-25.54z"/>
      </g>
      <g id="g11670" transform="matrix(-.79809 1.2773 1.2296 .82906 -1830.1 3144.2)">
        <path id="path11672" fill="url(#linearGradient11078)" d="m-1993.8-1049.6c-19.79 6.349-38.191 8.9271-64.022 31.67-23.438 26.401-49.798 51.967-67.427 80.027l93.308-72.876c13.352-13.579 25.653-26.107 38.141-38.822z"/>
        <path id="path11674" fill="url(#linearGradient11080)" d="m-1989.4-1022.7c-64.902 65.732-76.72 152.09-87.519 192.75l50.741-109.31c14.546-25.295 30.886-48.617 36.778-83.433z"/>
        <path id="path11676" fill="url(#linearGradient11082)" d="m-1969.6-1029.9 44.982 106.14 6.6614 7.9898c7.182 61.955 0.6565 89.496 2.1617 149.83l-52.784-179.12c-11.326-35.134-7.6277-59.488-1.0216-84.832z"/>
        <path id="path11678" fill="url(#linearGradient11084)" d="m-1979.5-1053.3 54.487 129.75c103.52 117.24 57.862 64.247 86.497 96.033l-40.865-105.91c-30.174-48.367-117.97-159.84-100.12-119.87z"/>
        <path id="path11680" fill="url(#linearGradient11086)" d="m-1949.2-1047.9c95.517-17.912 163.16-3.6191 217.95 25.54-69.538-13.071-123.38-20.878-217.95-25.54z"/>
      </g>
    </g>
    <g id="g11486" transform="matrix(.88633 -.094874 .058766 .549 1336.3 97.756)">
      <g id="g11488" transform="translate(432.3 -1069.1)">
        <path id="path11490" fill="url(#linearGradient11078)" d="m-1993.8-1049.6c-19.79 6.349-38.191 8.9271-64.022 31.67-23.438 26.401-49.798 51.967-67.427 80.027l93.308-72.876c13.352-13.579 25.653-26.107 38.141-38.822z"/>
        <path id="path11492" fill="url(#linearGradient11080)" d="m-1989.4-1022.7c-64.902 65.732-76.72 152.09-87.519 192.75l50.741-109.31c14.546-25.295 30.886-48.617 36.778-83.433z"/>
        <path id="path11494" fill="url(#linearGradient11082)" d="m-1969.6-1029.9 44.982 106.14 6.6614 7.9898c7.182 61.955 0.6565 89.496 2.1617 149.83l-52.784-179.12c-11.326-35.134-7.6277-59.488-1.0216-84.832z"/>
        <path id="path11496" fill="url(#linearGradient11084)" d="m-1979.5-1053.3 54.487 129.75c103.52 117.24 57.862 64.247 86.497 96.033l-40.865-105.91c-30.174-48.367-117.97-159.84-100.12-119.87z"/>
        <path id="path11498" fill="url(#linearGradient11086)" d="m-1949.2-1047.9c95.517-17.912 163.16-3.6191 217.95 25.54-69.538-13.071-123.38-20.878-217.95-25.54z"/>
      </g>
      <path id="path11500" fill="url(#linearGradient11226)" d="m-1589.5-2114.7-2.0358 447.34c0.064 7.7534-4.9719 7.686-0.042 15.917l80.965 0.4168c6.0051-6.4954 0.208-6.4317 0.9689-19.762l-0.7323-443.91c-0.075-5.1521 7.1418-12.11-0.8813-16.629-26.207 1.8936-52.414 1.4338-78.621 0.2023-5.4384 7.3325-0.1146 7.2178 0.378 16.427z"/>
      <path id="path11502" fill="url(#linearGradient11228)" d="m-1589.5-2114.7c26.497 1.7405 52.976 1.1373 79.197-1.0421-0.148-3.589 7.0686-11.068-0.9545-15.587-26.207 1.8936-52.414 1.4338-78.621 0.2023-5.4384 7.2283 0.1051 8.7811 0.1583 13.509z"/>
      <path id="path11504" fill="url(#linearGradient11230)" d="m-1591.7-1664.4c-0.9197 4.4373-4.0917 5.5489 0.1137 12.969l80.965 0.4168c5.2284-5.2426 1.0883-8.6425 1.0207-13.867z"/>
      <path id="path11506" fill="url(#linearGradient11232)" d="m-1593.4-1649.9-2.1772 446.38c0.069 7.7369-5.3172 7.6696-0.044 15.883l86.586 0.4159c6.4221-6.4815 0.2225-6.418 1.0362-19.72l-0.7831-442.96c-0.08-5.1411 7.6376-12.084-0.9426-16.594-28.026 1.8895-53.657 1.559-81.683 0.3301-5.8161 7.3168-2.5189 7.0741-1.9921 16.264z"/>
      <path id="path11508" fill="url(#linearGradient11234)" d="m-1593.4-1649.9c28.337 1.7367 56.654 1.1348 84.696-1.04-0.1583-3.5813 7.5593-11.044-1.0209-15.554-28.026 1.8895-53.757 1.5407-81.783 0.3118-5.8161 7.2128-2.1842 8.6523-2.1272 13.37z"/>
      <path id="path11510" fill="url(#linearGradient11236)" d="m-1595.7-1200.6c-0.9836 4.4278-4.3758 5.5371 0.1216 12.941l86.586 0.4159c5.5915-5.2314 1.1639-8.624 1.0916-13.837z"/>
      <path id="path11512" fill="url(#linearGradient11238)" d="m-1596.6-1186.6-2.2965 445.91c0.072 7.7285-3.726 6.4689 1.8357 14.673l89.451 1.608c6.7742-6.4746 0.2347-6.4111 1.093-19.699l-0.8261-442.49c-0.084-5.1357 8.0564-12.071-0.9942-16.576-29.563 1.8875-57.662 1.6492-87.225 0.4216-6.1349 7.3089-1.5937 6.9747-1.038 16.154z"/>
      <path id="path11514" fill="url(#linearGradient11240)" d="m-1596.6-1186.6c29.89 1.7349 59.76 1.1336 89.34-1.0389-0.167-3.5774 7.9738-11.032-1.0768-15.537-29.563 1.8875-57.595 1.7225-87.158 0.4949-6.1349 7.2051-1.4125 8.4596-1.3524 13.172z"/>
      <path id="path11516" fill="url(#linearGradient11242)" d="m-1599.1-737.72c-1.0375 4.423-4.6156 5.5311 0.1283 12.927l91.334 0.41553c5.898-5.2259 1.2277-8.6148 1.1514-13.822z"/>
      <path id="path11518" fill="url(#linearGradient11244)" d="m-1599.8-723.43-2.4158 446.73c0.076 7.7427-1.4742 7.6754-0.049 15.895l96.081 0.41629c7.1263-6.4865 0.2468-6.4229 1.1497-19.735l-0.869-443.3c-0.089-5.1451 8.4751-12.094-1.0458-16.606-31.1 1.891-60.646 1.6392-91.746 0.4094-6.4538 7.3224-2.122 8.027-1.1047 16.197z"/>
      <path id="path11520" fill="url(#linearGradient11246)" d="m-1599.8-723.43c31.444 1.7381 62.866 1.1357 93.983-1.0408-0.1757-3.584 8.3882-11.053-1.1327-15.566-31.1 1.891-60.646 1.6392-91.746 0.4094-6.953 6.7784-1.2289 11.091-0.9993 16.032z"/>
      <path id="path11522" fill="url(#linearGradient11248)" d="m-1602.4-273.76c-1.0914 4.4311-0.3305 4.241 0.1349 12.951l96.081 0.41629c6.2045-5.2355 1.2915-8.6306 1.2112-13.848z"/>
      <path id="path11524" fill="url(#linearGradient11250)" d="m-1602.3-259.78-2.4975 445.91c0.079 7.7285-0.6944 6.9171-0.051 15.866l99.329 0.41553c7.3672-6.4746 0.2552-6.4111 1.1887-19.699l-0.8984-442.49c-0.092-5.1357 8.7616-12.071-1.0813-16.576-32.151 1.8876-63.57 1.7958-95.721 0.56824-6.672 7.309-0.8728 6.8281-0.2685 16.008z"/>
      <path id="path11526" fill="url(#linearGradient11252)" d="m-1602.3-259.78c32.507 1.7349 64.991 1.1336 97.16-1.0389-0.1816-3.5774 8.6718-11.033-1.1711-15.537-32.151 1.8876-63.503 1.6492-95.654 0.42161-6.672 7.2051-0.6699 8.533-0.6046 13.246z"/>
      <path id="path11528" fill="url(#linearGradient11254)" d="m-1605 189.06c-1.1284 4.423-2.1908 5.0517 0.1394 12.927l99.329 0.41553c6.4143-5.2259 1.3352-8.6148 1.2522-13.822z"/>
      <path id="path11530" fill="url(#linearGradient11256)" d="m-1605.3 204.17-2.6169 445.09c0.082 7.7143-6.3912 7.6472-0.054 15.836l104.08 0.41476c7.7193-6.4627 0.2674-6.3993 1.2454-19.663l-0.9413-441.67c-0.096-5.1262 9.1804-12.049-1.1329-16.545-33.688 1.8841-66.31 1.6466-99.998 0.42123-6.9445 7.2919 0.9924 6.788-0.5792 16.124z"/>
      <path id="path11532" fill="url(#linearGradient11258)" d="m-1605.3 204.17c34.06 1.7317 68.098 1.1315 101.8-1.037-0.1903-3.5708 9.0863-11.012-1.227-15.509-33.688 1.8841-66.443 1.7932-100.13 0.56788-6.9909 7.1918-0.7969 8.3702-0.7285 13.074z"/>
      <path id="path11534" fill="url(#linearGradient11260)" d="m-1608.1 652.19c-1.1823 4.4149-5.2596 5.5209 0.1461 12.904l104.08 0.41476c6.7208-5.2163 1.399-8.599 1.312-13.797z"/>
      <g id="g11536" transform="matrix(.54445 .83879 -.83879 .54445 -1353.7 1036.8)">
        <path id="path11538" fill="url(#linearGradient11078)" d="m-1993.8-1049.6c-19.79 6.349-38.191 8.9271-64.022 31.67-23.438 26.401-49.798 51.967-67.427 80.027l93.308-72.876c13.352-13.579 25.653-26.107 38.141-38.822z"/>
        <path id="path11540" fill="url(#linearGradient11080)" d="m-1989.4-1022.7c-64.902 65.732-76.72 152.09-87.519 192.75l50.741-109.31c14.546-25.295 30.886-48.617 36.778-83.433z"/>
        <path id="path11542" fill="url(#linearGradient11082)" d="m-1969.6-1029.9 44.982 106.14 6.6614 7.9898c7.182 61.955 0.6565 89.496 2.1617 149.83l-52.784-179.12c-11.326-35.134-7.6277-59.488-1.0216-84.832z"/>
        <path id="path11544" fill="url(#linearGradient11084)" d="m-1979.5-1053.3 54.487 129.75c103.52 117.24 57.862 64.247 86.497 96.033l-40.865-105.91c-30.174-48.367-117.97-159.84-100.12-119.87z"/>
        <path id="path11546" fill="url(#linearGradient11086)" d="m-1949.2-1047.9c95.517-17.912 163.16-3.6191 217.95 25.54-69.538-13.071-123.38-20.878-217.95-25.54z"/>
      </g>
      <g id="g11548" transform="matrix(.55949 -.064811 .071860 .50461 -326.61 -1248.6)">
        <path id="path11550" fill="url(#linearGradient11078)" d="m-1993.8-1049.6c-19.79 6.349-38.191 8.9271-64.022 31.67-23.438 26.401-49.798 51.967-67.427 80.027l93.308-72.876c13.352-13.579 25.653-26.107 38.141-38.822z"/>
        <path id="path11552" fill="url(#linearGradient11080)" d="m-1989.4-1022.7c-64.902 65.732-76.72 152.09-87.519 192.75l50.741-109.31c14.546-25.295 30.886-48.617 36.778-83.433z"/>
        <path id="path11554" fill="url(#linearGradient11082)" d="m-1969.6-1029.9 44.982 106.14 6.6614 7.9898c7.182 61.955 0.6565 89.496 2.1617 149.83l-52.784-179.12c-11.326-35.134-7.6277-59.488-1.0216-84.832z"/>
        <path id="path11556" fill="url(#linearGradient11084)" d="m-1979.5-1053.3 54.487 129.75c103.52 117.24 57.862 64.247 86.497 96.033l-40.865-105.91c-30.174-48.367-117.97-159.84-100.12-119.87z"/>
        <path id="path11558" fill="url(#linearGradient11086)" d="m-1949.2-1047.9c95.517-17.912 163.16-3.6191 217.95 25.54-69.538-13.071-123.38-20.878-217.95-25.54z"/>
      </g>
      <g id="g11560" transform="matrix(-.67879 -.13119 -.087184 1.0214 -3024.5 94.296)">
        <path id="path11562" fill="url(#linearGradient11078)" d="m-1993.8-1049.6c-19.79 6.349-38.191 8.9271-64.022 31.67-23.438 26.401-49.798 51.967-67.427 80.027l93.308-72.876c13.352-13.579 25.653-26.107 38.141-38.822z"/>
        <path id="path11564" fill="url(#linearGradient11080)" d="m-1989.4-1022.7c-64.902 65.732-76.72 152.09-87.519 192.75l50.741-109.31c14.546-25.295 30.886-48.617 36.778-83.433z"/>
        <path id="path11566" fill="url(#linearGradient11082)" d="m-1969.6-1029.9 44.982 106.14 6.6614 7.9898c7.182 61.955 0.6565 89.496 2.1617 149.83l-52.784-179.12c-11.326-35.134-7.6277-59.488-1.0216-84.832z"/>
        <path id="path11568" fill="url(#linearGradient11084)" d="m-1979.5-1053.3 54.487 129.75c103.52 117.24 57.862 64.247 86.497 96.033l-40.865-105.91c-30.174-48.367-117.97-159.84-100.12-119.87z"/>
        <path id="path11570" fill="url(#linearGradient11086)" d="m-1949.2-1047.9c95.517-17.912 163.16-3.6191 217.95 25.54-69.538-13.071-123.38-20.878-217.95-25.54z"/>
      </g>
      <g id="g11572" transform="matrix(-.79809 1.2773 1.2296 .82906 -1830.1 3144.2)">
        <path id="path11574" fill="url(#linearGradient11078)" d="m-1993.8-1049.6c-19.79 6.349-38.191 8.9271-64.022 31.67-23.438 26.401-49.798 51.967-67.427 80.027l93.308-72.876c13.352-13.579 25.653-26.107 38.141-38.822z"/>
        <path id="path11576" fill="url(#linearGradient11080)" d="m-1989.4-1022.7c-64.902 65.732-76.72 152.09-87.519 192.75l50.741-109.31c14.546-25.295 30.886-48.617 36.778-83.433z"/>
        <path id="path11578" fill="url(#linearGradient11082)" d="m-1969.6-1029.9 44.982 106.14 6.6614 7.9898c7.182 61.955 0.6565 89.496 2.1617 149.83l-52.784-179.12c-11.326-35.134-7.6277-59.488-1.0216-84.832z"/>
        <path id="path11580" fill="url(#linearGradient11084)" d="m-1979.5-1053.3 54.487 129.75c103.52 117.24 57.862 64.247 86.497 96.033l-40.865-105.91c-30.174-48.367-117.97-159.84-100.12-119.87z"/>
        <path id="path11582" fill="url(#linearGradient11086)" d="m-1949.2-1047.9c95.517-17.912 163.16-3.6191 217.95 25.54-69.538-13.071-123.38-20.878-217.95-25.54z"/>
      </g>
    </g>
    <g id="g11118" transform="matrix(1.0386 .066996 -.074791 1.1594 1275.9 -32.384)">
      <g id="g11120" transform="translate(432.3 -1069.1)">
        <path id="path11122" fill="url(#linearGradient11078)" d="m-1993.8-1049.6c-19.79 6.349-38.191 8.9271-64.022 31.67-23.438 26.401-49.798 51.967-67.427 80.027l93.308-72.876c13.352-13.579 25.653-26.107 38.141-38.822z"/>
        <path id="path11124" fill="url(#linearGradient11080)" d="m-1989.4-1022.7c-64.902 65.732-76.72 152.09-87.519 192.75l50.741-109.31c14.546-25.295 30.886-48.617 36.778-83.433z"/>
        <path id="path11126" fill="url(#linearGradient11082)" d="m-1969.6-1029.9 44.982 106.14 6.6614 7.9898c7.182 61.955 0.6565 89.496 2.1617 149.83l-52.784-179.12c-11.326-35.134-7.6277-59.488-1.0216-84.832z"/>
        <path id="path11128" fill="url(#linearGradient11084)" d="m-1979.5-1053.3 54.487 129.75c103.52 117.24 57.862 64.247 86.497 96.033l-40.865-105.91c-30.174-48.367-117.97-159.84-100.12-119.87z"/>
        <path id="path11130" fill="url(#linearGradient11086)" d="m-1949.2-1047.9c95.517-17.912 163.16-3.6191 217.95 25.54-69.538-13.071-123.38-20.878-217.95-25.54z"/>
      </g>
      <path id="path11132" fill="url(#linearGradient11226)" d="m-1589.5-2114.7-2.0358 447.34c0.064 7.7534-4.9719 7.686-0.042 15.917l80.965 0.4168c6.0051-6.4954 0.208-6.4317 0.9689-19.762l-0.7323-443.91c-0.075-5.1521 7.1418-12.11-0.8813-16.629-26.207 1.8936-52.414 1.4338-78.621 0.2023-5.4384 7.3325-0.1146 7.2178 0.378 16.427z"/>
      <path id="path11134" fill="url(#linearGradient11228)" d="m-1589.5-2114.7c26.497 1.7405 52.976 1.1373 79.197-1.0421-0.148-3.589 7.0686-11.068-0.9545-15.587-26.207 1.8936-52.414 1.4338-78.621 0.2023-5.4384 7.2283 0.1051 8.7811 0.1583 13.509z"/>
      <path id="path11136" fill="url(#linearGradient11230)" d="m-1591.7-1664.4c-0.9197 4.4373-4.0917 5.5489 0.1137 12.969l80.965 0.4168c5.2284-5.2426 1.0883-8.6425 1.0207-13.867z"/>
      <path id="path11138" fill="url(#linearGradient11232)" d="m-1593.4-1649.9-2.1772 446.38c0.069 7.7369-5.3172 7.6696-0.044 15.883l86.586 0.4159c6.4221-6.4815 0.2225-6.418 1.0362-19.72l-0.7831-442.96c-0.08-5.1411 7.6376-12.084-0.9426-16.594-28.026 1.8895-53.657 1.559-81.683 0.3301-5.8161 7.3168-2.5189 7.0741-1.9921 16.264z"/>
      <path id="path11140" fill="url(#linearGradient11234)" d="m-1593.4-1649.9c28.337 1.7367 56.654 1.1348 84.696-1.04-0.1583-3.5813 7.5593-11.044-1.0209-15.554-28.026 1.8895-53.757 1.5407-81.783 0.3118-5.8161 7.2128-2.1842 8.6523-2.1272 13.37z"/>
      <path id="path11142" fill="url(#linearGradient11236)" d="m-1595.7-1200.6c-0.9836 4.4278-4.3758 5.5371 0.1216 12.941l86.586 0.4159c5.5915-5.2314 1.1639-8.624 1.0916-13.837z"/>
      <path id="path11144" fill="url(#linearGradient11238)" d="m-1596.6-1186.6-2.2965 445.91c0.072 7.7285-3.726 6.4689 1.8357 14.673l89.451 1.608c6.7742-6.4746 0.2347-6.4111 1.093-19.699l-0.8261-442.49c-0.084-5.1357 8.0564-12.071-0.9942-16.576-29.563 1.8875-57.662 1.6492-87.225 0.4216-6.1349 7.3089-1.5937 6.9747-1.038 16.154z"/>
      <path id="path11146" fill="url(#linearGradient11240)" d="m-1596.6-1186.6c29.89 1.7349 59.76 1.1336 89.34-1.0389-0.167-3.5774 7.9738-11.032-1.0768-15.537-29.563 1.8875-57.595 1.7225-87.158 0.4949-6.1349 7.2051-1.4125 8.4596-1.3524 13.172z"/>
      <path id="path11148" fill="url(#linearGradient11242)" d="m-1599.1-737.72c-1.0375 4.423-4.6156 5.5311 0.1283 12.927l91.334 0.41553c5.898-5.2259 1.2277-8.6148 1.1514-13.822z"/>
      <path id="path11150" fill="url(#linearGradient11244)" d="m-1599.8-723.43-2.4158 446.73c0.076 7.7427-1.4742 7.6754-0.049 15.895l96.081 0.41629c7.1263-6.4865 0.2468-6.4229 1.1497-19.735l-0.869-443.3c-0.089-5.1451 8.4751-12.094-1.0458-16.606-31.1 1.891-60.646 1.6392-91.746 0.4094-6.4538 7.3224-2.122 8.027-1.1047 16.197z"/>
      <path id="path11152" fill="url(#linearGradient11246)" d="m-1599.8-723.43c31.444 1.7381 62.866 1.1357 93.983-1.0408-0.1757-3.584 8.3882-11.053-1.1327-15.566-31.1 1.891-60.646 1.6392-91.746 0.4094-6.953 6.7784-1.2289 11.091-0.9993 16.032z"/>
      <path id="path11154" fill="url(#linearGradient11248)" d="m-1602.4-273.76c-1.0914 4.4311-0.3305 4.241 0.1349 12.951l96.081 0.41629c6.2045-5.2355 1.2915-8.6306 1.2112-13.848z"/>
      <path id="path11156" fill="url(#linearGradient11250)" d="m-1602.3-259.78-2.4975 445.91c0.079 7.7285-0.6944 6.9171-0.051 15.866l99.329 0.41553c7.3672-6.4746 0.2552-6.4111 1.1887-19.699l-0.8984-442.49c-0.092-5.1357 8.7616-12.071-1.0813-16.576-32.151 1.8876-63.57 1.7958-95.721 0.56824-6.672 7.309-0.8728 6.8281-0.2685 16.008z"/>
      <path id="path11158" fill="url(#linearGradient11252)" d="m-1602.3-259.78c32.507 1.7349 64.991 1.1336 97.16-1.0389-0.1816-3.5774 8.6718-11.033-1.1711-15.537-32.151 1.8876-63.503 1.6492-95.654 0.42161-6.672 7.2051-0.6699 8.533-0.6046 13.246z"/>
      <path id="path11160" fill="url(#linearGradient11254)" d="m-1605 189.06c-1.1284 4.423-2.1908 5.0517 0.1394 12.927l99.329 0.41553c6.4143-5.2259 1.3352-8.6148 1.2522-13.822z"/>
      <path id="path11162" fill="url(#linearGradient11256)" d="m-1605.3 204.17-2.6169 445.09c0.082 7.7143-6.3912 7.6472-0.054 15.836l104.08 0.41476c7.7193-6.4627 0.2674-6.3993 1.2454-19.663l-0.9413-441.67c-0.096-5.1262 9.1804-12.049-1.1329-16.545-33.688 1.8841-66.31 1.6466-99.998 0.42123-6.9445 7.2919 0.9924 6.788-0.5792 16.124z"/>
      <path id="path11164" fill="url(#linearGradient11258)" d="m-1605.3 204.17c34.06 1.7317 68.098 1.1315 101.8-1.037-0.1903-3.5708 9.0863-11.012-1.227-15.509-33.688 1.8841-66.443 1.7932-100.13 0.56788-6.9909 7.1918-0.7969 8.3702-0.7285 13.074z"/>
      <path id="path11166" fill="url(#linearGradient11260)" d="m-1608.1 652.19c-1.1823 4.4149-5.2596 5.5209 0.1461 12.904l104.08 0.41476c6.7208-5.2163 1.399-8.599 1.312-13.797z"/>
      <g id="g11168" transform="matrix(.54445 .83879 -.83879 .54445 -1353.7 1036.8)">
        <path id="path11170" fill="url(#linearGradient11078)" d="m-1993.8-1049.6c-19.79 6.349-38.191 8.9271-64.022 31.67-23.438 26.401-49.798 51.967-67.427 80.027l93.308-72.876c13.352-13.579 25.653-26.107 38.141-38.822z"/>
        <path id="path11172" fill="url(#linearGradient11080)" d="m-1989.4-1022.7c-64.902 65.732-76.72 152.09-87.519 192.75l50.741-109.31c14.546-25.295 30.886-48.617 36.778-83.433z"/>
        <path id="path11174" fill="url(#linearGradient11082)" d="m-1969.6-1029.9 44.982 106.14 6.6614 7.9898c7.182 61.955 0.6565 89.496 2.1617 149.83l-52.784-179.12c-11.326-35.134-7.6277-59.488-1.0216-84.832z"/>
        <path id="path11176" fill="url(#linearGradient11084)" d="m-1979.5-1053.3 54.487 129.75c103.52 117.24 57.862 64.247 86.497 96.033l-40.865-105.91c-30.174-48.367-117.97-159.84-100.12-119.87z"/>
        <path id="path11178" fill="url(#linearGradient11086)" d="m-1949.2-1047.9c95.517-17.912 163.16-3.6191 217.95 25.54-69.538-13.071-123.38-20.878-217.95-25.54z"/>
      </g>
      <g id="g11180" transform="matrix(.55949 -.064811 .071860 .50461 -326.61 -1248.6)">
        <path id="path11182" fill="url(#linearGradient11078)" d="m-1993.8-1049.6c-19.79 6.349-38.191 8.9271-64.022 31.67-23.438 26.401-49.798 51.967-67.427 80.027l93.308-72.876c13.352-13.579 25.653-26.107 38.141-38.822z"/>
        <path id="path11184" fill="url(#linearGradient11080)" d="m-1989.4-1022.7c-64.902 65.732-76.72 152.09-87.519 192.75l50.741-109.31c14.546-25.295 30.886-48.617 36.778-83.433z"/>
        <path id="path11186" fill="url(#linearGradient11082)" d="m-1969.6-1029.9 44.982 106.14 6.6614 7.9898c7.182 61.955 0.6565 89.496 2.1617 149.83l-52.784-179.12c-11.326-35.134-7.6277-59.488-1.0216-84.832z"/>
        <path id="path11188" fill="url(#linearGradient11084)" d="m-1979.5-1053.3 54.487 129.75c103.52 117.24 57.862 64.247 86.497 96.033l-40.865-105.91c-30.174-48.367-117.97-159.84-100.12-119.87z"/>
        <path id="path11190" fill="url(#linearGradient11086)" d="m-1949.2-1047.9c95.517-17.912 163.16-3.6191 217.95 25.54-69.538-13.071-123.38-20.878-217.95-25.54z"/>
      </g>
      <g id="g11192" transform="matrix(-.67879 -.13119 -.087184 1.0214 -3024.5 94.296)">
        <path id="path11194" fill="url(#linearGradient11078)" d="m-1993.8-1049.6c-19.79 6.349-38.191 8.9271-64.022 31.67-23.438 26.401-49.798 51.967-67.427 80.027l93.308-72.876c13.352-13.579 25.653-26.107 38.141-38.822z"/>
        <path id="path11196" fill="url(#linearGradient11080)" d="m-1989.4-1022.7c-64.902 65.732-76.72 152.09-87.519 192.75l50.741-109.31c14.546-25.295 30.886-48.617 36.778-83.433z"/>
        <path id="path11198" fill="url(#linearGradient11082)" d="m-1969.6-1029.9 44.982 106.14 6.6614 7.9898c7.182 61.955 0.6565 89.496 2.1617 149.83l-52.784-179.12c-11.326-35.134-7.6277-59.488-1.0216-84.832z"/>
        <path id="path11200" fill="url(#linearGradient11084)" d="m-1979.5-1053.3 54.487 129.75c103.52 117.24 57.862 64.247 86.497 96.033l-40.865-105.91c-30.174-48.367-117.97-159.84-100.12-119.87z"/>
        <path id="path11202" fill="url(#linearGradient11086)" d="m-1949.2-1047.9c95.517-17.912 163.16-3.6191 217.95 25.54-69.538-13.071-123.38-20.878-217.95-25.54z"/>
      </g>
      <g id="g11204" transform="matrix(-.79809 1.2773 1.2296 .82906 -1830.1 3144.2)">
        <path id="path11206" fill="url(#linearGradient11078)" d="m-1993.8-1049.6c-19.79 6.349-38.191 8.9271-64.022 31.67-23.438 26.401-49.798 51.967-67.427 80.027l93.308-72.876c13.352-13.579 25.653-26.107 38.141-38.822z"/>
        <path id="path11208" fill="url(#linearGradient11080)" d="m-1989.4-1022.7c-64.902 65.732-76.72 152.09-87.519 192.75l50.741-109.31c14.546-25.295 30.886-48.617 36.778-83.433z"/>
        <path id="path11210" fill="url(#linearGradient11082)" d="m-1969.6-1029.9 44.982 106.14 6.6614 7.9898c7.182 61.955 0.6565 89.496 2.1617 149.83l-52.784-179.12c-11.326-35.134-7.6277-59.488-1.0216-84.832z"/>
        <path id="path11212" fill="url(#linearGradient11084)" d="m-1979.5-1053.3 54.487 129.75c103.52 117.24 57.862 64.247 86.497 96.033l-40.865-105.91c-30.174-48.367-117.97-159.84-100.12-119.87z"/>
        <path id="path11214" fill="url(#linearGradient11086)" d="m-1949.2-1047.9c95.517-17.912 163.16-3.6191 217.95 25.54-69.538-13.071-123.38-20.878-217.95-25.54z"/>
      </g>
    </g>
    <path id="path10650" fill="url(#linearGradient11930)" d="m-652.04-2613-2.1187 519.72c0.0666 9.008-5.1744 8.9297-0.0437 18.492l84.262 0.4843c6.2497-7.5464 0.21648-7.4724 1.0084-22.96l-0.76212-515.74c-0.078-5.9857 7.4327-14.07-0.91719-19.32-27.274 2.2-54.548 1.6658-81.823 0.235-5.6599 8.519-0.11927 8.3857 0.3934 19.085z"/>
    <path id="path10652" fill="url(#linearGradient11927)" d="m-652.04-2613c27.576 2.0222 55.133 1.3213 82.423-1.2107-0.15403-4.1697 7.3565-12.859-0.99338-18.109-27.274 2.2-54.548 1.6658-81.823 0.235-5.6599 8.3979 0.10938 10.202 0.16474 15.695z"/>
    <path id="path10654" fill="url(#linearGradient11924)" d="m-654.32-2089.9c-0.95716 5.1553-4.2583 6.4467 0.11833 15.067l84.262 0.4843c5.4413-6.0909 1.1326-10.041 1.0623-16.111z"/>
    <path id="path10658" fill="url(#linearGradient11921)" d="m-656.12-2073.1-2.2659 518.61c0.0718 8.9888-5.5337 8.9106-0.0458 18.452l90.113 0.4832c6.6836-7.5302 0.23156-7.4565 1.0784-22.911l-0.81499-514.64c-0.0833-5.9729 7.9486-14.04-0.98099-19.278-29.168 2.1952-55.842 1.8112-85.01 0.3835-6.053 8.5007-2.6215 8.2187-2.0732 18.895z"/>
    <path id="path10660" fill="url(#linearGradient11918)" d="m-656.12-2073.1c29.491 2.0178 58.961 1.3185 88.146-1.2082-0.16474-4.1608 7.8672-12.832-1.0625-18.07-29.168 2.1952-55.946 1.79-85.114 0.3622-6.053 8.3799-2.2732 10.052-2.2138 15.533z"/>
    <path id="path10662" fill="url(#linearGradient11915)" d="m-658.56-1551c-1.0237 5.1443-4.554 6.4331 0.12655 15.035l90.113 0.4832c5.8192-6.0779 1.2113-10.019 1.136-16.076z"/>
    <path id="path10666" fill="url(#linearGradient11912)" d="m-659.46-1534.7-2.39 518.06c0.0749 8.9791-3.8777 7.5156 1.9105 17.047l93.094 1.8682c7.0501-7.5223 0.24426-7.4485 1.1375-22.886l-0.85974-514.09c-0.0874-5.9667 8.3845-14.025-1.0347-19.258-30.767 2.193-60.01 1.9161-90.777 0.4899-6.3848 8.4915-1.6586 8.1032-1.0803 18.768z"/>
    <path id="path10668" fill="url(#linearGradient11909)" d="m-659.46-1534.7c31.108 2.0156 62.194 1.317 92.978-1.207-0.1738-4.1563 8.2985-12.818-1.1206-18.051-30.767 2.193-59.941 2.0013-90.708 0.575-6.3848 8.371-1.47 9.8285-1.4075 15.304z"/>
    <path id="path10670" fill="url(#linearGradient11906)" d="m-662.03-1013.3c-1.0798 5.1387-4.8036 6.426 0.13352 15.019l95.053 0.48277c6.1382-6.0714 1.2777-10.009 1.1983-16.059z"/>
    <path id="path10674" fill="url(#linearGradient11903)" d="m-662.81-996.66-2.5142 519.01c0.0791 8.9956-1.5342 8.9173-0.051 18.467l99.994 0.48365c7.4165-7.5361 0.25685-7.4622 1.1965-22.928l-0.90439-515.03c-0.0926-5.9776 8.8203-14.05-1.0884-19.293-32.366 2.197-63.116 1.9045-95.482 0.4757-6.7166 8.5072-2.2084 9.3258-1.1497 18.818z"/>
    <path id="path10676" fill="url(#linearGradient11900)" d="m-662.81-996.66c32.725 2.0193 65.427 1.3194 97.811-1.2092-0.18285-4.1639 8.7298-12.841-1.1788-18.084-32.366 2.197-63.116 1.9045-95.482 0.4757-7.2362 7.8751-1.279 12.886-1.04 18.627z"/>
    <path id="path10678" fill="url(#linearGradient11897)" d="m-665.51-474.23c-1.1358 5.1481-0.34396 4.9272 0.14039 15.047l99.994 0.48365c6.4572-6.0826 1.3441-10.027 1.2605-16.089z"/>
    <path id="path10682" fill="url(#linearGradient11894)" d="m-665.4-457.99-2.5992 518.06c0.0822 8.9791-0.72268 8.0363-0.0531 18.433l103.37 0.48277c7.6672-7.5223 0.26559-7.4485 1.2371-22.886l-0.93499-514.09c-0.0957-5.9666 9.1184-14.025-1.1253-19.258-33.46 2.193-66.159 2.0864-99.619 0.66019-6.9437 8.4916-0.90834 7.9329-0.27943 18.598z"/>
    <path id="path10684" fill="url(#linearGradient11891)" d="m-665.4-457.99c33.831 2.0156 67.638 1.317 101.12-1.207-0.189-4.1563 9.025-12.818-1.2188-18.051-33.46 2.193-66.09 1.916-99.55 0.48983-6.9437 8.3709-0.69718 9.9136-0.62922 15.389z"/>
    <path id="path10686" fill="url(#linearGradient11888)" d="m-668.2 63.485c-1.1744 5.1387-2.28 5.8691 0.14508 15.019l103.37 0.48277c6.6755-6.0715 1.3896-10.009 1.3032-16.059z"/>
    <path id="path10690" fill="url(#linearGradient11885)" d="m-668.47 81.031-2.7235 517.1c0.0853 8.9626-6.6515 8.8846-0.0562 18.399l108.31 0.48188c8.0337-7.5084 0.27829-7.4348 1.2961-22.844l-0.97963-513.14c-0.0999-5.9557 9.5543-13.999-1.179-19.223-35.06 2.1889-69.011 1.913-104.07 0.48939-7.2273 8.4718 1.0328 7.8864-0.60279 18.733z"/>
    <path id="path10692" fill="url(#linearGradient11882)" d="m-668.47 81.031c35.448 2.0119 70.871 1.3146 105.95-1.2047-0.19805-4.1486 9.4564-12.794-1.277-18.018-35.06 2.1889-69.149 2.0834-104.21 0.65977-7.2756 8.3555-0.82935 9.7246-0.75817 15.19z"/>
    <path id="path10694" fill="url(#linearGradient11879)" d="m-671.4 601.54c-1.2304 5.1292-5.4738 6.4143 0.15205 14.991l108.31 0.48188c6.9945-6.0603 1.456-9.9904 1.3654-16.03z"/>
    <g id="g10894" transform="matrix(.56662 .97452 -.87296 .63254 -406.7 1048.4)">
      <path id="path10896" fill="url(#linearGradient11078)" d="m-1993.8-1049.6c-19.79 6.349-38.191 8.9271-64.022 31.67-23.438 26.401-49.798 51.967-67.427 80.027l93.308-72.876c13.352-13.579 25.653-26.107 38.141-38.822z"/>
      <path id="path10898" fill="url(#linearGradient11080)" d="m-1989.4-1022.7c-64.902 65.732-76.72 152.09-87.519 192.75l50.741-109.31c14.546-25.295 30.886-48.617 36.778-83.433z"/>
      <path id="path10900" fill="url(#linearGradient11082)" d="m-1969.6-1029.9 44.982 106.14 6.6614 7.9898c7.182 61.955 0.6565 89.496 2.1617 149.83l-52.784-179.12c-11.326-35.134-7.6277-59.488-1.0216-84.832z"/>
      <path id="path10902" fill="url(#linearGradient11084)" d="m-1979.5-1053.3 54.487 129.75c103.52 117.24 57.862 64.247 86.497 96.033l-40.865-105.91c-30.174-48.367-117.97-159.84-100.12-119.87z"/>
      <path id="path10904" fill="url(#linearGradient11086)" d="m-1949.2-1047.9c95.517-17.912 163.16-3.6191 217.95 25.54-69.538-13.071-123.38-20.878-217.95-25.54z"/>
    </g>
    <g id="g10916" transform="matrix(.58227 -.075298 .074787 .58626 662.26 -1606.9)">
      <path id="path10918" fill="url(#linearGradient11078)" d="m-1993.8-1049.6c-19.79 6.349-38.191 8.9271-64.022 31.67-23.438 26.401-49.798 51.967-67.427 80.027l93.308-72.876c13.352-13.579 25.653-26.107 38.141-38.822z"/>
      <path id="path10920" fill="url(#linearGradient11080)" d="m-1989.4-1022.7c-64.902 65.732-76.72 152.09-87.519 192.75l50.741-109.31c14.546-25.295 30.886-48.617 36.778-83.433z"/>
      <path id="path10922" fill="url(#linearGradient11082)" d="m-1969.6-1029.9 44.982 106.14 6.6614 7.9898c7.182 61.955 0.6565 89.496 2.1617 149.83l-52.784-179.12c-11.326-35.134-7.6277-59.488-1.0216-84.832z"/>
      <path id="path10924" fill="url(#linearGradient11084)" d="m-1979.5-1053.3 54.487 129.75c103.52 117.24 57.862 64.247 86.497 96.033l-40.865-105.91c-30.174-48.367-117.97-159.84-100.12-119.87z"/>
      <path id="path10926" fill="url(#linearGradient11086)" d="m-1949.2-1047.9c95.517-17.912 163.16-3.6191 217.95 25.54-69.538-13.071-123.38-20.878-217.95-25.54z"/>
    </g>
    <g id="g10938" transform="matrix(-.70644 -.15242 -.090735 1.1867 -2145.5 -46.617)">
      <path id="path10940" fill="url(#linearGradient11078)" d="m-1993.8-1049.6c-19.79 6.349-38.191 8.9271-64.022 31.67-23.438 26.401-49.798 51.967-67.427 80.027l93.308-72.876c13.352-13.579 25.653-26.107 38.141-38.822z"/>
      <path id="path10942" fill="url(#linearGradient11080)" d="m-1989.4-1022.7c-64.902 65.732-76.72 152.09-87.519 192.75l50.741-109.31c14.546-25.295 30.886-48.617 36.778-83.433z"/>
      <path id="path10944" fill="url(#linearGradient11082)" d="m-1969.6-1029.9 44.982 106.14 6.6614 7.9898c7.182 61.955 0.6565 89.496 2.1617 149.83l-52.784-179.12c-11.326-35.134-7.6277-59.488-1.0216-84.832z"/>
      <path id="path10946" fill="url(#linearGradient11084)" d="m-1979.5-1053.3 54.487 129.75c103.52 117.24 57.862 64.247 86.497 96.033l-40.865-105.91c-30.174-48.367-117.97-159.84-100.12-119.87z"/>
      <path id="path10948" fill="url(#linearGradient11086)" d="m-1949.2-1047.9c95.517-17.912 163.16-3.6191 217.95 25.54-69.538-13.071-123.38-20.878-217.95-25.54z"/>
    </g>
    <g id="g10960" transform="matrix(-.83059 1.484 1.2796 .96321 -902.5 3496.8)">
      <path id="path10962" fill="url(#linearGradient11078)" d="m-1993.8-1049.6c-19.79 6.349-38.191 8.9271-64.022 31.67-23.438 26.401-49.798 51.967-67.427 80.027l93.308-72.876c13.352-13.579 25.653-26.107 38.141-38.822z"/>
      <path id="path10964" fill="url(#linearGradient11080)" d="m-1989.4-1022.7c-64.902 65.732-76.72 152.09-87.519 192.75l50.741-109.31c14.546-25.295 30.886-48.617 36.778-83.433z"/>
      <path id="path10966" fill="url(#linearGradient11082)" d="m-1969.6-1029.9 44.982 106.14 6.6614 7.9898c7.182 61.955 0.6565 89.496 2.1617 149.83l-52.784-179.12c-11.326-35.134-7.6277-59.488-1.0216-84.832z"/>
      <path id="path10968" fill="url(#linearGradient11084)" d="m-1979.5-1053.3 54.487 129.75c103.52 117.24 57.862 64.247 86.497 96.033l-40.865-105.91c-30.174-48.367-117.97-159.84-100.12-119.87z"/>
      <path id="path10970" fill="url(#linearGradient11086)" d="m-1949.2-1047.9c95.517-17.912 163.16-3.6191 217.95 25.54-69.538-13.071-123.38-20.878-217.95-25.54z"/>
    </g>
    <g id="g10360" transform="matrix(.25384 .15683 -.15683 .25384 -252.64 -638.96)">
      <path id="path10362" fill="url(#linearGradient10328)" d="m-2147.5-762.88c-58.704 18.833-113.29 26.481-189.91 93.944-69.523 78.314-147.72 154.15-200.01 237.39l276.78-216.17c39.607-40.28 76.094-77.441 113.14-115.16z"/>
      <path id="path10364" fill="url(#linearGradient10330)" d="m-2134.3-683.08c-192.52 194.98-227.57 451.16-259.61 571.75l150.51-324.26c43.15-75.033 91.619-144.21 109.1-247.49z"/>
      <path id="path10366" fill="url(#linearGradient10332)" d="m-2075.7-734.6c63.988 74.217 103.82 180.79 144.45 275.77 21.304 183.78 10.688 358.43 15.152 537.4l-156.6-531.34c-33.597-104.22-5.2584-191.94-3.0304-281.83z"/>
      <path id="path10368" fill="url(#linearGradient10334)" d="m-2105-773.99 161.62 384.87c307.08 347.78 171.64 190.58 256.58 284.86l-121.22-314.16c-89.507-143.47-349.94-474.14-296.98-355.57z"/>
      <path id="path10370" fill="url(#linearGradient10336)" d="m-2015.1-757.83c283.33-53.132 484-10.735 646.5 75.761-206.27-38.773-365.98-61.932-646.5-75.761z"/>
    </g>
    <g id="g9500" transform="matrix(-.96925 .24609 .24609 .96925 -165.94 -305.69)">
      <g id="g9502" transform="matrix(.77794 0 0 1.0051 64.372 -1997.9)">
        <path id="path9504" fill="url(#linearGradient4137)" d="m222.49 245-2.4821 383.25c0.0782 6.6426-6.0619 6.5848-0.0508 13.636l98.714 0.35714c7.3216-5.5648 0.25363-5.5103 1.1813-16.931l-0.89285-380.31c-0.0912-4.414 8.7074-10.375-1.0745-14.247-31.952 1.6223-63.904 1.2284-95.856 0.17331-6.6307 6.2819-0.13978 6.1837 0.46084 14.073z"/>
        <path id="path9506" fill="url(#linearGradient4139)" d="m222.49 245c32.306 1.4911 64.589 0.9743 96.559-0.89288-0.18049-3.0747 8.6181-9.4823-1.1638-13.354-31.952 1.6223-63.904 1.2284-95.856 0.17331-6.6307 6.1926 0.12808 7.523 0.19298 11.573z"/>
        <path id="path9508" fill="url(#linearGradient4141)" d="m219.81 630.77c-1.1214 3.8015-4.9886 4.7539 0.1386 11.111l98.714 0.35714c6.3746-4.4916 1.3269-7.4043 1.2444-11.88z"/>
      </g>
      <g id="g9510" transform="matrix(.83195 0 0 1.0029 48.64 -1597.2)">
        <path id="path9512" fill="url(#linearGradient4137)" d="m222.49 245-2.4821 383.25c0.0782 6.6426-6.0619 6.5848-0.0508 13.636l98.714 0.35714c7.3216-5.5648 0.25363-5.5103 1.1813-16.931l-0.89285-380.31c-0.0912-4.414 8.7074-10.375-1.0745-14.247-31.952 1.6223-61.172 1.3386-93.124 0.28347-6.6307 6.2819-2.8717 6.0736-2.2711 13.963z"/>
        <path id="path9514" fill="url(#linearGradient4139)" d="m222.49 245c32.306 1.4911 64.589 0.9743 96.559-0.89288-0.18049-3.0747 8.6181-9.4823-1.1638-13.354-31.952 1.6223-61.286 1.3228-93.238 0.26774-6.6307 6.1926-2.49 7.4286-2.4251 11.479z"/>
        <path id="path9516" fill="url(#linearGradient4141)" d="m219.81 630.77c-1.1214 3.8015-4.9886 4.7539 0.1386 11.111l98.714 0.35714c6.3746-4.4916 1.3269-7.4043 1.2444-11.88z"/>
      </g>
      <g id="g9518" transform="matrix(.87757 0 0 1.0018 35.445 -1198)">
        <path id="path9520" fill="url(#linearGradient4137)" d="m222.49 245-2.4821 383.25c0.0782 6.6426-4.0271 5.5599 1.984 12.611l96.679 1.382c7.3216-5.5648 0.25363-5.5103 1.1813-16.931l-0.89285-380.31c-0.0912-4.414 8.7074-10.375-1.0745-14.247-31.952 1.6223-62.321 1.4174-94.273 0.36237-6.6307 6.2819-1.7225 5.9946-1.1219 13.884z"/>
        <path id="path9522" fill="url(#linearGradient4139)" d="m222.49 245c32.306 1.4911 64.589 0.9743 96.559-0.89288-0.18049-3.0747 8.6181-9.4823-1.1638-13.354-31.952 1.6223-62.249 1.4805-94.201 0.42538-6.6307 6.1926-1.5266 7.2709-1.4617 11.321z"/>
        <path id="path9524" fill="url(#linearGradient4141)" d="m219.81 630.77c-1.1214 3.8015-4.9886 4.7539 0.1386 11.111l98.714 0.35714c6.3746-4.4916 1.3269-7.4043 1.2444-11.88z"/>
      </g>
      <g id="g9526" transform="matrix(.92318 0 0 1.0037 22.25 -799.63)">
        <path id="path9528" fill="url(#linearGradient4137)" d="m222.49 245-2.4821 383.25c0.0782 6.6426-1.5146 6.5848-0.0508 13.636l98.714 0.35714c7.3216-5.5648 0.25363-5.5103 1.1813-16.931l-0.89285-380.31c-0.0912-4.414 8.7074-10.375-1.0745-14.247-31.952 1.6223-62.308 1.4063-94.26 0.35123-6.6307 6.2819-2.1801 6.8864-1.135 13.896z"/>
        <path id="path9530" fill="url(#linearGradient4139)" d="m222.49 245c32.306 1.4911 64.589 0.9743 96.559-0.89288-0.18049-3.0747 8.6181-9.4823-1.1638-13.354-31.952 1.6223-62.308 1.4063-94.26 0.35123-7.1436 5.8152-1.2626 9.5152-1.0267 13.754z"/>
        <path id="path9532" fill="url(#linearGradient4141)" d="m219.81 630.77c-1.1214 3.8015-0.33957 3.6384 0.1386 11.111l98.714 0.35714c6.3746-4.4916 1.3269-7.4043 1.2444-11.88z"/>
      </g>
      <g id="g9534" transform="matrix(.95439 0 0 1.0018 12.943 -399.94)">
        <path id="path9536" fill="url(#linearGradient4137)" d="m222.49 245-2.4821 383.25c0.0782 6.6426-0.69003 5.9451-0.0508 13.636l98.714 0.35714c7.3216-5.5648 0.25363-5.5103 1.1813-16.931l-0.89285-380.31c-0.0912-4.414 8.7074-10.375-1.0745-14.247-31.952 1.6223-63.176 1.5435-95.128 0.4884-6.6307 6.2819-0.86745 5.8686-0.26683 13.758z"/>
        <path id="path9538" fill="url(#linearGradient4139)" d="m222.49 245c32.306 1.4911 64.589 0.9743 96.559-0.89288-0.18049-3.0747 8.6181-9.4823-1.1638-13.354-31.952 1.6223-63.11 1.4174-95.062 0.36237-6.6307 6.1926-0.66574 7.3339-0.60084 11.384z"/>
        <path id="path9540" fill="url(#linearGradient4141)" d="m219.81 630.77c-1.1214 3.8015-2.1772 4.3418 0.1386 11.111l98.714 0.35714c6.3746-4.4916 1.3269-7.4043 1.2444-11.88z"/>
      </g>
      <g id="g9542">
        <path id="path9544" fill="url(#linearGradient4137)" d="m222.49 245-2.4821 383.25c0.0782 6.6426-6.0619 6.5848-0.0508 13.636l98.714 0.35714c7.3216-5.5648 0.25363-5.5103 1.1813-16.931l-0.89285-380.31c-0.0912-4.414 8.7074-10.375-1.0745-14.247-31.952 1.6223-62.894 1.4178-94.846 0.36271-6.5867 6.2788 0.94133 5.8449-0.54931 13.884z"/>
        <path id="path9546" fill="url(#linearGradient4139)" d="m222.49 245c32.306 1.4911 64.589 0.9743 96.559-0.89288-0.18049-3.0747 8.6181-9.4823-1.1638-13.354-31.952 1.6223-63.02 1.5441-94.972 0.48898-6.6307 6.1926-0.7558 7.2073-0.6909 11.258z"/>
        <path id="path9548" fill="url(#linearGradient4141)" d="m219.81 630.77c-1.1214 3.8015-4.9886 4.7539 0.1386 11.111l98.714 0.35714c6.3746-4.4916 1.3269-7.4043 1.2444-11.88z"/>
      </g>
    </g>
    <g id="g4205" transform="matrix(1.0543 0 0 1.1613 -550.19 -121.06)">
      <g id="g4191" transform="matrix(.77794 0 0 1.0051 64.372 -1997.9)">
        <path id="path4193" fill="url(#linearGradient4137)" d="m222.49 245-2.4821 383.25c0.0782 6.6426-6.0619 6.5848-0.0508 13.636l98.714 0.35714c7.3216-5.5648 0.25363-5.5103 1.1813-16.931l-0.89285-380.31c-0.0912-4.414 8.7074-10.375-1.0745-14.247-31.952 1.6223-63.904 1.2284-95.856 0.17331-6.6307 6.2819-0.13978 6.1837 0.46084 14.073z"/>
        <path id="path4195" fill="url(#linearGradient4139)" d="m222.49 245c32.306 1.4911 64.589 0.9743 96.559-0.89288-0.18049-3.0747 8.6181-9.4823-1.1638-13.354-31.952 1.6223-63.904 1.2284-95.856 0.17331-6.6307 6.1926 0.12808 7.523 0.19298 11.573z"/>
        <path id="path4197" fill="url(#linearGradient4141)" d="m219.81 630.77c-1.1214 3.8015-4.9886 4.7539 0.1386 11.111l98.714 0.35714c6.3746-4.4916 1.3269-7.4043 1.2444-11.88z"/>
      </g>
      <g id="g4157" transform="matrix(.83195 0 0 1.0029 48.64 -1597.2)">
        <path id="path4159" fill="url(#linearGradient4137)" d="m222.49 245-2.4821 383.25c0.0782 6.6426-6.0619 6.5848-0.0508 13.636l98.714 0.35714c7.3216-5.5648 0.25363-5.5103 1.1813-16.931l-0.89285-380.31c-0.0912-4.414 8.7074-10.375-1.0745-14.247-31.952 1.6223-61.172 1.3386-93.124 0.28347-6.6307 6.2819-2.8717 6.0736-2.2711 13.963z"/>
        <path id="path4161" fill="url(#linearGradient4139)" d="m222.49 245c32.306 1.4911 64.589 0.9743 96.559-0.89288-0.18049-3.0747 8.6181-9.4823-1.1638-13.354-31.952 1.6223-61.286 1.3228-93.238 0.26774-6.6307 6.1926-2.49 7.4286-2.4251 11.479z"/>
        <path id="path4163" fill="url(#linearGradient4141)" d="m219.81 630.77c-1.1214 3.8015-4.9886 4.7539 0.1386 11.111l98.714 0.35714c6.3746-4.4916 1.3269-7.4043 1.2444-11.88z"/>
      </g>
      <g id="g4171" transform="matrix(.87757 0 0 1.0018 35.445 -1198)">
        <path id="path4173" fill="url(#linearGradient4137)" d="m222.49 245-2.4821 383.25c0.0782 6.6426-4.0271 5.5599 1.984 12.611l96.679 1.382c7.3216-5.5648 0.25363-5.5103 1.1813-16.931l-0.89285-380.31c-0.0912-4.414 8.7074-10.375-1.0745-14.247-31.952 1.6223-62.321 1.4174-94.273 0.36237-6.6307 6.2819-1.7225 5.9946-1.1219 13.884z"/>
        <path id="path4175" fill="url(#linearGradient4139)" d="m222.49 245c32.306 1.4911 64.589 0.9743 96.559-0.89288-0.18049-3.0747 8.6181-9.4823-1.1638-13.354-31.952 1.6223-62.249 1.4805-94.201 0.42538-6.6307 6.1926-1.5266 7.2709-1.4617 11.321z"/>
        <path id="path4177" fill="url(#linearGradient4141)" d="m219.81 630.77c-1.1214 3.8015-4.9886 4.7539 0.1386 11.111l98.714 0.35714c6.3746-4.4916 1.3269-7.4043 1.2444-11.88z"/>
      </g>
      <g id="g4143" transform="matrix(.92318 0 0 1.0037 22.25 -799.63)">
        <path id="path4145" fill="url(#linearGradient4137)" d="m222.49 245-2.4821 383.25c0.0782 6.6426-1.5146 6.5848-0.0508 13.636l98.714 0.35714c7.3216-5.5648 0.25363-5.5103 1.1813-16.931l-0.89285-380.31c-0.0912-4.414 8.7074-10.375-1.0745-14.247-31.952 1.6223-62.308 1.4063-94.26 0.35123-6.6307 6.2819-2.1801 6.8864-1.135 13.896z"/>
        <path id="path4147" fill="url(#linearGradient4139)" d="m222.49 245c32.306 1.4911 64.589 0.9743 96.559-0.89288-0.18049-3.0747 8.6181-9.4823-1.1638-13.354-31.952 1.6223-62.308 1.4063-94.26 0.35123-7.1436 5.8152-1.2626 9.5152-1.0267 13.754z"/>
        <path id="path4149" fill="url(#linearGradient4141)" d="m219.81 630.77c-1.1214 3.8015-0.33957 3.6384 0.1386 11.111l98.714 0.35714c6.3746-4.4916 1.3269-7.4043 1.2444-11.88z"/>
      </g>
      <g id="g4129" transform="matrix(.95439 0 0 1.0018 12.943 -399.94)">
        <path id="path4131" fill="url(#linearGradient4137)" d="m222.49 245-2.4821 383.25c0.0782 6.6426-0.69003 5.9451-0.0508 13.636l98.714 0.35714c7.3216-5.5648 0.25363-5.5103 1.1813-16.931l-0.89285-380.31c-0.0912-4.414 8.7074-10.375-1.0745-14.247-31.952 1.6223-63.176 1.5435-95.128 0.4884-6.6307 6.2819-0.86745 5.8686-0.26683 13.758z"/>
        <path id="path4133" fill="url(#linearGradient4139)" d="m222.49 245c32.306 1.4911 64.589 0.9743 96.559-0.89288-0.18049-3.0747 8.6181-9.4823-1.1638-13.354-31.952 1.6223-63.11 1.4174-95.062 0.36237-6.6307 6.1926-0.66574 7.3339-0.60084 11.384z"/>
        <path id="path4135" fill="url(#linearGradient4141)" d="m219.81 630.77c-1.1214 3.8015-2.1772 4.3418 0.1386 11.111l98.714 0.35714c6.3746-4.4916 1.3269-7.4043 1.2444-11.88z"/>
      </g>
      <g id="g4124">
        <path id="path3203" fill="url(#linearGradient4137)" d="m222.49 245-2.4821 383.25c0.0782 6.6426-6.0619 6.5848-0.0508 13.636l98.714 0.35714c7.3216-5.5648 0.25363-5.5103 1.1813-16.931l-0.89285-380.31c-0.0912-4.414 8.7074-10.375-1.0745-14.247-31.952 1.6223-62.894 1.4178-94.846 0.36271-6.5867 6.2788 0.94133 5.8449-0.54931 13.884z"/>
        <path id="path3209" fill="url(#linearGradient4139)" d="m222.49 245c32.306 1.4911 64.589 0.9743 96.559-0.89288-0.18049-3.0747 8.6181-9.4823-1.1638-13.354-31.952 1.6223-63.02 1.5441-94.972 0.48898-6.6307 6.1926-0.7558 7.2073-0.6909 11.258z"/>
        <path id="path3211" fill="url(#linearGradient4141)" d="m219.81 630.77c-1.1214 3.8015-4.9886 4.7539 0.1386 11.111l98.714 0.35714c6.3746-4.4916 1.3269-7.4043 1.2444-11.88z"/>
      </g>
    </g>
    <g id="g9242" transform="matrix(.82193 0 0 .99965 -680.53 -87.487)">
      <g id="g9244" transform="matrix(.77794 0 0 1.0051 64.372 -1997.9)">
        <path id="path9246" fill="url(#linearGradient4137)" d="m222.49 245-2.4821 383.25c0.0782 6.6426-6.0619 6.5848-0.0508 13.636l98.714 0.35714c7.3216-5.5648 0.25363-5.5103 1.1813-16.931l-0.89285-380.31c-0.0912-4.414 8.7074-10.375-1.0745-14.247-31.952 1.6223-63.904 1.2284-95.856 0.17331-6.6307 6.2819-0.13978 6.1837 0.46084 14.073z"/>
        <path id="path9248" fill="url(#linearGradient4139)" d="m222.49 245c32.306 1.4911 64.589 0.9743 96.559-0.89288-0.18049-3.0747 8.6181-9.4823-1.1638-13.354-31.952 1.6223-63.904 1.2284-95.856 0.17331-6.6307 6.1926 0.12808 7.523 0.19298 11.573z"/>
        <path id="path9250" fill="url(#linearGradient4141)" d="m219.81 630.77c-1.1214 3.8015-4.9886 4.7539 0.1386 11.111l98.714 0.35714c6.3746-4.4916 1.3269-7.4043 1.2444-11.88z"/>
      </g>
      <g id="g9252" transform="matrix(.83195 0 0 1.0029 48.64 -1597.2)">
        <path id="path9254" fill="url(#linearGradient4137)" d="m222.49 245-2.4821 383.25c0.0782 6.6426-6.0619 6.5848-0.0508 13.636l98.714 0.35714c7.3216-5.5648 0.25363-5.5103 1.1813-16.931l-0.89285-380.31c-0.0912-4.414 8.7074-10.375-1.0745-14.247-31.952 1.6223-61.172 1.3386-93.124 0.28347-6.6307 6.2819-2.8717 6.0736-2.2711 13.963z"/>
        <path id="path9256" fill="url(#linearGradient4139)" d="m222.49 245c32.306 1.4911 64.589 0.9743 96.559-0.89288-0.18049-3.0747 8.6181-9.4823-1.1638-13.354-31.952 1.6223-61.286 1.3228-93.238 0.26774-6.6307 6.1926-2.49 7.4286-2.4251 11.479z"/>
        <path id="path9258" fill="url(#linearGradient4141)" d="m219.81 630.77c-1.1214 3.8015-4.9886 4.7539 0.1386 11.111l98.714 0.35714c6.3746-4.4916 1.3269-7.4043 1.2444-11.88z"/>
      </g>
      <g id="g9260" transform="matrix(.87757 0 0 1.0018 35.445 -1198)">
        <path id="path9262" fill="url(#linearGradient4137)" d="m222.49 245-2.4821 383.25c0.0782 6.6426-4.0271 5.5599 1.984 12.611l96.679 1.382c7.3216-5.5648 0.25363-5.5103 1.1813-16.931l-0.89285-380.31c-0.0912-4.414 8.7074-10.375-1.0745-14.247-31.952 1.6223-62.321 1.4174-94.273 0.36237-6.6307 6.2819-1.7225 5.9946-1.1219 13.884z"/>
        <path id="path9264" fill="url(#linearGradient4139)" d="m222.49 245c32.306 1.4911 64.589 0.9743 96.559-0.89288-0.18049-3.0747 8.6181-9.4823-1.1638-13.354-31.952 1.6223-62.249 1.4805-94.201 0.42538-6.6307 6.1926-1.5266 7.2709-1.4617 11.321z"/>
        <path id="path9266" fill="url(#linearGradient4141)" d="m219.81 630.77c-1.1214 3.8015-4.9886 4.7539 0.1386 11.111l98.714 0.35714c6.3746-4.4916 1.3269-7.4043 1.2444-11.88z"/>
      </g>
      <g id="g9268" transform="matrix(.92318 0 0 1.0037 22.25 -799.63)">
        <path id="path9270" fill="url(#linearGradient4137)" d="m222.49 245-2.4821 383.25c0.0782 6.6426-1.5146 6.5848-0.0508 13.636l98.714 0.35714c7.3216-5.5648 0.25363-5.5103 1.1813-16.931l-0.89285-380.31c-0.0912-4.414 8.7074-10.375-1.0745-14.247-31.952 1.6223-62.308 1.4063-94.26 0.35123-6.6307 6.2819-2.1801 6.8864-1.135 13.896z"/>
        <path id="path9272" fill="url(#linearGradient4139)" d="m222.49 245c32.306 1.4911 64.589 0.9743 96.559-0.89288-0.18049-3.0747 8.6181-9.4823-1.1638-13.354-31.952 1.6223-62.308 1.4063-94.26 0.35123-7.1436 5.8152-1.2626 9.5152-1.0267 13.754z"/>
        <path id="path9274" fill="url(#linearGradient4141)" d="m219.81 630.77c-1.1214 3.8015-0.33957 3.6384 0.1386 11.111l98.714 0.35714c6.3746-4.4916 1.3269-7.4043 1.2444-11.88z"/>
      </g>
      <g id="g9276" transform="matrix(.95439 0 0 1.0018 12.943 -399.94)">
        <path id="path9278" fill="url(#linearGradient4137)" d="m222.49 245-2.4821 383.25c0.0782 6.6426-0.69003 5.9451-0.0508 13.636l98.714 0.35714c7.3216-5.5648 0.25363-5.5103 1.1813-16.931l-0.89285-380.31c-0.0912-4.414 8.7074-10.375-1.0745-14.247-31.952 1.6223-63.176 1.5435-95.128 0.4884-6.6307 6.2819-0.86745 5.8686-0.26683 13.758z"/>
        <path id="path9280" fill="url(#linearGradient4139)" d="m222.49 245c32.306 1.4911 64.589 0.9743 96.559-0.89288-0.18049-3.0747 8.6181-9.4823-1.1638-13.354-31.952 1.6223-63.11 1.4174-95.062 0.36237-6.6307 6.1926-0.66574 7.3339-0.60084 11.384z"/>
        <path id="path9282" fill="url(#linearGradient4141)" d="m219.81 630.77c-1.1214 3.8015-2.1772 4.3418 0.1386 11.111l98.714 0.35714c6.3746-4.4916 1.3269-7.4043 1.2444-11.88z"/>
      </g>
      <g id="g9284">
        <path id="path9286" fill="url(#linearGradient4137)" d="m222.49 245-2.4821 383.25c0.0782 6.6426-6.0619 6.5848-0.0508 13.636l98.714 0.35714c7.3216-5.5648 0.25363-5.5103 1.1813-16.931l-0.89285-380.31c-0.0912-4.414 8.7074-10.375-1.0745-14.247-31.952 1.6223-62.894 1.4178-94.846 0.36271-6.5867 6.2788 0.94133 5.8449-0.54931 13.884z"/>
        <path id="path9288" fill="url(#linearGradient4139)" d="m222.49 245c32.306 1.4911 64.589 0.9743 96.559-0.89288-0.18049-3.0747 8.6181-9.4823-1.1638-13.354-31.952 1.6223-63.02 1.5441-94.972 0.48898-6.6307 6.1926-0.7558 7.2073-0.6909 11.258z"/>
        <path id="path9290" fill="url(#linearGradient4141)" d="m219.81 630.77c-1.1214 3.8015-4.9886 4.7539 0.1386 11.111l98.714 0.35714c6.3746-4.4916 1.3269-7.4043 1.2444-11.88z"/>
      </g>
    </g>
    <g id="g10316" transform="matrix(.33021 -.038902 .038902 .33021 -163.54 -1726)">
      <path id="path10318" fill="url(#linearGradient10328)" d="m-2147.5-762.88c-58.704 18.833-113.29 26.481-189.91 93.944-69.523 78.314-147.72 154.15-200.01 237.39l276.78-216.17c39.607-40.28 76.094-77.441 113.14-115.16z"/>
      <path id="path10320" fill="url(#linearGradient10330)" d="m-2134.3-683.08c-192.52 194.98-227.57 451.16-259.61 571.75l150.51-324.26c43.15-75.033 91.619-144.21 109.1-247.49z"/>
      <path id="path10322" fill="url(#linearGradient10332)" d="m-2075.7-734.6c63.988 74.217 103.82 180.79 144.45 275.77 21.304 183.78 10.688 358.43 15.152 537.4l-156.6-531.34c-33.597-104.22-5.2584-191.94-3.0304-281.83z"/>
      <path id="path10324" fill="url(#linearGradient10334)" d="m-2105-773.99 161.62 384.87c307.08 347.78 171.64 190.58 256.58 284.86l-121.22-314.16c-89.507-143.47-349.94-474.14-296.98-355.57z"/>
      <path id="path10326" fill="url(#linearGradient10336)" d="m-2015.1-757.83c283.33-53.132 484-10.735 646.5 75.761-206.27-38.773-365.98-61.932-646.5-75.761z"/>
    </g>
    <g id="g10470" transform="matrix(.12577 -.042001 .042001 .12577 58.501 -1666)">
      <path id="path10472" fill="url(#linearGradient10328)" d="m-2147.5-762.88c-58.704 18.833-113.29 26.481-189.91 93.944-69.523 78.314-147.72 154.15-200.01 237.39l276.78-216.17c39.607-40.28 76.094-77.441 113.14-115.16z"/>
      <path id="path10474" fill="url(#linearGradient10330)" d="m-2134.3-683.08c-192.52 194.98-227.57 451.16-259.61 571.75l150.51-324.26c43.15-75.033 91.619-144.21 109.1-247.49z"/>
      <path id="path10476" fill="url(#linearGradient10332)" d="m-2075.7-734.6c63.988 74.217 103.82 180.79 144.45 275.77 21.304 183.78 10.688 358.43 15.152 537.4l-156.6-531.34c-33.597-104.22-5.2584-191.94-3.0304-281.83z"/>
      <path id="path10478" fill="url(#linearGradient10334)" d="m-2105-773.99 161.62 384.87c307.08 347.78 171.64 190.58 256.58 284.86l-121.22-314.16c-89.507-143.47-349.94-474.14-296.98-355.57z"/>
      <path id="path10480" fill="url(#linearGradient10336)" d="m-2015.1-757.83c283.33-53.132 484-10.735 646.5 75.761-206.27-38.773-365.98-61.932-646.5-75.761z"/>
    </g>
    <g id="g10536" transform="matrix(.18510 -.050424 .050424 .18510 38.49 -365.7)">
      <path id="path10538" fill="url(#linearGradient10328)" d="m-2147.5-762.88c-58.704 18.833-113.29 26.481-189.91 93.944-69.523 78.314-147.72 154.15-200.01 237.39l276.78-216.17c39.607-40.28 76.094-77.441 113.14-115.16z"/>
      <path id="path10540" fill="url(#linearGradient10330)" d="m-2134.3-683.08c-192.52 194.98-227.57 451.16-259.61 571.75l150.51-324.26c43.15-75.033 91.619-144.21 109.1-247.49z"/>
      <path id="path10542" fill="url(#linearGradient10332)" d="m-2075.7-734.6c63.988 74.217 103.82 180.79 144.45 275.77 21.304 183.78 10.688 358.43 15.152 537.4l-156.6-531.34c-33.597-104.22-5.2584-191.94-3.0304-281.83z"/>
      <path id="path10544" fill="url(#linearGradient10334)" d="m-2105-773.99 161.62 384.87c307.08 347.78 171.64 190.58 256.58 284.86l-121.22-314.16c-89.507-143.47-349.94-474.14-296.98-355.57z"/>
      <path id="path10546" fill="url(#linearGradient10336)" d="m-2015.1-757.83c283.33-53.132 484-10.735 646.5 75.761-206.27-38.773-365.98-61.932-646.5-75.761z"/>
    </g>
    <g id="g10580" transform="matrix(.10230 .0060079 -.0060079 .10230 -241.39 -864.52)">
      <path id="path10582" fill="url(#linearGradient10328)" d="m-2147.5-762.88c-58.704 18.833-113.29 26.481-189.91 93.944-69.523 78.314-147.72 154.15-200.01 237.39l276.78-216.17c39.607-40.28 76.094-77.441 113.14-115.16z"/>
      <path id="path10584" fill="url(#linearGradient10330)" d="m-2134.3-683.08c-192.52 194.98-227.57 451.16-259.61 571.75l150.51-324.26c43.15-75.033 91.619-144.21 109.1-247.49z"/>
      <path id="path10586" fill="url(#linearGradient10332)" d="m-2075.7-734.6c63.988 74.217 103.82 180.79 144.45 275.77 21.304 183.78 10.688 358.43 15.152 537.4l-156.6-531.34c-33.597-104.22-5.2584-191.94-3.0304-281.83z"/>
      <path id="path10588" fill="url(#linearGradient10334)" d="m-2105-773.99 161.62 384.87c307.08 347.78 171.64 190.58 256.58 284.86l-121.22-314.16c-89.507-143.47-349.94-474.14-296.98-355.57z"/>
      <path id="path10590" fill="url(#linearGradient10336)" d="m-2015.1-757.83c283.33-53.132 484-10.735 646.5 75.761-206.27-38.773-365.98-61.932-646.5-75.761z"/>
    </g>
    <g id="g13602" transform="matrix(.33021 -.038902 .038902 .33021 -163.54 -1726)">
      <path id="path13604" fill="url(#linearGradient10328)" d="m-2147.5-762.88c-58.704 18.833-113.29 26.481-189.91 93.944-69.523 78.314-147.72 154.15-200.01 237.39l276.78-216.17c39.607-40.28 76.094-77.441 113.14-115.16z"/>
      <path id="path13606" fill="url(#linearGradient10330)" d="m-2134.3-683.08c-192.52 194.98-227.57 451.16-259.61 571.75l150.51-324.26c43.15-75.033 91.619-144.21 109.1-247.49z"/>
      <path id="path13608" fill="url(#linearGradient10332)" d="m-2075.7-734.6c63.988 74.217 103.82 180.79 144.45 275.77 21.304 183.78 10.688 358.43 15.152 537.4l-156.6-531.34c-33.597-104.22-5.2584-191.94-3.0304-281.83z"/>
      <path id="path13610" fill="url(#linearGradient10334)" d="m-2105-773.99 161.62 384.87c307.08 347.78 171.64 190.58 256.58 284.86l-121.22-314.16c-89.507-143.47-349.94-474.14-296.98-355.57z"/>
      <path id="path13612" fill="url(#linearGradient10336)" d="m-2015.1-757.83c283.33-53.132 484-10.735 646.5 75.761-206.27-38.773-365.98-61.932-646.5-75.761z"/>
    </g>
  </g>
  <metadata>
    <rdf:RDF>
      <cc:Work>
        <dc:format>image/svg+xml</dc:format>
        <dc:type rdf:resource="http://purl.org/dc/dcmitype/StillImage"/>
        <cc:license rdf:resource="http://creativecommons.org/licenses/publicdomain/"/>
        <dc:publisher>
          <cc:Agent rdf:about="http://openclipart.org/">
            <dc:title>Openclipart</dc:title>
          </cc:Agent>
        </dc:publisher>
        <dc:title>Bamboo</dc:title>
        <dc:date>2012-08-12T12:57:25</dc:date>
        <dc:description>bamboo, bambou, clip art, clipart, feuille, feuilles, grass, herbe, japan, japon, jungle, leave, leaves, plant, plante, stick, tige, </dc:description>
        <dc:source>http://openclipart.org/detail/171672/bamboo-by-cyberscooty-171672</dc:source>
        <dc:creator>
          <cc:Agent>
            <dc:title>cyberscooty</dc:title>
          </cc:Agent>
        </dc:creator>
        <dc:subject>
          <rdf:Bag>
            <rdf:li>bamboo</rdf:li>
            <rdf:li>bambou</rdf:li>
            <rdf:li>clip art</rdf:li>
            <rdf:li>clipart</rdf:li>
            <rdf:li>feuille</rdf:li>
            <rdf:li>feuilles</rdf:li>
            <rdf:li>grass</rdf:li>
            <rdf:li>herbe</rdf:li>
            <rdf:li>japan</rdf:li>
            <rdf:li>japon</rdf:li>
            <rdf:li>jungle</rdf:li>
            <rdf:li>leave</rdf:li>
            <rdf:li>leaves</rdf:li>
            <rdf:li>plant</rdf:li>
            <rdf:li>plante</rdf:li>
            <rdf:li>stick</rdf:li>
            <rdf:li>tige</rdf:li>
          </rdf:Bag>
        </dc:subject>
      </cc:Work>
      <cc:License rdf:about="http://creativecommons.org/licenses/publicdomain/">
        <cc:permits rdf:resource="http://creativecommons.org/ns#Reproduction"/>
        <cc:permits rdf:resource="http://creativecommons.org/ns#Distribution"/>
        <cc:permits rdf:resource="http://creativecommons.org/ns#DerivativeWorks"/>
      </cc:License>
    </rdf:RDF>
  </metadata>
</svg>
