<?xml version="1.0" encoding="UTF-8"?>
<svg xmlns="http://www.w3.org/2000/svg" xmlns:xlink="http://www.w3.org/1999/xlink" width="2640" height="2640" viewBox="0 0 2640 2640">
<rect x="-264" y="-264" width="3168" height="3168" fill="rgb(93.75%, 98.826599%, 100%)" fill-opacity="1"/>
<path fill-rule="evenodd" fill="rgb(72.068787%, 76.171875%, 76.951599%)" fill-opacity="1" d="M 1320 1598.328125 C 1616.109375 1598.328125 1856.160156 1639.53125 1856.160156 1690.34375 C 1856.160156 1741.164062 1616.109375 1782.359375 1320 1782.359375 C 1023.890625 1782.359375 783.839844 1741.164062 783.839844 1690.34375 C 783.839844 1639.53125 1023.890625 1598.328125 1320 1598.328125 "/>
<path fill-rule="nonzero" fill="rgb(0%, 0%, 0%)" fill-opacity="1" d="M 1618.660156 1583.171875 C 1612.789062 1586.640625 1605.21875 1584.691406 1601.75 1578.820312 C 1598.28125 1572.949219 1600.230469 1565.378906 1606.101562 1561.910156 C 1627.058594 1549.449219 1642.640625 1530.800781 1651.421875 1509.378906 C 1660.199219 1487.949219 1662.191406 1463.71875 1656 1440.101562 C 1650.070312 1417.5 1637.308594 1398.078125 1620.269531 1383.878906 C 1608.308594 1373.910156 1594.230469 1366.5 1578.910156 1362.339844 C 1588.980469 1391.019531 1594.140625 1421.730469 1590.589844 1455.519531 C 1585.828125 1500.699219 1565.421875 1550.878906 1520.089844 1608.269531 C 1513.371094 1616.769531 1507.78125 1624.179688 1503.261719 1630.691406 C 1543.460938 1632.769531 1582.390625 1635.699219 1620.050781 1639.480469 C 1658.378906 1643.335938 1695.308594 1648.046875 1730.839844 1653.621094 C 1730.28125 1644.183594 1730.878906 1634.730469 1732.621094 1625.480469 C 1735.421875 1610.519531 1741.191406 1596.121094 1749.75 1583.191406 C 1756.941406 1572.320312 1765.859375 1562.871094 1776.050781 1555.128906 C 1761.640625 1554.738281 1747.230469 1554.769531 1732.828125 1555.230469 C 1703.210938 1556.160156 1673.671875 1558.859375 1644.371094 1563.320312 C 1636.761719 1570.828125 1628.160156 1577.519531 1618.660156 1583.171875 Z M 1237.941406 1606.460938 C 1243.019531 1608.539062 1248.410156 1610.171875 1254.148438 1611.289062 C 1260.039062 1612.449219 1266.339844 1613.050781 1273.070312 1613.050781 L 1367.421875 1613.050781 C 1374.738281 1613.050781 1381.539062 1612.339844 1387.851562 1610.988281 C 1393.039062 1609.890625 1397.921875 1608.371094 1402.53125 1606.5 C 1404.878906 1602.820312 1407.058594 1599.378906 1408.800781 1596.558594 C 1418.628906 1580.710938 1427.050781 1564.710938 1433.980469 1548.011719 C 1440.871094 1531.410156 1446.21875 1514.261719 1449.910156 1496.039062 C 1451.238281 1489.371094 1457.730469 1485.039062 1464.398438 1486.378906 C 1471.070312 1487.710938 1475.398438 1494.199219 1474.058594 1500.871094 C 1470 1520.941406 1464.199219 1539.609375 1456.78125 1557.480469 C 1449.410156 1575.261719 1440.359375 1592.410156 1429.769531 1609.511719 C 1425.25 1616.800781 1421.71875 1622.308594 1418.230469 1627.75 C 1408.378906 1643.09375 1398.78125 1658.046875 1392.570312 1671.382812 C 1385.050781 1687.519531 1383.171875 1700.789062 1395.230469 1707.78125 C 1422.359375 1708.191406 1444.511719 1708.496094 1469.539062 1708.496094 C 1480.410156 1708.496094 1491.859375 1708.433594 1504.550781 1708.300781 C 1494.011719 1703.605469 1485.488281 1699.019531 1478.960938 1693.867188 C 1451.398438 1672.097656 1457.359375 1647.941406 1500.761719 1593 C 1542.871094 1539.699219 1561.75 1493.808594 1566.039062 1453.011719 C 1570 1415.441406 1561.53125 1381.738281 1547.5 1350.320312 C 1542.949219 1347.21875 1540.890625 1341.328125 1542.851562 1335.921875 L 1620.230469 1124.449219 C 1622.71875 1117.660156 1623.871094 1110.890625 1623.871094 1104.25 C 1623.871094 1086.371094 1615.378906 1069.261719 1601.921875 1054.699219 C 1587.761719 1039.390625 1568.25 1026.960938 1547.121094 1019.230469 C 1532.230469 1013.78125 1516.589844 1010.71875 1501.53125 1010.71875 L 1138.960938 1010.71875 C 1123.898438 1010.71875 1108.261719 1013.78125 1093.371094 1019.230469 C 1072.25 1026.960938 1052.730469 1039.390625 1038.578125 1054.699219 C 1025.109375 1069.261719 1016.621094 1086.371094 1016.621094 1104.25 C 1016.621094 1110.890625 1017.769531 1117.660156 1020.261719 1124.449219 L 1096.800781 1333.621094 C 1098.058594 1337.089844 1097.660156 1340.75 1096.019531 1343.75 C 1080.210938 1377.039062 1070.21875 1412.808594 1074.449219 1453.011719 C 1078.738281 1493.808594 1097.621094 1539.710938 1139.730469 1593 C 1183.128906 1647.941406 1189.089844 1672.097656 1161.53125 1693.867188 C 1155.011719 1699.019531 1146.480469 1703.605469 1135.941406 1708.300781 C 1148.628906 1708.4375 1160.078125 1708.496094 1170.949219 1708.496094 C 1195.980469 1708.496094 1218.128906 1708.191406 1245.269531 1707.78125 C 1257.320312 1700.789062 1255.441406 1687.519531 1247.921875 1671.382812 C 1241.710938 1658.046875 1232.109375 1643.09375 1222.269531 1627.75 C 1218.769531 1622.308594 1215.238281 1616.800781 1210.71875 1609.511719 C 1200.128906 1592.410156 1191.078125 1575.261719 1183.710938 1557.480469 C 1176.289062 1539.609375 1170.488281 1520.941406 1166.429688 1500.871094 C 1165.089844 1494.199219 1169.421875 1487.710938 1176.089844 1486.378906 C 1182.761719 1485.039062 1189.25 1489.371094 1190.578125 1496.039062 C 1194.28125 1514.261719 1199.621094 1531.410156 1206.511719 1548.011719 C 1213.441406 1564.710938 1221.859375 1580.710938 1231.691406 1596.558594 C 1233.429688 1599.371094 1235.601562 1602.789062 1237.941406 1606.460938 Z M 1383.351562 1636.789062 C 1378.199219 1637.449219 1372.898438 1637.789062 1367.421875 1637.789062 L 1273.070312 1637.789062 C 1267.589844 1637.789062 1262.28125 1637.449219 1257.140625 1636.789062 C 1262.171875 1645.101562 1266.730469 1653.195312 1270.339844 1660.945312 C 1284.378906 1691.085938 1285.53125 1716.417969 1253.660156 1731.265625 L 1253.640625 1731.230469 C 1252.101562 1731.945312 1250.390625 1732.355469 1248.578125 1732.378906 C 1220.050781 1732.8125 1197.179688 1733.140625 1170.949219 1733.136719 C 1144.871094 1733.132812 1115.679688 1732.800781 1074.671875 1731.929688 C 1069.539062 1732.152344 1064.601562 1729.136719 1062.628906 1724.085938 C 1060.148438 1717.734375 1063.28125 1710.574219 1069.628906 1708.09375 C 1072.648438 1706.90625 1082.019531 1703.300781 1090.78125 1699.929688 C 1117.191406 1689.757812 1136.328125 1682.394531 1146.261719 1674.542969 C 1152.171875 1669.878906 1153.859375 1663.894531 1150.71875 1654.714844 C 1106.570312 1656.796875 1063.949219 1659.902344 1022.859375 1664.027344 C 979.371094 1668.394531 937.480469 1673.933594 897.191406 1680.640625 C 890.46875 1681.761719 884.109375 1677.21875 882.988281 1670.496094 C 882.722656 1668.90625 882.773438 1667.34375 883.097656 1665.859375 L 883.085938 1665.855469 C 885.683594 1653.910156 885.816406 1641.726562 883.621094 1630.019531 C 881.425781 1618.289062 876.890625 1606.980469 870.160156 1596.820312 C 863.4375 1586.660156 854.804688 1578.078125 844.867188 1571.480469 C 834.902344 1564.851562 823.640625 1560.210938 811.691406 1557.949219 C 804.996094 1556.699219 800.585938 1550.25 801.839844 1543.550781 C 802.917969 1537.78125 807.851562 1533.710938 813.480469 1533.488281 C 845.085938 1530.558594 876.796875 1529.589844 908.433594 1530.589844 C 930.519531 1531.28125 952.582031 1532.929688 974.558594 1535.539062 C 971.40625 1530.140625 968.636719 1524.53125 966.269531 1518.75 C 955.5 1492.480469 953.050781 1462.808594 960.628906 1433.921875 C 967.898438 1406.191406 983.554688 1382.378906 1004.46875 1364.941406 C 1023.230469 1349.300781 1046.191406 1338.789062 1071.109375 1335.191406 L 997.066406 1132.859375 C 993.523438 1123.179688 991.882812 1113.601562 991.882812 1104.25 C 991.882812 1079.789062 1002.960938 1056.960938 1020.511719 1037.988281 C 1037.359375 1019.761719 1060.308594 1005.058594 1084.960938 996.039062 C 1102.558594 989.589844 1121.089844 985.988281 1138.960938 985.988281 L 1501.53125 985.988281 C 1519.398438 985.988281 1537.929688 989.589844 1555.53125 996.039062 C 1580.179688 1005.058594 1603.128906 1019.761719 1619.988281 1037.988281 C 1637.53125 1056.960938 1648.609375 1079.789062 1648.609375 1104.25 C 1648.609375 1113.601562 1646.960938 1123.179688 1643.421875 1132.859375 L 1569.378906 1335.191406 C 1594.300781 1338.789062 1617.269531 1349.300781 1636.019531 1364.941406 C 1656.941406 1382.378906 1672.589844 1406.191406 1679.859375 1433.921875 C 1687.441406 1462.808594 1684.988281 1492.480469 1674.21875 1518.75 C 1671.851562 1524.53125 1669.078125 1530.140625 1665.929688 1535.539062 C 1687.910156 1532.929688 1709.96875 1531.28125 1732.058594 1530.589844 C 1763.691406 1529.589844 1795.410156 1530.558594 1827.011719 1533.488281 C 1832.640625 1533.710938 1837.570312 1537.78125 1838.648438 1543.550781 C 1839.910156 1550.25 1835.488281 1556.699219 1828.800781 1557.949219 C 1816.851562 1560.210938 1805.589844 1564.851562 1795.621094 1571.480469 C 1785.691406 1578.078125 1777.050781 1586.660156 1770.328125 1596.820312 C 1763.601562 1606.980469 1759.070312 1618.289062 1756.871094 1630.019531 C 1754.671875 1641.726562 1754.808594 1653.910156 1757.410156 1665.855469 L 1757.390625 1665.859375 C 1757.71875 1667.34375 1757.769531 1668.90625 1757.5 1670.496094 C 1756.378906 1677.21875 1750.019531 1681.761719 1743.300781 1680.640625 C 1703.011719 1673.933594 1661.121094 1668.394531 1617.628906 1664.027344 C 1576.539062 1659.902344 1533.921875 1656.796875 1489.769531 1654.714844 C 1486.628906 1663.898438 1488.320312 1669.878906 1494.230469 1674.542969 C 1504.171875 1682.394531 1523.300781 1689.757812 1549.71875 1699.929688 C 1558.46875 1703.296875 1567.839844 1706.90625 1570.859375 1708.09375 C 1577.210938 1710.574219 1580.339844 1717.734375 1577.859375 1724.085938 C 1575.890625 1729.136719 1570.949219 1732.152344 1565.820312 1731.929688 C 1524.808594 1732.800781 1495.621094 1733.132812 1469.539062 1733.136719 C 1443.320312 1733.140625 1420.441406 1732.8125 1391.910156 1732.378906 C 1390.101562 1732.355469 1388.390625 1731.945312 1386.851562 1731.230469 L 1386.828125 1731.265625 C 1354.960938 1716.417969 1356.109375 1691.085938 1370.148438 1660.945312 C 1373.761719 1653.191406 1378.320312 1645.101562 1383.351562 1636.789062 Z M 996.121094 1563.320312 C 966.820312 1558.859375 937.277344 1556.160156 907.660156 1555.230469 C 893.261719 1554.769531 878.847656 1554.738281 864.441406 1555.128906 C 874.628906 1562.871094 883.546875 1572.320312 890.742188 1583.191406 C 899.300781 1596.121094 905.070312 1610.519531 907.875 1625.480469 C 909.609375 1634.730469 910.214844 1644.183594 909.648438 1653.621094 C 945.179688 1648.046875 982.113281 1643.335938 1020.441406 1639.480469 C 1058.101562 1635.699219 1097.03125 1632.769531 1137.230469 1630.691406 C 1132.710938 1624.179688 1127.121094 1616.769531 1120.398438 1608.269531 C 1075.070312 1550.878906 1054.660156 1500.699219 1049.898438 1455.519531 C 1046.351562 1421.730469 1051.519531 1391.019531 1061.578125 1362.339844 C 1046.261719 1366.5 1032.179688 1373.910156 1020.21875 1383.878906 C 1003.179688 1398.078125 990.421875 1417.5 984.492188 1440.101562 C 978.296875 1463.71875 980.289062 1487.949219 989.074219 1509.378906 C 997.855469 1530.800781 1013.429688 1549.449219 1034.390625 1561.910156 C 1040.261719 1565.378906 1042.210938 1572.949219 1038.738281 1578.820312 C 1035.269531 1584.691406 1027.699219 1586.640625 1021.828125 1583.171875 C 1012.328125 1577.519531 1003.730469 1570.828125 996.121094 1563.320312 "/>
<path fill-rule="evenodd" fill="rgb(69.726562%, 92.576599%, 69.726562%)" fill-opacity="1" d="M 1500.761719 1593 C 1542.871094 1539.699219 1561.75 1493.808594 1566.039062 1453.011719 C 1570 1415.441406 1561.53125 1381.738281 1547.5 1350.320312 C 1542.949219 1347.21875 1540.890625 1341.328125 1542.851562 1335.921875 L 1620.230469 1124.449219 C 1622.71875 1117.660156 1623.871094 1110.890625 1623.871094 1104.25 C 1623.871094 1086.371094 1615.378906 1069.261719 1601.921875 1054.699219 C 1587.761719 1039.390625 1568.25 1026.960938 1547.121094 1019.230469 C 1532.230469 1013.78125 1516.589844 1010.71875 1501.53125 1010.71875 L 1138.960938 1010.71875 C 1123.898438 1010.71875 1108.261719 1013.78125 1093.371094 1019.230469 C 1072.25 1026.960938 1052.730469 1039.390625 1038.578125 1054.699219 C 1025.109375 1069.261719 1016.621094 1086.371094 1016.621094 1104.25 C 1016.621094 1110.890625 1017.769531 1117.660156 1020.261719 1124.449219 L 1096.800781 1333.621094 C 1098.058594 1337.089844 1097.660156 1340.75 1096.019531 1343.75 C 1080.210938 1377.039062 1070.21875 1412.808594 1074.449219 1453.011719 C 1078.738281 1493.808594 1097.621094 1539.710938 1139.730469 1593 C 1183.128906 1647.941406 1189.089844 1672.097656 1161.53125 1693.867188 C 1155.011719 1699.019531 1146.480469 1703.605469 1135.941406 1708.300781 C 1148.628906 1708.4375 1160.078125 1708.496094 1170.949219 1708.496094 C 1195.980469 1708.496094 1218.128906 1708.191406 1245.269531 1707.78125 C 1257.320312 1700.789062 1255.441406 1687.519531 1247.921875 1671.382812 C 1241.710938 1658.046875 1232.109375 1643.09375 1222.269531 1627.75 C 1218.769531 1622.308594 1215.238281 1616.800781 1210.71875 1609.511719 C 1200.128906 1592.410156 1191.078125 1575.261719 1183.710938 1557.480469 C 1176.289062 1539.609375 1170.488281 1520.941406 1166.429688 1500.871094 C 1165.089844 1494.199219 1169.421875 1487.710938 1176.089844 1486.378906 C 1182.761719 1485.039062 1189.25 1489.371094 1190.578125 1496.039062 C 1194.28125 1514.261719 1199.621094 1531.410156 1206.511719 1548.011719 C 1213.441406 1564.710938 1221.859375 1580.710938 1231.691406 1596.558594 C 1233.429688 1599.371094 1235.601562 1602.789062 1237.941406 1606.460938 C 1243.019531 1608.539062 1248.410156 1610.171875 1254.148438 1611.289062 C 1260.039062 1612.449219 1266.339844 1613.050781 1273.070312 1613.050781 L 1367.421875 1613.050781 C 1374.738281 1613.050781 1381.539062 1612.339844 1387.851562 1610.988281 C 1393.039062 1609.890625 1397.921875 1608.371094 1402.53125 1606.5 C 1404.878906 1602.820312 1407.058594 1599.378906 1408.800781 1596.558594 C 1418.628906 1580.710938 1427.050781 1564.710938 1433.980469 1548.011719 C 1440.871094 1531.410156 1446.21875 1514.261719 1449.910156 1496.039062 C 1451.238281 1489.371094 1457.730469 1485.039062 1464.398438 1486.378906 C 1471.070312 1487.710938 1475.398438 1494.199219 1474.058594 1500.871094 C 1470 1520.941406 1464.199219 1539.609375 1456.78125 1557.480469 C 1449.410156 1575.261719 1440.359375 1592.410156 1429.769531 1609.511719 C 1425.25 1616.800781 1421.71875 1622.308594 1418.230469 1627.75 C 1408.378906 1643.09375 1398.78125 1658.046875 1392.570312 1671.382812 C 1385.050781 1687.519531 1383.171875 1700.789062 1395.230469 1707.78125 C 1422.359375 1708.191406 1444.511719 1708.496094 1469.539062 1708.496094 C 1480.410156 1708.496094 1491.859375 1708.433594 1504.550781 1708.300781 C 1494.011719 1703.605469 1485.488281 1699.019531 1478.960938 1693.867188 C 1451.398438 1672.097656 1457.359375 1647.941406 1500.761719 1593 Z M 1520.089844 1608.269531 C 1513.371094 1616.769531 1507.78125 1624.179688 1503.261719 1630.691406 C 1543.460938 1632.769531 1582.390625 1635.699219 1620.050781 1639.480469 C 1658.378906 1643.335938 1695.308594 1648.046875 1730.839844 1653.621094 C 1730.28125 1644.183594 1730.878906 1634.730469 1732.621094 1625.480469 C 1735.421875 1610.519531 1741.191406 1596.121094 1749.75 1583.191406 C 1756.941406 1572.320312 1765.859375 1562.871094 1776.050781 1555.128906 C 1761.640625 1554.738281 1747.230469 1554.769531 1732.828125 1555.230469 C 1703.210938 1556.160156 1673.671875 1558.859375 1644.371094 1563.320312 C 1636.761719 1570.828125 1628.160156 1577.519531 1618.660156 1583.171875 C 1612.789062 1586.640625 1605.21875 1584.691406 1601.75 1578.820312 C 1598.28125 1572.949219 1600.230469 1565.378906 1606.101562 1561.910156 C 1627.058594 1549.449219 1642.640625 1530.800781 1651.421875 1509.378906 C 1660.199219 1487.949219 1662.191406 1463.71875 1656 1440.101562 C 1650.070312 1417.5 1637.308594 1398.078125 1620.269531 1383.878906 C 1608.308594 1373.910156 1594.230469 1366.5 1578.910156 1362.339844 C 1588.980469 1391.019531 1594.140625 1421.730469 1590.589844 1455.519531 C 1585.828125 1500.699219 1565.421875 1550.878906 1520.089844 1608.269531 Z M 1137.230469 1630.691406 C 1132.710938 1624.179688 1127.121094 1616.769531 1120.398438 1608.269531 C 1075.070312 1550.878906 1054.660156 1500.699219 1049.898438 1455.519531 C 1046.351562 1421.730469 1051.519531 1391.019531 1061.578125 1362.339844 C 1046.261719 1366.5 1032.179688 1373.910156 1020.21875 1383.878906 C 1003.179688 1398.078125 990.421875 1417.5 984.492188 1440.101562 C 978.296875 1463.71875 980.289062 1487.949219 989.074219 1509.378906 C 997.855469 1530.800781 1013.429688 1549.449219 1034.390625 1561.910156 C 1040.261719 1565.378906 1042.210938 1572.949219 1038.738281 1578.820312 C 1035.269531 1584.691406 1027.699219 1586.640625 1021.828125 1583.171875 C 1012.328125 1577.519531 1003.730469 1570.828125 996.121094 1563.320312 C 966.820312 1558.859375 937.277344 1556.160156 907.660156 1555.230469 C 893.261719 1554.769531 878.847656 1554.738281 864.441406 1555.128906 C 874.628906 1562.871094 883.546875 1572.320312 890.742188 1583.191406 C 899.300781 1596.121094 905.070312 1610.519531 907.875 1625.480469 C 909.609375 1634.730469 910.214844 1644.183594 909.648438 1653.621094 C 945.179688 1648.046875 982.113281 1643.335938 1020.441406 1639.480469 C 1058.101562 1635.699219 1097.03125 1632.769531 1137.230469 1630.691406 "/>
<path fill-rule="evenodd" fill="rgb(0%, 0%, 0%)" fill-opacity="1" d="M 1118.039062 858.851562 C 1194.140625 870.039062 1244.53125 955.910156 1230.601562 1050.640625 C 1216.660156 1145.371094 1143.679688 1213.089844 1067.578125 1201.898438 C 991.476562 1190.710938 941.078125 1104.839844 955.011719 1010.109375 C 968.945312 915.378906 1041.929688 847.660156 1118.039062 858.851562 "/>
<path fill-rule="evenodd" fill="rgb(100%, 100%, 100%)" fill-opacity="1" d="M 1119.050781 888.578125 C 1181.960938 897.828125 1223.621094 968.820312 1212.101562 1047.128906 C 1200.589844 1125.441406 1140.25 1181.421875 1077.339844 1172.171875 C 1014.429688 1162.921875 972.769531 1091.929688 984.289062 1013.621094 C 987.949219 988.730469 996.542969 966.109375 1008.578125 947.109375 C 1000.808594 961.671875 995.234375 978.238281 992.601562 996.148438 C 982.566406 1064.359375 1018.851562 1126.179688 1073.648438 1134.238281 C 1128.441406 1142.300781 1180.988281 1093.539062 1191.019531 1025.339844 C 1200.78125 958.96875 1166.691406 898.660156 1114.378906 888.019531 C 1115.929688 888.171875 1117.488281 888.351562 1119.050781 888.578125 "/>
<path fill-rule="evenodd" fill="rgb(100%, 100%, 100%)" fill-opacity="1" d="M 1075.351562 899.671875 C 1093.570312 902.359375 1105.640625 922.921875 1102.300781 945.601562 C 1098.960938 968.289062 1081.488281 984.511719 1063.261719 981.820312 C 1045.039062 979.140625 1032.96875 958.578125 1036.308594 935.898438 C 1039.640625 913.210938 1057.121094 896.988281 1075.351562 899.671875 "/>
<path fill-rule="evenodd" fill="rgb(0%, 0%, 0%)" fill-opacity="1" d="M 1522.460938 858.851562 C 1446.359375 870.039062 1395.960938 955.910156 1409.890625 1050.640625 C 1423.828125 1145.371094 1496.808594 1213.089844 1572.910156 1201.898438 C 1649.011719 1190.710938 1699.410156 1104.839844 1685.480469 1010.109375 C 1671.539062 915.378906 1598.558594 847.660156 1522.460938 858.851562 "/>
<path fill-rule="evenodd" fill="rgb(100%, 100%, 100%)" fill-opacity="1" d="M 1521.441406 888.578125 C 1458.53125 897.828125 1416.871094 968.820312 1428.390625 1047.128906 C 1439.910156 1125.441406 1500.238281 1181.421875 1563.148438 1172.171875 C 1626.058594 1162.921875 1667.71875 1091.929688 1656.199219 1013.621094 C 1652.539062 988.730469 1643.949219 966.109375 1631.910156 947.109375 C 1639.679688 961.671875 1645.261719 978.238281 1647.890625 996.148438 C 1657.921875 1064.359375 1621.640625 1126.179688 1566.839844 1134.238281 C 1512.050781 1142.300781 1459.5 1093.539062 1449.46875 1025.339844 C 1439.710938 958.96875 1473.800781 898.660156 1526.109375 888.019531 C 1524.558594 888.171875 1523 888.351562 1521.441406 888.578125 "/>
<path fill-rule="evenodd" fill="rgb(100%, 100%, 100%)" fill-opacity="1" d="M 1565.140625 899.671875 C 1546.921875 902.359375 1534.851562 922.921875 1538.191406 945.601562 C 1541.53125 968.289062 1559 984.511719 1577.230469 981.820312 C 1595.449219 979.140625 1607.519531 958.578125 1604.179688 935.898438 C 1600.851562 913.210938 1583.371094 896.988281 1565.140625 899.671875 "/>
<path fill-rule="nonzero" fill="rgb(0%, 0%, 0%)" fill-opacity="1" d="M 1214.828125 1175.359375 C 1211.730469 1169.28125 1214.160156 1161.839844 1220.238281 1158.738281 C 1226.320312 1155.648438 1233.761719 1158.070312 1236.859375 1164.148438 C 1243.808594 1177.820312 1254.261719 1188.929688 1266.789062 1196.609375 C 1279.328125 1204.308594 1293.988281 1208.601562 1309.328125 1208.601562 C 1324.660156 1208.601562 1339.328125 1204.308594 1351.871094 1196.609375 C 1364.398438 1188.929688 1374.851562 1177.820312 1381.800781 1164.148438 C 1384.890625 1158.070312 1392.328125 1155.648438 1398.421875 1158.738281 C 1404.5 1161.839844 1406.921875 1169.28125 1403.828125 1175.359375 C 1394.800781 1193.121094 1381.140625 1207.609375 1364.71875 1217.679688 C 1348.328125 1227.730469 1329.238281 1233.339844 1309.328125 1233.339844 C 1289.421875 1233.339844 1270.320312 1227.730469 1253.929688 1217.679688 C 1237.519531 1207.609375 1223.859375 1193.121094 1214.828125 1175.359375 "/>
<path fill-rule="evenodd" fill="rgb(87.109375%, 96.875%, 87.109375%)" fill-opacity="1" d="M 1408.800781 1596.558594 C 1418.628906 1580.710938 1427.050781 1564.710938 1433.980469 1548.011719 C 1440.871094 1531.410156 1446.21875 1514.261719 1449.910156 1496.039062 C 1450.550781 1492.800781 1452.421875 1490.109375 1454.929688 1488.359375 C 1459.921875 1438.851562 1437.339844 1390.308594 1395.761719 1362.300781 C 1352.210938 1332.96875 1295.648438 1331.410156 1250.558594 1358.300781 C 1205.460938 1385.179688 1179.941406 1435.679688 1185.03125 1487.929688 C 1185.019531 1487.949219 1185 1487.960938 1184.988281 1487.980469 C 1187.789062 1489.710938 1189.890625 1492.558594 1190.578125 1496.039062 C 1194.28125 1514.261719 1199.621094 1531.410156 1206.511719 1548.011719 C 1213.441406 1564.710938 1221.859375 1580.710938 1231.691406 1596.558594 C 1233.429688 1599.371094 1235.601562 1602.789062 1237.941406 1606.460938 C 1243.019531 1608.539062 1248.410156 1610.171875 1254.148438 1611.289062 C 1260.039062 1612.449219 1266.339844 1613.050781 1273.070312 1613.050781 L 1367.421875 1613.050781 C 1374.738281 1613.050781 1381.539062 1612.339844 1387.851562 1610.988281 C 1393.039062 1609.890625 1397.921875 1608.371094 1402.53125 1606.5 C 1404.878906 1602.820312 1407.058594 1599.378906 1408.800781 1596.558594 "/>
</svg>
