<?xml version="1.0" encoding="utf-8"?>
<!-- Generator: Adobe Illustrator 19.0.0, SVG Export Plug-In . SVG Version: 6.00 Build 0)  -->
<svg version="1.1" id="Layer_1" xmlns="http://www.w3.org/2000/svg" xmlns:xlink="http://www.w3.org/1999/xlink" x="0px" y="0px"
	 viewBox="0 0 1400 980" style="enable-background:new 0 0 1400 980;" xml:space="preserve">
<style type="text/css">
	.st0{fill:#6D7D35;}
	.st1{fill:#425425;}
	.st2{fill:#A4CE3B;}
</style>
<g>
	<path class="st0" d="M555.4,321.1c-4.1,0-7.6,2-9.3,4.8c-13.4,2-50.6,9.4-50.6,9.4s34.6-25.9,46.5-37.9c0.7,0.2,1.4,0.3,2.2,0.3
		c4.5,0,8.2-3.1,8.2-6.8c0-3.7-3.8-6.7-8.3-6.7c-4.3,0-7.8,2.8-8.1,6.2c-8.1,2.6-22.6,10.9-48.3,31.8c0,0,8-22.8,8.8-35.1
		c2.3-1.2,3.8-3.3,3.7-5.7c0-3.7-3.8-6.7-8.3-6.7c-4.5,0-8.2,3.1-8.2,6.8c0,2,1.2,3.8,2.9,5c-5.3,9.8-10.3,27.2-11.9,37.4l-4.9-10.1
		c-4.4-9.1-17.7-12.7-27.8-7.5l-62,31.4l19.1-44.5c5.4-12.5,6.5-26,3.2-39l-7.5-29.8l20.4,13c9.7,1.8,19.5-2.8,22.6-10.5l1.6-4.2
		l-2.1-46.3c0,0,22.7-9.6,33.3-16.8c1.1,0.4,2.3,0.6,3.5,0.6c4.5,0,8.2-3.1,8.2-6.8s-3.8-6.7-8.3-6.7c-4.1,0-7.5,2.6-8,5.8
		c-10.3,1.8-25.2,7.3-28.3,9c-3.4,1.9,0.8-20.9-1.1-33.4c1.9-1.3,3.1-3.1,3-5.3c0-3.7-3.8-6.7-8.3-6.7c-4.5,0-8.2,3.1-8.2,6.8
		c0,1.8,0.9,3.4,2.3,4.6c-0.6,7.2,1.5,18.8-0.1,30c0.3-1.9-8.4-16-15.5-23.3c1.2-1.2,2-2.7,2-4.4c0-3.7-3.8-6.7-8.3-6.7
		c-4.5,0-8.2,3.1-8.2,6.8c0,3.4,3.2,6.2,7.2,6.6c2.8,9.7,12.3,26.5,12.3,28.1c0,2.1-2.7,36.2-2.7,36.2l-22.2-37.2
		c0,0,1.8-12.2-1.7-15.3c-3.5-3.1-23.6-5.7-23.6-5.7l-12.2-8.5c-4.4-3.1-9.9-4.6-15.3-4.5c-5.4,0.1-10.9,1.7-15.2,4.9l-12,8.8
		c0,0-20,3.1-23.4,6.2c-3.4,3.2-1.4,15.3-1.4,15.3l-21.4,37.6c0,0-3.5-34-3.5-36.1c0-1.5,9-18.6,11.7-28.3c4-0.5,7.1-3.3,7-6.7
		c0-3.7-3.8-6.7-8.3-6.7c-4.5,0-8.2,3.1-8.2,6.8c0,1.7,0.8,3.2,2.1,4.4c-6.9,7.5-15.3,21.8-14.9,23.7c-1.8-11.2,0-22.8-0.7-30
		c1.4-1.2,2.2-2.9,2.2-4.7c0-3.7-3.8-6.7-8.3-6.7c-4.5,0-8.2,3.1-8.2,6.8c0,2.1,1.3,4,3.2,5.2c-1.6,12.5,3,35.2-0.4,33.4
		c-3.1-1.7-18.1-6.8-28.5-8.4c-0.7-3.2-4.1-5.6-8.2-5.6c-4.5,0-8.2,3.1-8.2,6.8c0,3.7,3.8,6.7,8.3,6.7c1.3,0,2.4-0.3,3.5-0.7
		c10.8,7,33.7,16.1,33.7,16.1l-1,46.3l1.7,4.1c3.2,7.7,13.1,12.1,22.8,10l20.1-13.4l-6.8,29.9c-3,13-1.6,26.5,4.1,38.9l20.1,44.1
		l-62.7-30.1c-10.3-4.9-23.5-1-27.6,8.1l-4.7,10.2c-1.8-10.2-7.2-27.5-12.7-37.2c1.7-1.3,2.8-3.1,2.8-5.1c0-3.7-3.8-6.7-8.3-6.7
		c-4.5,0-8.2,3.1-8.2,6.8c0,2.4,1.6,4.5,3.9,5.6c1.1,12.3,9.6,34.9,9.6,34.9c-26.2-20.3-40.8-28.3-49-30.7c-0.4-3.4-3.9-6.1-8.2-6.1
		c-4.5,0-8.2,3.1-8.2,6.8c0,3.7,3.8,6.7,8.3,6.7c0.8,0,1.5-0.1,2.2-0.3c12.1,11.7,47.3,36.9,47.3,36.9s-37.4-6.6-50.8-8.3
		c-1.8-2.8-5.3-4.7-9.4-4.6c-5.8,0.1-10.5,4-10.5,8.8c0.1,4.8,4.8,8.6,10.7,8.5c2.3,0,4.3-0.6,6-1.6c14.5,4.9,61.4,10.8,61.4,10.8
		c20.7,27.8,44.9,44.2,64.3,53.8c12.5,6.1,27-5,20.5-15.6C270,381.1,264,372.4,260,369c-0.5-0.4-0.9-0.8-1.3-1.4
		c-2.4-3.8,3.4-7.6,7.7-5.2c13.9,8,30.9,16.3,45.1,22.9c8.9,4.1,18.8,6.2,28.6,6c9.9-0.1,19.7-2.3,28.5-6.7
		c14-6.9,30.8-15.6,44.6-23.9c4.2-2.5,10.1,1.2,7.8,5c-0.4,0.6-0.8,1-1.3,1.4c-3.9,3.5-9.7,12.4-15.2,21.8
		c-6.3,10.8,8.5,21.6,20.8,15.2c19.3-10,43-27,63.1-55.2c0,0,46.7-7,61.1-12.1c1.7,1,3.8,1.5,6.1,1.5c5.8-0.1,10.5-4,10.5-8.8
		C566,324.8,561.2,321,555.4,321.1z"/>
	<path class="st1" d="M850.3,309.1l-21.6,10.7c0,0,22.9-23.8,19.9-29.5s-7.8-6.2-7.8-6.2l-14.3,19c0,0,12.7-27.9,9.8-28.4
		c-2.9-0.5-5.3-2-5.8,0.6c-0.5,2.6-10.4,21.6-10.4,21.6L805,316.4c0,0,4.1-21.5-2.2-21.4c-6.3,0.1-26.6,33.2-26.6,33.2
		s17.5-30.9,20.2-68.9c0.7-9.5-2.4-19.6-5.9-29.5l10.9,4.7c5,2.1,10.5,2,15.3-0.5h0c9-4.6,13.2-15.9,9.7-26l-15.3-27.8
		c0,0,13.4-28.9,10.6-30.9c-2.8-2-6.6,2.2-8.2,5c-1.6,2.8-7.7,19-7.7,19s0.3-30.4-3.4-30.4c-3.7,0-3.8,27.3-4.1,28.3
		c-0.3,1-12.8-18.1-13.3-20c-0.5-2-3,3.5-2,7.4c0.9,3.9,10,19.1,10,19.1l4.7,16.6c1.5,5.3-3.8,9.7-8.2,6.9c-2.7-1.8-5.5-3.6-8-5.3
		c-0.4-19-7.5-52.7-25.8-63.4c-18.4-10.8-16.1-15-32-14.8c-15.9,0.2-13.5,4.3-31.7,15.5c-18,11.1-24.4,45-24.4,63.9
		c-2.5,1.7-5.3,3.6-7.9,5.5c-4.3,3-9.7-1.4-8.3-6.7l4.3-16.7c0,0,8.8-15.3,9.6-19.3c0.8-4-1.8-9.4-2.2-7.4
		c-0.4,2-12.6,21.3-12.9,20.3c-0.3-1-1-28.2-4.7-28.2c-3.7,0-2.8,30.4-2.8,30.4s-6.5-16.1-8.1-18.8c-1.7-2.7-5.6-6.9-8.3-4.8
		c-2.8,2.1,11.2,30.7,11.2,30.7l-14.7,28.1c-3.3,10.2,1.2,21.4,10.3,25.8h0c4.9,2.4,10.4,2.4,15.3,0.2l10.8-5
		c-3.3,10-6.1,20.2-5.2,29.6c3.6,38,21.7,68.5,21.7,68.5s-21.1-32.7-27.3-32.6c-6.3,0.1-1.7,21.5-1.7,21.5L631.2,299
		c0,0-10.3-18.7-10.8-21.3c-0.5-2.6-2.9-1-5.8-0.5c-2.9,0.6,10.4,28.1,10.4,28.1l-14.7-18.7c0,0-4.8,0.6-7.6,6.4
		c-2.8,5.8,20.6,29.1,20.6,29.1l-21.8-10.2c0,0-11.6,0.6-11.5,4.8c0,4.2,35.9,18.4,35.9,18.4s43.1,63.3,55.7,67.4
		c12.6,4,14.3-13.8,14.3-13.8c6.9,9.3,30.9,5.9,30.9,5.9s24.1,2.9,30.8-6.6c0,0,2.1,17.8,14.6,13.4c12.5-4.3,54.2-68.6,54.2-68.6
		s35.5-15,35.5-19.2C861.8,309.5,850.3,309.1,850.3,309.1z"/>
	<path class="st2" d="M1282.4,344.7c-3.7-1.7-7.7-0.8-9.5,2c-8-1.2-23.7-0.1-54.2,7c0,0,16.2-16.1,22-26.2c2.4-0.1,4.6-1.3,5.5-3.3
		c1.5-3.2-0.4-7.3-4.3-9.1c-3.9-1.8-8.3-0.7-9.8,2.4c-0.8,1.7-0.6,3.7,0.4,5.5c-21.6,25.5-35.2,34.2-46.2,38.6
		c-3.7,1.5,11.4-42.2,11.4-42.2c3.6-3.8,6-19-17.2-18.2c-23.2,0.7-59.8,21.2-59.8,21.2l10.2-52.3c5.1-11.8,6.1-24.6,3-36.8
		l-7.1-28.1c0,0,23.9,12,31.1,8.8l3.9-1.7l32.9-36.6c0,0,23.1-2.9,34.6-6.7c0.9,0.6,1.9,1.2,3,1.5c4.1,1.1,8.3-0.7,9.2-4.1
		c0.9-3.4-1.7-7.1-5.8-8.2c-3.7-1-7.4,0.4-8.8,3.2c-9.8-1-24.8,0.1-28,0.9c-3.6,0.9,6.1-18.8,7.5-30.6c2-0.7,3.6-2.1,4.1-4
		c0.9-3.4-1.7-7.1-5.8-8.2c-4.1-1.1-8.3,0.7-9.2,4.1c-0.4,1.6-0.1,3.3,0.9,4.8c-2.4,6.4-3.5,17.5-7.8,27.3
		c0.7-1.7-3.6-16.7-8.1-25.2c1.4-0.8,2.5-2,3-3.5c0.9-3.4-1.7-7.1-5.8-8.2c-4.1-1.1-8.3,0.7-9.2,4.1c-0.8,3.1,1.3,6.4,4.8,7.8
		c0.1,9.5,4.3,27.3,3.9,28.7c-0.5,1.9-25.2,21.3-25.2,21.3l-29.9-32.8c0,0,1.7-11.5-1.6-14.4c-3.3-2.9-22.3-5.4-22.3-5.4l-11.5-8
		c-4.2-2.9-9.3-4.3-14.4-4.3c-5.1,0.1-10.3,1.6-14.3,4.6l-11.3,8.3c0,0-18.9,2.9-22.1,5.9c-3.2,3-1.3,14.5-1.3,14.5l-29.2,33.5
		c0,0-25.1-18.8-25.7-20.7c-0.4-1.4,3.4-19.2,3.3-28.7c3.5-1.5,5.6-4.8,4.7-7.9c-1-3.4-5.1-5.1-9.3-3.9c-4.1,1.2-6.7,4.9-5.7,8.3
		c0.5,1.5,1.6,2.7,3,3.5c-4.3,8.5-8.3,23.7-7.5,25.3c-4.5-9.7-5.9-20.7-8.4-27.1c0.9-1.5,1.3-3.2,0.8-4.8c-1-3.4-5.1-5.1-9.3-3.9
		s-6.7,4.9-5.7,8.3c0.6,1.9,2.2,3.3,4.2,3.9c1.7,11.8,11.8,31.2,8.2,30.5c-3.3-0.7-18.2-1.5-28-0.3c-1.4-2.8-5.1-4.1-8.9-3
		c-4.1,1.2-6.7,4.9-5.7,8.3c1,3.4,5.1,5.1,9.3,3.9c1.1-0.3,2.1-0.9,3-1.5c11.6,3.6,34.7,5.9,34.7,5.9l33.7,35.9l3.9,1.6
		c7.3,3,30.9-9.5,30.9-9.5l-6.5,28.3c-2.8,12.3-1.5,25,3.9,36.7l11.3,52.1c0,0-37.1-19.7-60.3-19.9c-23.2-0.2-20.4,14.8-16.8,18.6
		c0,0,16.1,43.4,12.4,42c-11.1-4.2-24.8-12.5-47-37.6c0.9-1.8,1.1-3.8,0.3-5.5c-1.6-3.2-6-4.1-9.8-2.2s-5.7,6-4.1,9.2
		c1,2,3.2,3.1,5.6,3.2c6,10,22.6,25.7,22.6,25.7c-30.6-6.4-46.4-7.2-54.4-5.8c-1.8-2.7-5.9-3.6-9.5-1.7c-3.8,1.9-5.7,6-4.1,9.2
		c1.6,3.1,6,4.1,9.8,2.2c0.7-0.3,1.2-0.7,1.7-1.2c15.1,4.9,55.4,11.7,55.4,11.7s-34.5,9.9-46.6,13.9c-2.7-1.6-6.5-1.8-9.9,0
		c-4.9,2.5-7.3,7.7-5.3,11.8c2,4,7.7,5.3,12.6,2.8c1.9-1,3.4-2.3,4.4-3.9c14.4-1.9,56.6-16.2,56.6-16.2c29.1,15,56.4,19,76.9,19
		c13.1,0,20.9-15.4,10.9-21.8c-8.7-5.5-23.3-12-23.9-12.3c-3.6-2.2,34.8,6.8,49.6,6.6c9.2-0.1,14.5-2.7,19.1-8.5
		c4.8,5.7,10,8.2,19.3,8.1c14.8-0.1,53-9.9,49.4-7.7c-0.6,0.4-15,7.2-23.6,12.9c-9.8,6.5-1.7,21.9,11.4,21.5
		c20.5-0.5,47.7-5.1,76.4-20.7c0,0,42.5,13.4,56.9,15c1.1,1.5,2.6,2.9,4.5,3.8c5,2.4,10.6,1,12.5-3.1c1.9-4.1-0.5-9.3-5.5-11.7
		c-3.5-1.7-7.3-1.4-9.9,0.3c-12.2-3.8-46.9-12.9-46.9-12.9s40.1-7.7,55.1-13c0.5,0.4,1.1,0.8,1.8,1.1c3.9,1.8,8.3,0.7,9.8-2.4
		C1288.2,350.6,1286.3,346.6,1282.4,344.7z"/>
	<path class="st0" d="M892.4,528.8c-5.2-3.7-27.1,2.6-27.1,2.6s22.8-29.9,19.8-32.8c-3-2.8-28.3,27.9-28.3,27.9s12-31.1,7.4-34.8
		c-4.6-3.7-18.8,30-18.8,30s-9.6-12.2-14.9-12.1c-5.2,0.1,7.9,22.6,7.7,24.3c-0.2,1-6.6,15.1-11.5,26c-3.3,7.3-11.3,11.3-19.1,9.6
		l-13.8-2.9c-6-14.3-14.2-24.1-14.2-24.1c7.2-5.8-0.2-12.9-3.4-20.3c-3.2-7.4-12.3-3.9-12.3-3.9c-6.3-0.4-18.8-6.2-28-10.9
		c-7.1-3.6-15.2-3.5-22.2,0.2c-9.1,4.8-21.5,10.9-27.8,11.5c0,0-9.1-3.3-12.2,4.1c-3.1,7.5-10.3,14.7-3,20.4c0,0-8.2,10.1-13.9,24.8
		l-11.8,2.7c-7.8,1.8-15.8-2-19.3-9.2c-5.2-10.7-11.9-24.7-12.1-25.7c-0.3-1.7,12.4-24.4,7.1-24.4c-5.2,0-14.6,12.4-14.6,12.4
		s-14.9-33.4-19.4-29.6c-4.5,3.8,8.1,34.6,8.1,34.6S569,499.2,566,502.1c-3,2.9,20.5,32.3,20.5,32.3s-22-5.8-27.2-2
		c-5.1,3.9,38,13.4,38,13.4l26,39.1c3.3,5,9.1,7.9,15.1,7.6l13.2-0.6c-0.3,6.6,0.5,13.5,2.9,20.4c6.1,17.6,18.9,40.2,29.9,58
		l-29.4,35.5c-5.4,6.5-3.8,16.2,3.3,20.7l52.1,33.2l-13.3,40.8c0,0-18.3-6.1-20.1,1.2c-1.8,7.3,19.5,5.7,19.5,5.7s-32,5.9-29.6,11.3
		c2.4,5.4,23,0.2,23,0.2s-15.4,19.4-13.3,28.2c2.1,8.8,21.7-25.2,21.7-25.2s-8.5,32.6-1.4,37.2c7.1,4.6,9-38.9,9-38.9
		s15.5,27.2,22.2,23.1c6.7-4-17.7-35.4-17.7-35.4l12-53.6l-27.2-28.7c-4.7-4.9-5.1-12.6-1-18c2.4-3.2,5.2-6.9,7.8-10.4
		c1.1,1.7,1.8,2.6,1.8,2.6l23.2,10.1l23-10.6c0,0,0.9-1.4,2.5-3.9c3,3.7,6.2,7.9,9,11.4c4.2,5.4,3.9,13-0.7,18l-26.6,29.3l13.2,53.3
		c0,0-23.7,31.9-16.9,35.8c6.7,3.9,21.7-23.6,21.7-23.6s2.9,43.5,9.9,38.7c7-4.8-2.2-37.2-2.2-37.2s20.3,33.5,22.2,24.7
		c1.9-8.8-13.9-27.9-13.9-27.9s20.7,4.7,23-0.7c2.3-5.4-29.8-10.6-29.8-10.6s21.3,1.2,19.4-6.1c-1.9-7.3-20.1-0.7-20.1-0.7
		l-14.2-40.5l51.4-34.4c7-4.7,8.3-14.4,2.8-20.8l-31.2-36.1c10.4-17.9,22.2-40.1,27.8-57.4c2.3-7,2.9-13.9,2.4-20.6l15.1,0.4
		c6,0.2,11.7-2.9,14.9-8l25.2-39.7C854.7,543,897.6,532.5,892.4,528.8z"/>
	<path class="st2" d="M520.7,555.7c-1.2-4.4-42.4,9.5-42.4,9.5s29.1-21.9,26.9-28c-2.2-6.1-34.8,17-34.8,17s-1.9-16.9-6.8-19.8
		c-4.9-2.9-5.6,25.5-6.9,26.9c-0.8,0.9-14.8,10.3-25.7,17.4c-7.3,4.8-16.9,4-23.3-2.1l-2.3-2.2c-2.4-27.4-17.8-49.4-17.8-49.4
		c6.4-6.3,10.6-14.2,7.1-22.3c-3.5-8.1-21.1-4.1-21.1-4.1c-3.7-0.3-9.8-3.2-16-6.6c-11.8-6.5-26.3-6.4-37.9,0.4
		c-6,3.5-12.1,6.5-15.8,6.9c0,0-17.7-3.6-21,4.6c-3.4,8.2,1,15.9,7.6,22.1c0,0-14.9,22.4-16.7,49.8l-2.2,2.2
		c-6.2,6.2-15.8,7.2-23.2,2.6c-11-6.9-25.3-16-26.1-16.9c-1.3-1.4-2.6-29.8-7.5-26.8c-4.9,3-6.4,19.9-6.4,19.9s-33.1-22.4-35.1-16.2
		c-2.1,6.1,27.5,27.4,27.5,27.4s-41.5-13-42.6-8.6c-1.1,4.4,37.7,18.1,37.7,18.1s-23.8,7.3-26.3,13.8c-2.5,6.5,43-9.5,43-9.5
		l46.7,21.3c5.6,2.6,12.1,2.1,17.3-1c6.1,20.6,18.7,47.2,28.9,67l-37,21.2c-8,4.6-10.1,15.1-4.6,22.4l40.5,54l-29.3,36.6
		c0,0-16.4-13.4-21-6.5c-4.6,6.8,17.8,13.3,17.8,13.3s-35-6.3-34.6,0.2s23.4,9.1,23.4,9.1s-23.2,13.9-24.5,23.7
		c-1.2,9.8,31.9-17.4,31.9-17.4s-21.3,30.1-15.8,37.5c5.5,7.5,24.2-36.3,24.2-36.3s5.4,33.8,13.8,32.2c8.4-1.6-4.5-43-4.5-43
		l32.9-50.2l-16.8-39.9c-2.9-6.9-0.4-14.8,5.9-18.8c4.6-2.9,10-6.4,14.8-9.3l0,0c11.7,6.2,25.7,6,37.2-0.4l0,0
		c4.8,2.9,10.3,6.2,15,9c6.4,3.9,9,11.8,6.3,18.7l-15.9,40.3l34,49.4c0,0-11.9,41.7-3.5,43.1c8.4,1.4,13.1-32.5,13.1-32.5
		s19.7,43.3,25,35.8c5.3-7.6-16.6-37.2-16.6-37.2s33.7,26.5,32.2,16.7c-1.4-9.8-25-23.2-25-23.2s22.9-3.1,23.2-9.6
		c0.3-6.4-34.6,0.6-34.6,0.6s22.3-7,17.5-13.7c-4.8-6.7-20.9,7-20.9,7l-30.1-36l39.3-54.9c5.3-7.5,2.9-17.9-5.1-22.3l-37.5-20.4
		c9.7-20,21.7-46.8,27.4-67.6c5.3,3,11.8,3.3,17.3,0.6l46.3-22.3c0,0,45.8,15.1,43.2,8.6c-2.7-6.5-26.6-13.3-26.6-13.3
		S521.8,560.1,520.7,555.7z"/>
	<path class="st1" d="M1224.8,715.1l-26,11.6c0,0,27.6-25.8,24-32c-3.5-6.2-9.4-6.7-9.4-6.7l-17.2,20.6c0,0,15.3-30.2,11.8-30.8
		c-3.5-0.5-6.4-2.2-7,0.6c-0.5,2.8-12.5,23.4-12.5,23.4l-18.3,21.2c0,0,5-23.3-2.6-23.2s-23,15-23,15s24-31.3,23.8-53.8
		c-0.1-8.6-3.9-17.6-8.6-26.6c4.7-1,8.8-3.8,11.4-7.8l16.7-52.3c0,0,45.2-10.8,39.7-14.6c-5.5-3.9-28.6,2.7-28.6,2.7
		s24.1-30.9,20.9-33.8c-3.2-2.9-29.8,28.8-29.8,28.8s12.7-32.1,7.8-35.9c-4.9-3.8-19.8,31-19.8,31s-10.1-12.6-15.7-12.5
		c-5.5,0.1,8.4,23.3,8.1,25c-0.2,1.1-6.9,15.6-12.2,26.8c-2.7,5.8-8.4,9.6-14.6,10.2c-0.9-3.1-1.5-6.2-1.6-9.1
		c-0.2-20.4-8.8-57.8-30.9-69.5c-22.2-11.7-19.3-16.2-38.5-16c-19.1,0.2-16.2,4.7-38.1,16.9c-21.9,12.2-29.6,49.7-29.4,70.1
		c0,3-0.5,6-1.4,9.2c-6.3-0.5-12-4.1-14.8-9.9c-5.5-11-12.5-25.4-12.7-26.5c-0.3-1.7,13.1-25.2,7.5-25.2c-5.5,0-15.4,12.8-15.4,12.8
		s-15.7-34.4-20.5-30.5c-4.8,3.9,8.6,35.7,8.6,35.7s-27.3-31.1-30.5-28.1c-3.1,3,21.6,33.3,21.6,33.3s-23.2-6-28.6-2
		c-5.4,4,40,13.8,40,13.8l17.8,51.9c2.7,4,6.9,6.7,11.6,7.5c-4.5,9.1-8.2,18.2-8.1,26.8c0.2,22.5,24.9,53.3,24.9,53.3
		s-15.8-14.6-23.4-14.5c-7.5,0.1-2.1,23.3-2.1,23.3l-18.8-20.8c0,0-12.4-20.3-13-23.1c-0.6-2.8-3.5-1.1-7-0.5
		c-3.5,0.6,12.5,30.5,12.5,30.5L936.3,691c0,0-5.8,0.6-9.2,6.9c-3.4,6.3,24.7,31.5,24.7,31.5l-26.2-11.1c0,0-13.9,0.7-13.9,5.3
		c0,4.5,43.1,20,43.1,20s51.8,68.7,66.9,73c15.1,4.4,17.2-14.9,17.2-14.9c8.2,10.1,37.2,6.4,37.2,6.4s29,3.1,37-7.2
		c0,0,2.5,19.3,17.6,14.6c15-4.7,65.3-74.5,65.3-74.5s42.7-16.4,42.7-20.9C1238.8,715.5,1224.8,715.1,1224.8,715.1z"/>
	<path class="st2" d="M1075.2,340.8c0,0-37.4-8.9-34.5,12.4c2.9,21.3,34.9,23,34.9,23s31.9-2.3,34.4-23.7
		C1112.4,331,1075.2,340.8,1075.2,340.8z"/>
</g>
</svg>
